<svg width="33" height="33" viewBox="0 0 33 33" fill="none" xmlns="http://www.w3.org/2000/svg">
<g id="icon/instagram">
<path id="vector" fill-rule="evenodd" clip-rule="evenodd" d="M16.25 4.35132C12.9908 4.35132 12.5828 4.36492 11.3028 4.42332C10.0252 4.48172 9.1524 4.68492 8.3892 4.98172C7.5892 5.28252 6.8636 5.75452 6.2636 6.36572C5.65338 6.96503 5.18109 7.69011 4.8796 8.49052C4.5844 9.25372 4.3804 10.1273 4.322 11.4049C4.2644 12.6841 4.25 13.0913 4.25 16.3513C4.25 19.6113 4.2636 20.0185 4.322 21.2985C4.3804 22.5761 4.5836 23.4489 4.8804 24.2121C5.1812 25.0121 5.6532 25.7377 6.2644 26.3377C6.86372 26.9479 7.58881 27.4202 8.3892 27.7217C9.1524 28.0177 10.0252 28.2209 11.3028 28.2793C12.5828 28.3377 12.9908 28.3513 16.25 28.3513C19.5092 28.3513 19.9172 28.3377 21.1972 28.2793C22.4748 28.2209 23.3476 28.0177 24.1108 27.7209C24.9108 27.4201 25.6364 26.9481 26.2364 26.3369C26.8466 25.7376 27.3189 25.0125 27.6204 24.2121C27.9164 23.4489 28.1196 22.5761 28.178 21.2985C28.2364 20.0185 28.25 19.6105 28.25 16.3513C28.25 13.0921 28.2364 12.6841 28.178 11.4041C28.1196 10.1265 27.9164 9.25372 27.6196 8.49052C27.3183 7.68977 26.846 6.96438 26.2356 6.36492C25.6363 5.7547 24.9112 5.2824 24.1108 4.98092C23.3476 4.68572 22.474 4.48172 21.1964 4.42332C19.9172 4.36572 19.51 4.35132 16.25 4.35132ZM16.25 6.51372C19.454 6.51372 19.834 6.52572 21.0996 6.58332C22.2692 6.63692 22.9044 6.83132 23.3276 6.99692C23.8876 7.21372 24.2876 7.47452 24.7076 7.89372C25.1276 8.31372 25.3876 8.71372 25.6044 9.27372C25.7692 9.69692 25.9644 10.3321 26.018 11.5017C26.0756 12.7673 26.0876 13.1473 26.0876 16.3513C26.0876 19.5553 26.0756 19.9353 26.018 21.2009C25.9644 22.3705 25.77 23.0057 25.6044 23.4289C25.4123 23.9502 25.1059 24.4217 24.7076 24.8089C24.3205 25.2073 23.8489 25.5138 23.3276 25.7057C22.9044 25.8705 22.2692 26.0657 21.0996 26.1193C19.834 26.1769 19.4548 26.1889 16.25 26.1889C13.0452 26.1889 12.666 26.1769 11.4004 26.1193C10.2308 26.0657 9.5956 25.8713 9.1724 25.7057C8.65116 25.5137 8.17961 25.2072 7.7924 24.8089C7.39414 24.4217 7.0877 23.9501 6.8956 23.4289C6.7308 23.0057 6.5356 22.3705 6.482 21.2009C6.4244 19.9353 6.4124 19.5553 6.4124 16.3513C6.4124 13.1473 6.4244 12.7673 6.482 11.5017C6.5356 10.3321 6.73 9.69692 6.8956 9.27372C7.1124 8.71372 7.3732 8.31372 7.7924 7.89372C8.17955 7.49535 8.65113 7.1889 9.1724 6.99692C9.5956 6.83212 10.2308 6.63692 11.4004 6.58332C12.666 6.52572 13.046 6.51372 16.25 6.51372V6.51372Z" fill="white"/>
<path id="vector_2" fill-rule="evenodd" clip-rule="evenodd" d="M16.25 20.3553C15.7242 20.3553 15.2036 20.2517 14.7178 20.0505C14.232 19.8493 13.7906 19.5543 13.4188 19.1825C13.047 18.8107 12.752 18.3693 12.5508 17.8835C12.3496 17.3978 12.246 16.8771 12.246 16.3513C12.246 15.8255 12.3496 15.3048 12.5508 14.819C12.752 14.3332 13.047 13.8918 13.4188 13.52C13.7906 13.1482 14.232 12.8533 14.7178 12.6521C15.2036 12.4508 15.7242 12.3473 16.25 12.3473C17.312 12.3473 18.3304 12.7691 19.0813 13.52C19.8322 14.2709 20.254 15.2894 20.254 16.3513C20.254 17.4132 19.8322 18.4316 19.0813 19.1825C18.3304 19.9334 17.312 20.3553 16.25 20.3553V20.3553ZM16.25 10.1833C14.6142 10.1833 13.0453 10.8331 11.8886 11.9898C10.7319 13.1466 10.082 14.7154 10.082 16.3513C10.082 17.9871 10.7319 19.556 11.8886 20.7127C13.0453 21.8694 14.6142 22.5193 16.25 22.5193C17.8859 22.5193 19.4547 21.8694 20.6115 20.7127C21.7682 19.556 22.418 17.9871 22.418 16.3513C22.418 14.7154 21.7682 13.1466 20.6115 11.9898C19.4547 10.8331 17.8859 10.1833 16.25 10.1833V10.1833ZM24.2124 10.0713C24.2124 10.458 24.0588 10.8288 23.7854 11.1022C23.512 11.3757 23.1411 11.5293 22.7544 11.5293C22.3677 11.5293 21.9969 11.3757 21.7235 11.1022C21.45 10.8288 21.2964 10.458 21.2964 10.0713C21.2964 9.6846 21.45 9.31375 21.7235 9.04032C21.9969 8.76689 22.3677 8.61328 22.7544 8.61328C23.1411 8.61328 23.512 8.76689 23.7854 9.04032C24.0588 9.31375 24.2124 9.6846 24.2124 10.0713" fill="white"/>
</g>
</svg>
