<svg width="33" height="33" viewBox="0 0 33 33" fill="none" xmlns="http://www.w3.org/2000/svg">
<g id="icon/linkedin">
<path id="vector" d="M28.25 6.11602V26.5866C28.25 27.0546 28.0641 27.5035 27.7331 27.8344C27.4022 28.1654 26.9533 28.3513 26.4853 28.3513H6.01471C5.54668 28.3513 5.09782 28.1654 4.76687 27.8344C4.43592 27.5035 4.25 27.0546 4.25 26.5866V6.11602C4.25 5.648 4.43592 5.19914 4.76687 4.86819C5.09782 4.53724 5.54668 4.35132 6.01471 4.35132H26.4853C26.9533 4.35132 27.4022 4.53724 27.7331 4.86819C28.0641 5.19914 28.25 5.648 28.25 6.11602V6.11602ZM11.3088 13.5278H7.77941V24.8219H11.3088V13.5278ZM11.6265 9.64544C11.6283 9.37846 11.5776 9.11374 11.4771 8.86638C11.3767 8.61902 11.2285 8.39387 11.041 8.20378C10.8536 8.01369 10.6305 7.86239 10.3846 7.75852C10.1386 7.65464 9.87462 7.60022 9.60765 7.59838H9.54412C9.0012 7.59838 8.48053 7.81405 8.09663 8.19795C7.71273 8.58184 7.49706 9.10252 7.49706 9.64544C7.49706 10.1883 7.71273 10.709 8.09663 11.0929C8.48053 11.4768 9.0012 11.6925 9.54412 11.6925V11.6925C9.81111 11.6991 10.0768 11.653 10.3259 11.5568C10.5751 11.4607 10.8029 11.3164 10.9963 11.1322C11.1896 10.948 11.3448 10.7275 11.453 10.4833C11.5611 10.2391 11.6201 9.97596 11.6265 9.70897V9.64544ZM24.7206 17.9607C24.7206 14.5654 22.5606 13.2454 20.4147 13.2454C19.7121 13.2103 19.0125 13.3599 18.3858 13.6795C17.7591 13.999 17.2271 14.4773 16.8429 15.0666H16.7441V13.5278H13.4265V24.8219H16.9559V18.8148C16.9049 18.1996 17.0987 17.5891 17.4952 17.1159C17.8917 16.6428 18.4589 16.3452 19.0735 16.2878H19.2076C20.33 16.2878 21.1629 16.9937 21.1629 18.7725V24.8219H24.6924L24.7206 17.9607Z" fill="white"/>
</g>
</svg>
