<svg width="33" height="33" viewBox="0 0 33 33" fill="none" xmlns="http://www.w3.org/2000/svg">
<g id="icon/whatsapp">
<path id="vector" d="M16.3003 4.73853C9.71348 4.73853 4.35297 9.90162 4.35065 16.2469C4.3491 18.2761 4.90032 20.2565 5.94548 22.0007L4.25 27.9643L10.5852 26.3641C12.3475 27.2859 14.3069 27.7667 16.2957 27.7654H16.3003C22.8872 27.7654 28.2477 22.6015 28.25 16.2562C28.2515 13.1827 27.0097 10.2895 24.753 8.11478C22.497 5.9393 19.497 4.7393 16.3003 4.73853ZM16.3003 25.8214H16.2965C14.5143 25.8214 12.7661 25.3599 11.241 24.4882L10.8771 24.2807L7.11916 25.2299L8.12252 21.6996L7.88639 21.338C6.89457 19.8253 6.36659 18.0557 6.36742 16.2469C6.36974 10.9723 10.826 6.68253 16.3042 6.68253C18.9566 6.6833 21.4503 7.67969 23.3261 9.48743C25.202 11.2952 26.234 13.699 26.2325 16.2554C26.2301 21.53 21.7746 25.8214 16.2995 25.8214H16.3003ZM21.7483 18.6562C21.4495 18.513 19.9816 17.817 19.7075 17.7202C19.4343 17.625 19.2353 17.5754 19.0363 17.8634C18.8381 18.1514 18.2652 18.7994 18.0918 18.9907C17.9168 19.1827 17.7426 19.2059 17.4438 19.0627C17.145 18.9187 16.1826 18.6152 15.043 17.635C14.155 16.8732 13.5558 15.9318 13.3816 15.643C13.2074 15.3558 13.363 15.2002 13.5125 15.057C13.6464 14.9292 13.8113 14.7218 13.9599 14.5538C14.1086 14.3858 14.1581 14.2658 14.2588 14.0738C14.3579 13.8825 14.3083 13.7138 14.2332 13.5705C14.1581 13.4258 13.562 12.0105 13.3119 11.4353C13.0704 10.8748 12.8242 10.9499 12.6407 10.9406C12.4665 10.9328 12.2683 10.9305 12.0678 10.9305C11.8704 10.9305 11.546 11.0025 11.2719 11.2905C10.9986 11.5785 10.2268 12.2738 10.2268 13.689C10.2268 15.105 11.2967 16.4722 11.4461 16.6642C11.5955 16.8554 13.5519 19.761 16.5473 21.0074C17.2595 21.3024 17.8154 21.4797 18.2497 21.6128C18.9651 21.8319 19.6162 21.8002 20.1303 21.7267C20.7032 21.6438 21.897 21.0314 22.1447 20.3602C22.394 19.689 22.394 19.113 22.3197 18.993C22.2469 18.873 22.0472 18.801 21.7483 18.6562V18.6562Z" fill="white"/>
</g>
</svg>
