<svg width="116" height="66" viewBox="0 0 116 66" fill="none" xmlns="http://www.w3.org/2000/svg">
<g clip-path="url(#clip0_1619_11385)">
<path d="M8.49799 18.3691C7.0458 18.3691 6.10481 18.4366 5.36193 18.5283C3.5639 18.7741 2.21999 22.0025 2.95532 22.7075C3.08711 22.7808 3.25248 22.8141 3.46065 22.8141C3.65036 22.8141 3.87448 22.785 4.14142 22.7291C5.02113 22.5491 6.6051 22.3241 8.76156 22.3241C11.8867 22.3241 13.955 22.955 13.955 25.7441V27.9491H9.11412C4.28664 27.9491 1.01879 29.3033 0.291016 33.0358V36.4333C0.991928 40.0266 4.0751 41.6716 9.07215 41.6716C15.586 41.6716 18.4459 39.4216 18.4459 34.4708V25.7391C18.4434 20.1233 14.4369 18.3691 8.49799 18.3691ZM8.98233 37.7625C6.73689 37.7625 4.66773 37.3133 4.66773 34.6583C4.66773 32.3633 6.11992 31.4625 9.11412 31.4625H13.955V34.255C13.955 37.3133 11.8422 37.7625 8.98233 37.7625Z" fill="#BBBABA"/>
<path d="M105.461 18.3691C104.01 18.3691 103.068 18.4366 102.325 18.5283C100.528 18.7741 99.1837 22.0025 99.9216 22.7075C100.053 22.7808 100.22 22.8141 100.428 22.8141C100.617 22.8141 100.842 22.785 101.108 22.7291C101.988 22.5491 103.572 22.3241 105.73 22.3241C108.855 22.3241 110.925 22.955 110.925 25.7441V27.9491H106.084C100.583 27.9491 97.1045 29.705 97.1045 34.7441C97.1045 39.5141 100.317 41.675 106.038 41.675C111.681 41.675 114.583 39.985 115.257 36.3133V23.9566C114.464 19.745 110.721 18.3691 105.461 18.3691ZM105.947 37.7625C103.701 37.7625 101.632 37.3133 101.632 34.6583C101.632 32.3633 103.084 31.4625 106.079 31.4625H110.92V34.255C110.919 37.3133 108.808 37.7625 105.947 37.7625Z" fill="#BBBABA"/>
<path d="M33.9322 18.3691H33.9113H33.8877C27.2597 18.3825 24.2529 21.5766 24.2529 27.1V38.0358C24.2529 39.7683 25.6783 41.1833 27.4234 41.1833H28.1453C28.523 41.1833 28.8303 40.8766 28.8303 40.5033L28.8252 27.0975C28.8252 24.2666 29.7553 22.6941 33.9087 22.6866C38.0622 22.6916 38.9922 24.2666 38.9922 27.0975L38.9872 38.0525C38.9948 39.4725 39.9626 40.6766 41.2746 41.0558C41.5567 41.1366 41.8521 41.18 42.1577 41.18H42.8796C43.2565 41.18 43.5645 40.875 43.5645 40.5008V27.0941C43.5645 21.5758 40.5594 18.3816 33.9322 18.3691Z" fill="#BBBABA"/>
<path d="M50.9249 18.8608H50.1207C49.7019 18.8608 49.3594 19.2008 49.3594 19.6142V37.7C49.3678 39.275 50.4456 40.61 51.9028 41.0308C52.2134 41.1225 52.5433 41.1717 52.8824 41.1717H53.6866C54.1054 41.1717 54.4479 40.835 54.4479 40.4183V22.3325C54.4404 20.7575 53.3626 19.4225 51.9028 19.0017C51.5947 18.9092 51.2674 18.8608 50.9249 18.8608Z" fill="#BBBABA"/>
<path d="M15.8398 8H15.2497L9.8397 10.7917L4.3239 8H3.71784C3.70189 8.03417 3.69434 8.07085 3.69434 8.11002V9.27668C3.69434 10.3942 4.21645 11.0709 5.09952 11.5884L9.80109 14.3025L14.5816 11.5492C15.4252 11.0708 15.8675 10.3533 15.8675 9.27584V8.11335C15.8667 8.07335 15.8583 8.03417 15.8398 8Z" fill="#BBBABA"/>
<path d="M82.749 18.3691C79.4182 18.3691 77.2441 19.5825 76.0899 21.6516C74.9802 19.5825 72.8489 18.3691 69.4308 18.3691C63.2586 18.3691 60.418 21.5633 60.418 27.1V27.1175L60.4339 37.7025C60.4415 39.2775 61.4034 40.6116 62.7104 41.0333C62.9639 41.1158 63.23 41.1616 63.5037 41.1716C63.533 41.1716 63.5591 41.175 63.5884 41.175H64.3078C64.6822 41.175 64.9903 40.8375 64.9903 40.4225V39.1875V39.1683V27.1008C64.9903 24.2658 65.7894 22.6891 69.4316 22.6891C73.0738 22.6891 73.8276 24.2658 73.8276 27.1008L73.8302 27.135L73.8352 34.6675V37.7041C73.8427 39.2808 74.7812 40.6133 76.0521 41.0358C76.2787 41.1116 76.5163 41.1566 76.7606 41.1708C76.8076 41.1741 76.8588 41.1766 76.9058 41.1766H77.6067C77.9702 41.1766 78.2707 40.84 78.2707 40.4241V36.3325H78.2682V27.1041C78.2682 24.2683 79.1118 22.6933 82.754 22.6933C86.3509 22.6933 87.15 24.2683 87.15 27.1041V27.1225L87.1517 34.6741V37.7108C87.1592 39.2875 88.1279 40.62 89.4399 41.0425C89.6741 41.1183 89.9218 41.1641 90.1753 41.1775C90.2223 41.1808 90.2726 41.1833 90.3196 41.1833H91.0415C91.4176 41.1833 91.7265 40.8458 91.7265 40.43V36.3383H91.724V27.1116C91.7181 21.4708 89.1411 18.3691 82.749 18.3691Z" fill="#BBBABA"/>
<path d="M25.4644 53.0025V55.2317H28.587C28.7264 55.2317 28.7952 55.2975 28.7952 55.4266V56.0183C28.7952 56.165 28.7264 56.2367 28.587 56.2367H24.5444C24.3975 56.2367 24.3262 56.1683 24.3262 56.03V49.1542C24.3262 49.015 24.395 48.9475 24.5352 48.9475H28.5484C28.6937 48.9475 28.7667 49.015 28.7667 49.1542V49.7467C28.7667 49.8842 28.6937 49.9533 28.5484 49.9533H25.4653V52.0258H28.4326C28.5644 52.0258 28.6307 52.0992 28.6307 52.2442V52.7825C28.6307 52.9267 28.5644 53 28.4326 53H25.4653L25.4644 53.0025Z" fill="#BBBABA"/>
<path d="M36.2295 54.6199C35.8207 55.0074 35.1937 55.1999 34.3425 55.1999H33.4015V49.9841H34.3324C35.1811 49.9841 35.8106 50.1674 36.222 50.5333C36.6333 50.8991 36.8381 51.5533 36.8381 52.4933C36.8415 53.5224 36.6383 54.2333 36.2295 54.6199ZM37.0992 49.7716C36.4906 49.2224 35.5765 48.9482 34.3559 48.9482H32.4639C32.3237 48.9482 32.2549 49.0157 32.2549 49.1549V56.0299C32.2549 56.1691 32.3288 56.2366 32.474 56.2366H34.3769C35.5974 56.2366 36.5057 55.9508 37.1092 55.3816C37.7128 54.8116 38.0133 53.8483 38.0133 52.4933C38.0108 51.2291 37.7086 50.3216 37.0992 49.7716Z" fill="#BBBABA"/>
<path d="M42.1571 55.6582C41.6887 55.1882 41.4512 54.5149 41.4512 53.6357V49.1549C41.4512 49.0157 41.52 48.9482 41.6593 48.9482H42.3812C42.5256 48.9482 42.5995 49.0157 42.5995 49.1549V53.5424C42.5995 54.7332 43.156 55.3266 44.2708 55.3266C45.3931 55.3266 45.9521 54.7332 45.9521 53.5424V49.1549C45.9521 49.0157 46.021 48.9482 46.1603 48.9482H46.8931C47.0249 48.9482 47.0904 49.0157 47.0904 49.1549V53.6357C47.0904 54.5149 46.8562 55.1866 46.3869 55.6582C45.9152 56.1299 45.2118 56.3649 44.2708 56.3649C43.3323 56.3633 42.6264 56.1266 42.1571 55.6582Z" fill="#BBBABA"/>
<path d="M55.4518 54.9833C55.5786 54.9358 55.6709 54.975 55.7339 55.1092L55.9739 55.6484C56.0159 55.7359 55.9664 55.8167 55.8262 55.8858C55.3251 56.1883 54.6854 56.3409 53.9048 56.3409C52.8396 56.3409 52.0153 56.0192 51.4327 55.3758C50.851 54.7325 50.5605 53.8025 50.5605 52.5833C50.5605 51.3717 50.8468 50.4458 51.4218 49.7967C51.9968 49.1508 52.8051 48.8267 53.8519 48.8267C54.6191 48.8267 55.2512 48.9733 55.754 49.2633C55.8808 49.3316 55.9261 49.415 55.8917 49.5125L55.6625 50.04C55.6155 50.1717 55.5207 50.205 55.3805 50.145C54.9776 49.9525 54.5268 49.855 54.0341 49.855C52.5004 49.855 51.7366 50.765 51.7366 52.5833C51.7366 54.4092 52.5172 55.3225 54.0769 55.3225C54.5738 55.3258 55.033 55.2117 55.4518 54.9833Z" fill="#BBBABA"/>
<path d="M60.8014 53.4892L61.9925 50.0776H62.0135L63.1946 53.4892H60.8014ZM65.2637 56.01L62.7262 49.1517C62.6968 49.0767 62.6682 49.0242 62.6372 48.9926C62.6053 48.9617 62.5474 48.9451 62.4626 48.9451H61.5426C61.4578 48.9451 61.3999 48.9617 61.3663 48.9926C61.3319 49.0242 61.3 49.0792 61.2723 49.1517L58.7314 56.01C58.7104 56.0717 58.7154 56.1251 58.7473 56.1692C58.7784 56.2134 58.8296 56.2367 58.9001 56.2367H59.6934C59.8042 56.2367 59.8805 56.1751 59.9225 56.0476L60.5076 54.48H63.4959L64.0709 56.0476C64.1255 56.1742 64.2103 56.2367 64.3211 56.2367H65.1042C65.1731 56.2367 65.226 56.2134 65.257 56.1692C65.2897 56.1267 65.2923 56.0717 65.2637 56.01Z" fill="#BBBABA"/>
<path d="M72.8899 54.9834C73.0166 54.9359 73.109 54.9751 73.1719 55.1093L73.412 55.6485C73.454 55.736 73.4036 55.8168 73.2668 55.8859C72.7665 56.1884 72.126 56.341 71.3462 56.341H71.3252C71.7281 56.5685 71.9313 56.8535 71.9313 57.1918C71.9313 57.4526 71.8339 57.6543 71.6392 57.7934C71.4444 57.9326 71.1649 58.0001 70.8031 58.0001C70.5874 58.0001 70.4396 57.9826 70.3624 57.9476C70.2785 57.9143 70.2365 57.8643 70.2365 57.8009V57.4801C70.2365 57.4043 70.2818 57.3643 70.3716 57.3643H70.6738C71.0297 57.3643 71.2069 57.2484 71.2069 57.0218C71.2069 56.7384 70.9903 56.4851 70.5588 56.2659C69.7362 56.1276 69.1033 55.7426 68.6609 55.1143C68.2185 54.4843 67.9961 53.641 67.9961 52.5843C67.9961 51.3726 68.2832 50.4468 68.8582 49.7976C69.4323 49.1518 70.2415 48.8276 71.2883 48.8276C72.0547 48.8276 72.6876 48.9743 73.1904 49.2643C73.3172 49.3326 73.3625 49.416 73.3272 49.5135L73.0989 50.041C73.0511 50.1726 72.957 50.2059 72.8169 50.1459C72.4139 49.9534 71.9632 49.8559 71.4704 49.8559C69.9368 49.8559 69.173 50.766 69.173 52.5843C69.173 54.4101 69.9528 55.3235 71.5132 55.3235C72.0152 55.326 72.4735 55.2118 72.8899 54.9834Z" fill="#BBBABA"/>
<path d="M81.0258 48.2367C80.8965 48.3858 80.6992 48.4592 80.4357 48.4592C80.1771 48.4592 79.8716 48.3934 79.5157 48.2642L79.2126 48.1583C78.6569 47.9858 78.3673 47.9917 78.3464 48.1792L78.3354 48.2733C78.3195 48.3775 78.2507 48.4292 78.1273 48.4292H77.8452C77.7269 48.4292 77.6689 48.3442 77.6689 48.1792C77.6689 47.9442 77.7319 47.7525 77.8612 47.605C77.9904 47.4542 78.1885 47.3809 78.4513 47.3809C78.7233 47.3809 79.0288 47.4467 79.3721 47.5767L79.7062 47.7025C79.9564 47.7992 80.1519 47.8492 80.2913 47.8492C80.4306 47.8492 80.5104 47.7808 80.5314 47.6417L80.5414 47.5384C80.5624 47.4409 80.6363 47.3933 80.7605 47.3933H81.0325C81.1584 47.3933 81.2197 47.4817 81.2197 47.6625C81.2188 47.895 81.155 48.0867 81.0258 48.2367Z" fill="#BBBABA"/>
<path d="M78.2432 53.4892L79.4343 50.0776H79.4553L80.6355 53.4892H78.2432ZM82.7021 56.01L80.1654 49.1517C80.136 49.0767 80.1075 49.0242 80.0756 48.9926C80.0437 48.9617 79.9858 48.9451 79.9018 48.9451H78.9818C78.8971 48.9451 78.8391 48.9617 78.8047 48.9926C78.7703 49.0242 78.7393 49.0792 78.7099 49.1517L76.1732 56.01C76.1513 56.0717 76.1572 56.1251 76.1891 56.1692C76.2202 56.2134 76.2705 56.2367 76.3394 56.2367H77.1326C77.2434 56.2367 77.3198 56.1751 77.3609 56.0476L77.9468 54.48H80.9352L81.5093 56.0476C81.5647 56.1742 81.6495 56.2367 81.7595 56.2367H82.5426C82.6115 56.2367 82.6635 56.2134 82.6954 56.1692C82.7282 56.1267 82.7315 56.0717 82.7021 56.01Z" fill="#BBBABA"/>
<path d="M88.6193 55.3375C87.267 55.3375 86.5922 54.4209 86.5922 52.5867C86.5922 50.755 87.267 49.8358 88.6193 49.8358C89.9767 49.8358 90.6566 50.7534 90.6566 52.5867C90.6558 54.4184 89.9758 55.3375 88.6193 55.3375ZM90.9966 49.7975C90.4434 49.155 89.6501 48.8325 88.6193 48.8325C87.5936 48.8325 86.8062 49.1559 86.253 49.7975C85.699 50.4417 85.4229 51.3717 85.4229 52.5909C85.4229 53.815 85.6999 54.7467 86.253 55.385C86.8062 56.0242 87.5944 56.345 88.6193 56.345C89.6501 56.345 90.4434 56.025 90.9966 55.385C91.5497 54.745 91.8268 53.8125 91.8268 52.5909C91.8259 51.3709 91.5497 50.4392 90.9966 49.7975Z" fill="#BBBABA"/>
</g>
<defs>
<clipPath id="clip0_1619_11385">
<rect width="115" height="50" fill="white" transform="translate(0.290039 8)"/>
</clipPath>
</defs>
</svg>
