<svg width="167" height="66" viewBox="0 0 167 66" fill="none" xmlns="http://www.w3.org/2000/svg">
<g clip-path="url(#clip0_1619_12982)">
<path d="M114.164 34.7888L109.336 46.6485H110.926L112.2 43.159H116.724L117.946 46.6485H119.845L115.426 34.7888H114.164ZM112.656 41.9666C113.299 40.3241 113.93 38.6816 114.538 36.5482H114.573C115.169 38.6816 115.742 40.3241 116.332 41.9666H112.656Z" fill="#BBBABA"/>
<path d="M109.663 34.7888H100.41V35.9695H104.204V46.6426H105.852V35.9695H109.663V34.7888Z" fill="#BBBABA"/>
<path d="M140.882 34.5842C137.463 34.5842 134.955 37.1911 134.955 40.5111C134.955 44.0474 137.223 46.8472 140.882 46.8472C144.541 46.8472 146.809 44.0532 146.809 40.5111C146.809 37.1911 144.301 34.5842 140.882 34.5842ZM140.882 45.6606C137.813 45.6606 136.767 42.8316 136.767 40.5111C136.767 38.29 137.954 35.7708 140.882 35.7708C143.81 35.7708 144.997 38.2959 144.997 40.5111C144.997 42.8316 143.945 45.6606 140.882 45.6606Z" fill="#BBBABA"/>
<path d="M62.0203 31.0015C63.5692 31.0015 64.9954 30.4521 65.802 29.9026L65.1474 28.9031C64.4401 29.3824 63.4114 29.7974 62.1021 29.7974C59.4718 29.7974 57.3734 27.7517 57.3734 24.7064C57.3734 21.889 59.127 19.7556 62.1021 19.7556C63.388 19.7556 64.6798 20.3401 65.2467 20.8077L65.9365 19.7731C65.1474 19.1536 63.9433 18.5515 62.2248 18.5515C57.9112 18.5515 55.5381 21.7137 55.5381 24.7414C55.5381 28.0614 57.7183 31.0015 62.0203 31.0015Z" fill="#BBBABA"/>
<path d="M103.683 25.8109H105.454L108.243 31.0071L109.926 30.4928L106.933 25.3666C108.085 24.6243 108.944 23.6307 108.944 21.8596C108.944 19.7788 107.413 18.7617 105.454 18.7617H102.018V30.8026H103.683V25.8109ZM103.683 19.96H105.11C106.226 19.96 107.155 20.5269 107.155 22.0057C107.155 23.0228 106.758 24.6009 104.624 24.6009H103.678V19.96H103.683Z" fill="#BBBABA"/>
<path d="M82.4546 34.7888H79.4736V46.6426H81.1161V35.9695H82.25C84.0094 35.9695 84.74 36.9164 84.74 38.2257C84.74 39.9851 83.7405 40.8326 82.1507 40.9203L81.6071 40.9378V42.0192H82.1331C84.7926 42.0192 86.5053 40.2072 86.5053 38.2082C86.5053 35.9052 84.9622 34.7888 82.4546 34.7888Z" fill="#BBBABA"/>
<path d="M71.5477 40.9846H75.6627V39.798H71.5477V35.9695H75.7503V34.7888H69.9053V46.6426H76.4751V45.4561H71.5477V40.9846Z" fill="#BBBABA"/>
<path d="M60.1499 34.7888H56.3564V46.6426H59.881C64.0778 46.6426 66.5912 44.2871 66.5912 40.3592C66.5853 37.5126 64.9253 34.7888 60.1499 34.7888ZM59.8284 45.4561H57.9989V35.9695H60.185C63.3004 35.9695 64.7733 37.6821 64.7733 40.3241C64.7733 43.7961 63.166 45.4561 59.8284 45.4561Z" fill="#BBBABA"/>
<path d="M96.8563 42.2588C96.8563 43.9539 96.114 45.7133 93.8929 45.7133C91.7769 45.7133 90.8593 44.4273 90.8593 41.9724V34.7888H89.2168V42.0367C89.2168 45.0878 90.5553 46.8472 93.8929 46.8472C96.7569 46.8472 98.3994 44.9476 98.3994 42.2939V34.7888H96.8563V42.2588Z" fill="#BBBABA"/>
<path d="M0.389648 9.35107V56.2169H166.074V9.35107H0.389648ZM2.02627 27.8916H4.54549V28.7801H2.02627V27.8916ZM2.02627 29.6452H4.54549V43.8604H2.02627V29.6452ZM45.4961 54.5919H2.03796V50.1614H2.02627V46.8355H45.4551V45.7308H45.4961V54.5919ZM45.4961 35.2798H45.4551V35.7942H14.4587C17.3696 38.705 23.4426 42.7966 28.8201 43.8545H9.44366V14.7461H4.55134V27.0032H2.03211V13.4602H2.0438V11.0052H45.5019V35.2798H45.4961ZM164.455 54.5919H47.121V10.9994H164.449V54.5919H164.455Z" fill="#BBBABA"/>
<path d="M132.377 40.3592C132.377 37.5126 130.717 34.7888 125.942 34.7888H122.148V46.6426H125.673C129.87 46.6426 132.377 44.2871 132.377 40.3592ZM123.785 45.4561V35.9695H125.971C129.087 35.9695 130.559 37.6821 130.559 40.3241C130.559 43.7961 128.952 45.4561 125.615 45.4561H123.785Z" fill="#BBBABA"/>
<path d="M78.8365 20.9943H78.8716C79.3333 22.5783 81.8292 27.7161 83.3255 30.7965H83.9977C85.6109 27.7161 88.3464 22.4029 88.8316 20.9943H88.8666V30.7965H90.5325V18.7556H88.966C87.2826 21.9529 85.5758 25.1735 83.8749 28.5578C82.3435 25.1677 80.7946 21.9529 79.2515 18.7556H77.4629V30.7965H78.8365V20.9943Z" fill="#BBBABA"/>
<path d="M112.966 27.2543H117.56L118.799 30.7965H120.728L116.239 18.7556H114.965L110.061 30.7965H111.68L112.966 27.2543ZM115.344 20.5442H115.38C115.982 22.7127 116.566 24.3786 117.168 26.0444H113.439C114.088 24.3786 114.725 22.7127 115.344 20.5442Z" fill="#BBBABA"/>
<path d="M93.5017 27.2543H98.0959L99.3351 30.7965H101.264L96.7749 18.7556H95.5007L90.5967 30.7965H92.2099L93.5017 27.2543ZM95.8748 20.5442H95.9098C96.5119 22.7127 97.0964 24.3786 97.6984 26.0444H93.9693C94.6239 24.3786 95.2552 22.7127 95.8748 20.5442Z" fill="#BBBABA"/>
<path d="M71.3899 16.1957L73.0908 17.8615H74.1078L71.9568 15.2488H70.8404L68.6895 17.8615H69.689L71.3899 16.1957Z" fill="#BBBABA"/>
<path d="M153.209 39.95C151.683 38.8511 150.959 38.2199 150.959 37.3782C150.959 36.4605 151.619 35.7708 152.806 35.7708C153.519 35.7708 154.279 36.1916 154.857 36.6183L155.635 35.7708C154.974 35.0285 153.94 34.5842 152.706 34.5842C150.859 34.5842 149.316 35.7883 149.316 37.3782C149.316 39.0557 150.415 39.7805 151.397 40.5462C152.361 41.2593 154.138 42.2237 154.138 43.7142C154.138 45.0352 153.238 45.6606 152.075 45.6606C150.959 45.6606 150.193 45.117 149.497 44.6261L148.772 45.608C149.62 46.438 150.976 46.8472 152.11 46.8472C154.004 46.8472 155.787 45.6256 155.787 43.7493C155.787 42.2237 154.84 41.1366 153.209 39.95Z" fill="#BBBABA"/>
<path d="M68.9812 27.2543H73.5754L74.8146 30.7965H76.7434L72.2544 18.7556H70.9802L66.0762 30.7965H67.6953L68.9812 27.2543ZM71.3543 20.5442H71.3893C71.9914 22.7127 72.5759 24.3786 73.1779 26.0444H69.4488C70.0976 24.3786 70.7347 22.7127 71.3543 20.5442Z" fill="#BBBABA"/>
<path d="M152.005 29.7972C150.872 29.7972 150.094 29.2478 149.393 28.7509L148.65 29.7504C149.51 30.5921 150.883 31.0071 152.041 31.0071C153.969 31.0071 155.776 29.768 155.776 27.8625C155.776 26.3135 154.811 25.2147 153.163 24.0106C151.614 22.8942 150.877 22.2571 150.877 21.3978C150.877 20.4685 151.55 19.7612 152.754 19.7612C153.473 19.7612 154.25 20.1938 154.834 20.6204L155.624 19.7612C154.951 19.0072 153.905 18.5571 152.648 18.5571C150.772 18.5571 149.206 19.7788 149.206 21.392C149.206 23.0929 150.322 23.8352 151.322 24.6068C152.304 25.3316 154.11 26.3077 154.11 27.8216C154.104 29.1601 153.192 29.7972 152.005 29.7972Z" fill="#BBBABA"/>
<path d="M142.407 31.0015C146.119 31.0015 148.428 28.1667 148.428 24.5719C148.428 21.1993 145.885 18.5515 142.407 18.5515C138.935 18.5515 136.387 21.1993 136.387 24.5719C136.387 28.1667 138.696 31.0015 142.407 31.0015ZM142.407 19.7556C145.382 19.7556 146.586 22.3216 146.586 24.5719C146.586 26.9275 145.523 29.7974 142.407 29.7974C139.298 29.7974 138.228 26.9275 138.228 24.5719C138.228 22.3157 139.432 19.7556 142.407 19.7556Z" fill="#BBBABA"/>
<path d="M135.844 24.4136C135.844 21.5262 134.16 18.7556 129.309 18.7556H125.457V30.7965H129.034C133.295 30.7965 135.844 28.4058 135.844 24.4136ZM127.123 29.5924V19.9597H129.338C132.5 19.9597 133.997 21.6957 133.997 24.3786C133.997 27.9032 132.36 29.5924 128.976 29.5924H127.123Z" fill="#BBBABA"/>
</g>
<defs>
<clipPath id="clip0_1619_12982">
<rect width="166" height="47.3451" fill="white" transform="translate(0.290039 9)"/>
</clipPath>
</defs>
</svg>
