<svg width="120" height="66" viewBox="0 0 120 66" fill="none" xmlns="http://www.w3.org/2000/svg">
<g clip-path="url(#clip0_1619_9808)">
<path d="M30.8074 49.3327H40.5426V47.3158H30.8074V44.6146H42.4278V42.5774H25.998V54.5222H43.2386V52.49H30.8074V49.3327Z" fill="#BBBABA"/>
<path d="M14.5445 52.5609C11.5495 52.5609 9.16255 52.1605 7.45471 51.3801C5.83808 50.6351 5.05258 49.6672 5.05258 48.4256C5.05258 47.108 5.78741 46.1096 7.29761 45.3646C8.88889 44.5842 11.1897 44.1889 14.134 44.1889C16.1814 44.1889 19.1309 44.4524 22.9064 44.9694L23.3929 45.0352V42.6787L23.0027 42.6432C19.6579 42.3189 16.6983 42.1567 14.2101 42.1567C9.79095 42.1567 6.30939 42.6787 3.86672 43.7125C1.30242 44.7971 0 46.3782 0 48.4104C0 50.4426 1.27708 52.0237 3.80084 53.1031C6.1979 54.1319 9.62879 54.6539 14.0023 54.6539C17.271 54.6539 20.3319 54.365 23.0939 53.7974L23.4385 53.7265V51.4967L22.9216 51.6082C19.9519 52.2416 17.1342 52.566 14.5547 52.566L14.5445 52.5609Z" fill="#BBBABA"/>
<path d="M68.2628 44.2295C66.9908 43.6264 65.4604 43.1957 63.7272 42.9524C62.0143 42.7041 59.7439 42.5774 56.9718 42.5774H47.2822V54.5222H57.0276C59.5057 54.5222 61.6088 54.3904 63.2812 54.137C64.9688 53.8735 66.4739 53.4376 67.751 52.8396C70.2139 51.7045 71.4657 50.1689 71.4657 48.2837C71.4657 46.5911 70.3862 45.2278 68.2628 44.2244V44.2295ZM66.4131 48.4357C66.4131 49.6622 65.6935 50.62 64.2188 51.3751C62.7846 52.115 60.2659 52.49 56.7286 52.49H52.0916V44.6146H54.9194C57.58 44.6146 59.6071 44.6957 60.9298 44.863C62.222 45.0251 63.342 45.3292 64.2644 45.76C65.7087 46.434 66.408 47.3107 66.408 48.4408L66.4131 48.4357Z" fill="#BBBABA"/>
<path d="M107.574 52.49V49.3327H117.309V47.3158H107.574V44.6146H119.194V42.5774H102.765V54.5222H120V52.49H107.574Z" fill="#BBBABA"/>
<path d="M84.1857 42.5774L72.2764 54.5222H77.1566L80.2429 51.4511H91.6708L94.7013 54.5222H100.175L88.4527 42.5774H84.1806H84.1857ZM89.6741 49.424H82.2244L85.9543 45.6789L89.6791 49.424H89.6741Z" fill="#BBBABA"/>
<path fill-rule="evenodd" clip-rule="evenodd" d="M85.8991 22.8433C86.2488 25.8434 67.6044 25.8941 54.4484 26.6745C57.3117 27.0343 91.7676 27.8604 91.7676 22.7419C91.7676 21.5966 88.8941 20.5527 84.1456 19.7469C68.8308 17.0812 32.0488 18.1809 32.0488 24.4194C32.0488 29.5024 59.0044 31.7626 73.0472 30.2929C59.0246 30.8098 38.2822 29.2743 37.9173 24.5562C37.37 17.5576 85.2859 17.5627 85.8991 22.8382V22.8433Z" fill="#BBBABA"/>
<path fill-rule="evenodd" clip-rule="evenodd" d="M84.2721 37.0686C58.8876 38.5078 19.7643 36.4098 19.4451 24.6576C19.1309 13.0422 59.5515 10.5286 84.186 12.2466C57.5244 8.82077 9.22841 12.277 9.69971 24.9667C10.1203 36.3135 58.918 40.5248 84.2721 37.0686Z" fill="#BBBABA"/>
<path fill-rule="evenodd" clip-rule="evenodd" d="M54.4229 33.5059C73.4422 34.5347 102.759 33.0346 102.998 24.6576C103.236 16.3819 72.9507 14.5879 54.4887 15.8092C74.4659 13.3666 110.65 15.8295 110.3 24.8755C109.986 32.9637 73.422 35.9689 54.4229 33.5009V33.5059Z" fill="#BBBABA"/>
</g>
<defs>
<clipPath id="clip0_1619_9808">
<rect width="120" height="43.6488" fill="white" transform="translate(0 11)"/>
</clipPath>
</defs>
</svg>
