<svg width="94" height="66" viewBox="0 0 94 66" fill="none" xmlns="http://www.w3.org/2000/svg">
<g clip-path="url(#clip0_1619_10594)">
<path d="M90.1498 53.6001L85.3698 61.4901V53.6001H82.5498V65.8501H85.6898L93.2898 53.6001H90.1498Z" fill="#BBBABA"/>
<path d="M17.4202 60.7301L18.7102 56.1401L20.0002 60.7301H17.4302H17.4202ZM21.4802 65.8501H24.4602L20.5702 53.6001H16.8402L12.9502 65.8501H15.9302L16.7002 63.2101H20.7202L21.4902 65.8501H21.4802Z" fill="#BBBABA"/>
<path d="M37.0696 60.7301L38.3596 56.1401L39.6496 60.7301H37.0796H37.0696ZM41.1296 65.8501H44.1096L40.2196 53.6001H36.4896L32.5996 65.8501H35.5796L36.3496 63.2101H40.3696L41.1396 65.8501H41.1296Z" fill="#BBBABA"/>
<path d="M6.9 53.6001H0V56.2401H6.81C8.77 56.2401 10.31 57.8001 10.24 59.7301C10.17 61.6601 8.53 63.2201 6.56 63.2201H5.22V57.4501H2.4V65.8501H6.46C9.98 65.8501 12.93 63.1101 13.05 59.7301C13.17 56.3501 10.41 53.6101 6.89 53.6101" fill="#BBBABA"/>
<path d="M33.7903 53.6001H23.2803V56.2401H33.7903V53.6001ZM29.9903 65.8501H27.1703V57.3701H29.9903V65.8501Z" fill="#BBBABA"/>
<path d="M51.89 53.6001H45.29V65.8401H48.11V56.2401H51.56C52.5 56.2401 53.24 57.0001 53.21 57.9501C53.18 58.8901 52.38 59.6601 51.44 59.6601H49.32V62.3001H51.58C53.98 62.3001 55.99 60.3601 56.08 57.9501C56.16 55.5501 54.29 53.6101 51.89 53.6101" fill="#BBBABA"/>
<path d="M68.3003 57.9601C68.3803 55.5501 66.5003 53.6001 64.0903 53.6001H57.5303V65.8501H60.3503V56.2401H63.7803C64.7303 56.2401 65.4703 57.0101 65.4403 57.9601C65.4103 58.9101 64.6103 59.6801 63.6603 59.6801H61.5703V62.3201L64.2803 65.8501H67.7603L64.7503 62.2001C66.7103 61.7601 68.2103 60.0301 68.2903 57.9501" fill="#BBBABA"/>
<path d="M80.5596 53.6001H69.8896V56.3201H80.5596V53.6001Z" fill="#BBBABA"/>
<path d="M80.5596 58.3599H69.8896V61.0799H80.5596V58.3599Z" fill="#BBBABA"/>
<path d="M80.5596 63.1201H69.8896V65.8401H80.5596V63.1201Z" fill="#BBBABA"/>
<path d="M31.1304 21.6602L20.9004 24.2702L46.9404 44.9102L31.1304 21.6602Z" fill="#BBBABA"/>
<path d="M37.4595 12.1498L25.6895 11.5098L47.7295 43.8998L37.4595 12.1498Z" fill="#BBBABA"/>
<path d="M50.1498 47.45L34.7998 0L72.5298 13.3L50.1498 47.45Z" fill="#BBBABA"/>
</g>
<defs>
<clipPath id="clip0_1619_10594">
<rect width="93.29" height="65.85" fill="white"/>
</clipPath>
</defs>
</svg>
