<svg width="90" height="66" viewBox="0 0 90 66" fill="none" xmlns="http://www.w3.org/2000/svg">
<g clip-path="url(#clip0_1619_6714)">
<path d="M5.23955 10L0 49.1105H17.1129L37.6551 13.8143L43.3528 49.1105H84.7605L90 10H5.23955ZM26.7122 25.2514H15.2886L14.5325 29.9139H24.2892L23.4178 35.3051H13.6611L11.8958 46.2156H4.08145L8.39903 19.5129H27.6398L26.7122 25.2514ZM52.1397 27.1784C52.4377 27.5428 53.2023 27.9071 54.4391 28.2658C57.4917 29.1795 59.6505 30.0619 60.9154 30.9159C62.1803 31.7698 63.0517 32.7974 63.5296 34.0014C64.0074 35.2026 64.1564 36.5319 63.9793 37.9865C63.7713 39.6944 63.167 41.2514 62.1663 42.6575C61.1656 44.0637 59.8754 45.1084 58.3013 45.7887C56.7272 46.469 54.8129 46.7593 52.5558 46.6597C48.5924 46.486 45.9529 45.4926 44.6402 43.6794C43.3247 41.8691 42.7316 39.6118 42.8581 36.9134L49.7673 36.7227C49.7617 38.0007 49.9444 38.9856 50.3211 39.6716C50.931 40.7817 51.9261 41.3681 53.3035 41.4279C54.3294 41.4734 55.1559 41.2343 55.7799 40.7049C56.4039 40.1783 56.7581 39.552 56.848 38.8262C56.9295 38.1345 56.7412 37.5054 56.2774 36.9361C55.8136 36.3668 54.6471 35.7976 52.7778 35.2283C49.7167 34.2775 47.5973 33.1019 46.4139 31.6958C45.2221 30.2925 44.7526 28.5476 45.0056 26.4611C45.1715 25.092 45.6746 23.8139 46.5179 22.6269C47.3584 21.44 48.5193 20.5291 49.9978 19.8915C51.4764 19.2567 53.4271 18.992 55.8558 19.0973C58.8325 19.2283 61.0251 19.9626 62.4361 21.2976C63.8444 22.6326 64.5303 24.6878 64.4909 27.4631L57.6491 27.6196C57.6126 26.4127 57.3399 25.5246 56.8284 24.9525C56.3168 24.3804 55.555 24.0758 54.5375 24.0302C53.6998 23.9932 53.0449 24.1697 52.5698 24.5568C52.0976 24.944 51.8249 25.4279 51.7546 26.0085C51.704 26.4327 51.8333 26.8226 52.1397 27.1784ZM78.6298 26.316L75.1893 45.9993H68.3812L71.8218 26.316H64.8788L66.006 19.8602H86.7028L85.5728 26.316H78.6298Z" fill="#BBBABA"/>
<path d="M39.7884 55.9734L19.0298 55.925L22.7599 49.3269L22.8807 49.1105L34.6276 28.3313L38.5066 49.1105L38.5488 49.3297L39.7884 55.9734Z" fill="#BBBABA"/>
<path d="M64.3867 54.6099L65.6544 54.5274C65.6432 54.7608 65.6713 54.9401 65.736 55.0625C65.84 55.2618 66.017 55.3614 66.27 55.3642C66.4584 55.3642 66.6102 55.3158 66.7282 55.2162C66.8463 55.1166 66.9165 54.9999 66.9362 54.8661C66.9559 54.738 66.925 54.627 66.8463 54.5245C66.7648 54.4249 66.5539 54.3281 66.2166 54.237C65.6629 54.0833 65.2806 53.8841 65.0754 53.6364C64.8674 53.3888 64.7915 53.0728 64.8533 52.6914C64.8927 52.4409 64.9939 52.2047 65.1569 51.9826C65.3199 51.7606 65.5392 51.587 65.8147 51.4617C66.0901 51.3365 66.4499 51.2739 66.8941 51.2767C67.4394 51.2796 67.8357 51.3991 68.0859 51.6325C68.3332 51.8659 68.4457 52.236 68.4176 52.7455L67.1611 52.8195C67.1611 52.6003 67.1189 52.4381 67.029 52.3384C66.939 52.2388 66.8013 52.1876 66.6158 52.1847C66.464 52.1847 66.3403 52.2189 66.2532 52.2929C66.1632 52.3669 66.1098 52.4551 66.0929 52.5633C66.0817 52.6402 66.1014 52.7113 66.1548 52.7739C66.2054 52.8394 66.3431 52.8992 66.568 52.9561C67.1217 53.1041 67.5096 53.2493 67.7373 53.3973C67.9622 53.5453 68.1168 53.7275 68.1955 53.9438C68.2742 54.1602 68.2911 54.4021 68.2489 54.6668C68.1983 54.98 68.0775 55.2675 67.8835 55.5322C67.6895 55.7941 67.4478 55.9933 67.1527 56.1299C66.8603 56.2637 66.5062 56.3292 66.0929 56.3263C65.3677 56.3206 64.8899 56.1584 64.6622 55.8367C64.4345 55.5151 64.3417 55.1081 64.3839 54.6156L64.3867 54.6099Z" fill="white"/>
<path d="M69.4493 51.3762L70.7676 51.3848L70.4921 53.0926L71.9313 53.104L72.2068 51.3961L73.5307 51.4047L72.7465 56.2864L71.4225 56.2778L71.7402 54.3024L70.301 54.291L69.9834 56.2665L68.665 56.2579L69.4493 51.3762Z" fill="white"/>
<path d="M73.8481 53.8556C73.9774 53.0586 74.2697 52.4409 74.7279 51.9968C75.1861 51.5556 75.7623 51.3365 76.4538 51.3421C77.1649 51.3478 77.6765 51.5699 77.9885 52.0082C78.3034 52.4466 78.3961 53.0586 78.2696 53.847C78.1769 54.4163 78.0195 54.886 77.7918 55.2504C77.5641 55.6147 77.2774 55.8965 76.9288 56.0958C76.5803 56.2979 76.1671 56.3946 75.6948 56.3918C75.2142 56.3889 74.8291 56.2979 74.5424 56.1214C74.2556 55.9449 74.0448 55.6631 73.9099 55.2817C73.775 54.9002 73.7525 54.4249 73.8452 53.8527L73.8481 53.8556ZM75.1664 53.8727C75.0877 54.3651 75.1102 54.7209 75.2366 54.9372C75.3603 55.1536 75.5627 55.2646 75.8382 55.2646C76.1221 55.2646 76.3582 55.1621 76.5465 54.9543C76.7349 54.7437 76.8726 54.3651 76.9625 53.8186C77.0356 53.3603 77.0103 53.0216 76.881 52.8109C76.7545 52.5974 76.5493 52.4893 76.2739 52.4893C76.0097 52.4893 75.7763 52.5946 75.5824 52.8081C75.3856 53.0216 75.2479 53.3774 75.1692 53.8755L75.1664 53.8727Z" fill="white"/>
<path d="M79.3632 51.4475L81.5529 51.4646C82.0308 51.4674 82.3653 51.6012 82.5621 51.8631C82.7588 52.125 82.8178 52.495 82.7391 52.9761C82.6604 53.4685 82.4693 53.8528 82.1657 54.1289C81.8621 54.405 81.4433 54.5416 80.912 54.5359L80.1896 54.5302L79.9001 56.3434L78.5762 56.3349L79.3604 51.4504L79.3632 51.4475ZM80.3527 53.5397H80.6759C80.9317 53.5425 81.1172 53.4941 81.2353 53.3945C81.3562 53.2949 81.4264 53.1639 81.4517 53.0074C81.477 52.8537 81.4517 52.7227 81.3815 52.6174C81.3084 52.5092 81.151 52.4552 80.9036 52.4523H80.527L80.3527 53.5397Z" fill="white"/>
</g>
<defs>
<clipPath id="clip0_1619_6714">
<rect width="90" height="46.3918" fill="white" transform="translate(0 10)"/>
</clipPath>
</defs>
</svg>
