<svg width="151" height="66" viewBox="0 0 151 66" fill="none" xmlns="http://www.w3.org/2000/svg">
<g clip-path="url(#clip0_1619_7480)">
<path d="M49.8729 10H35.7886V23.0112H49.8729V10Z" fill="#BBBABA"/>
<path fill-rule="evenodd" clip-rule="evenodd" d="M35.7207 26.2639H50.9561L67.2027 42.5279H45.5391L35.7207 26.2639Z" fill="#BBBABA"/>
<path d="M31.4144 10H17.3301V23.0112H31.4144V10Z" fill="#BBBABA"/>
<path fill-rule="evenodd" clip-rule="evenodd" d="M31.482 26.2639H16.2466L0 42.5279H21.6636L31.482 26.2639Z" fill="#BBBABA"/>
<path d="M143.511 42.8984C148.779 42.8984 150.996 40.9964 150.996 35.4937V26.2504H145.628V36.7678C145.628 38.0689 145.064 39.108 143.506 39.108C141.949 39.108 141.38 38.0689 141.38 36.7678V26.2504H136.022V35.4937C136.022 40.9964 138.243 42.8984 143.506 42.8984M102.4 38.8459H96.5001L95.1549 42.5415H89.625L94.9608 28.3376C95.5341 26.797 96.4279 26.2097 98.1523 26.2097H100.748C102.472 26.2097 103.375 26.797 103.94 28.3376L109.275 42.5415H103.745L102.4 38.8459ZM97.3217 35.5163H101.579L99.949 30.1266C99.8768 29.9098 99.7774 29.7968 99.4479 29.7968C99.1184 29.7968 99.0191 29.9098 98.9559 30.1266L97.3217 35.5163ZM91.5119 26.2504V29.9098H86.9345V42.5415H81.5491V29.9098H76.9717V26.2504H91.5074H91.5119ZM69.6587 26.2504H75.0396V42.5415H69.6587V26.2504ZM128.727 32.006C128.727 33.1219 128.33 34.2243 125.996 34.2243H124.312V29.702H125.996C128.334 29.702 128.727 30.8043 128.727 31.9202V32.006ZM124.335 37.7978H127.197C131.91 37.7978 134.013 35.8823 134.013 32.0512C134.013 28.2201 131.91 26.2504 127.197 26.2504H118.954V42.5415H124.335V37.7978ZM110.643 26.2504H116.024V42.5415H110.643V26.2504Z" fill="#BBBABA"/>
<path d="M81.2736 53.1086C81.2736 54.9022 80.1722 55.7967 77.9738 55.7967H74.7822V46.725H77.9738C79.8923 46.725 80.8493 47.5021 80.8493 49.0652C80.8493 49.9236 80.5062 50.529 79.8201 50.8769C79.7433 50.9175 79.6305 50.9446 79.4815 50.9582C79.6079 50.9582 79.7208 50.9763 79.8201 51.0079C80.7906 51.3467 81.2782 52.047 81.2782 53.1086M79.8472 49.0652C79.8472 48.4915 79.6711 48.0939 79.3145 47.8725C79.0301 47.6963 78.5877 47.6105 77.9783 47.6105H75.7753V50.5787H78.1137C79.2739 50.5787 79.8517 50.0772 79.8517 49.0652H79.8472ZM80.2895 53.1086C80.2895 52.0153 79.5628 51.4687 78.1092 51.4687H75.7708V54.9203H77.9738C78.8269 54.9203 79.4273 54.7847 79.7704 54.5137C80.1135 54.2426 80.285 53.7728 80.285 53.1086H80.2895ZM84.0228 55.7967H83.0387V46.725H84.0228V55.7967ZM93.3762 55.7967H92.4418L86.9841 48.2611C87.0428 48.4599 87.0744 48.6406 87.0744 48.8122V55.7967H86.0903V46.725H87.0202L92.4598 54.2381C92.4102 54.0122 92.3876 53.8496 92.3876 53.7457V46.7295H93.3717V55.8012L93.3762 55.7967ZM102.581 55.7967H101.538L100.495 52.9776H96.7664L95.7236 55.7967H94.7169L98.0755 46.725H99.2402L102.585 55.7967H102.581ZM100.157 52.0605L98.8971 48.627C98.7978 48.3514 98.712 48.0487 98.6353 47.7189C98.5585 48.0623 98.4682 48.365 98.3689 48.627L97.1004 52.0605H100.157ZM110.35 54.1748C109.817 55.3901 108.788 56 107.257 56C105.853 56 104.856 55.5392 104.26 54.6266C103.772 53.8767 103.529 52.7563 103.529 51.2609C103.529 49.6887 103.786 48.5276 104.31 47.7777C104.887 46.9464 105.844 46.5308 107.176 46.5308C108.196 46.5308 108.982 46.7928 109.533 47.3169C109.988 47.746 110.237 48.2882 110.282 48.9433H109.375C109.235 47.9313 108.499 47.4208 107.163 47.4208C106.079 47.4208 105.348 47.7822 104.973 48.5005C104.689 49.0336 104.549 49.9552 104.549 51.2564C104.549 52.4762 104.698 53.3707 104.996 53.9309C105.407 54.7079 106.165 55.0965 107.262 55.0965C108.359 55.0965 109.18 54.6311 109.591 53.7005L110.359 54.1658L110.35 54.1748ZM113.157 55.7967H112.173V46.725H113.157V55.7967ZM122.461 51.1524C122.461 52.7201 122.208 53.8857 121.707 54.6447C121.111 55.5437 120.109 55.9955 118.701 55.9955C117.292 55.9955 116.304 55.5437 115.722 54.6447C115.229 53.8902 114.986 52.7291 114.986 51.1524C114.986 49.7068 115.229 48.6135 115.722 47.8816C116.317 46.978 117.311 46.5308 118.701 46.5308C120.091 46.5308 121.098 46.9825 121.707 47.8816C122.208 48.6225 122.461 49.7113 122.461 51.1524ZM121.455 51.1524C121.455 49.8875 121.265 48.9658 120.89 48.3966C120.466 47.746 119.735 47.4208 118.701 47.4208C117.667 47.4208 116.945 47.746 116.53 48.4056C116.168 48.9704 115.988 49.8875 115.988 51.157C115.988 52.5394 116.168 53.5288 116.534 54.1161C116.945 54.7757 117.663 55.1055 118.701 55.1055C119.739 55.1055 120.47 54.7757 120.89 54.1161C121.269 53.5198 121.455 52.5304 121.455 51.157V51.1524ZM131.566 55.7967H130.632L125.174 48.2611C125.233 48.4599 125.265 48.6406 125.265 48.8122V55.7967H124.28V46.725H125.21L130.65 54.2381C130.6 54.0122 130.578 53.8496 130.578 53.7457V46.7295H131.562V55.8012L131.566 55.7967ZM140.771 55.7967H139.728L138.685 52.9776H134.957L133.914 55.7967H132.907L136.266 46.725H137.43L140.775 55.7967H140.771ZM138.347 52.0605L137.087 48.627C136.988 48.3514 136.902 48.0487 136.821 47.7189C136.744 48.0623 136.654 48.365 136.559 48.627L135.291 52.0605H138.347ZM147.24 55.7967H142.112V46.725H143.091V54.9158H147.24V55.7922V55.7967Z" fill="#BBBABA"/>
</g>
<defs>
<clipPath id="clip0_1619_7480">
<rect width="151" height="46" fill="white" transform="translate(0 10)"/>
</clipPath>
</defs>
</svg>
