<svg width="169" height="66" viewBox="0 0 169 66" fill="none" xmlns="http://www.w3.org/2000/svg">
<g clip-path="url(#clip0_1619_12181)">
<path d="M27.7004 19.448C20.2627 19.448 14.2812 25.523 14.2812 32.948C14.2812 40.373 20.3147 46.448 27.7004 46.448C35.0862 46.448 41.1196 40.373 41.1196 32.948C41.1196 25.523 35.0862 19.448 27.7004 19.448ZM26.3481 43.6961C21.1989 43.073 17.1939 38.7634 16.9339 33.4672L26.3481 41.4115V43.6961ZM26.3481 37.8807L17.298 30.248C17.61 29.1576 18.0261 28.0672 18.6503 27.1326L26.3481 33.623V37.8807ZM26.3481 30.0922L20.3667 25.0557C22.0311 23.498 24.1116 22.5634 26.3481 22.2518V30.0922ZM29.0528 22.2518C31.2893 22.5115 33.3698 23.498 35.0342 25.0557L29.0528 30.0922V22.2518ZM29.0528 33.623L36.7506 27.1326C37.3747 28.1192 37.8429 29.1576 38.1029 30.248L29.0528 37.8807V33.623ZM29.0528 43.6961V41.4115L38.467 33.4672C38.2069 38.7634 34.15 43.073 29.0528 43.6961Z" fill="#BBBABA"/>
<path d="M42.6277 44.1115C42.8358 44.2673 43.0958 44.3192 43.3039 44.3192C43.772 44.3192 44.1881 44.1115 44.4482 43.6442C46.3206 40.4769 47.3088 36.8942 47.3088 33.1558C47.3088 21.9923 38.3627 12.9058 27.3881 12.9058C23.7472 12.9058 20.1584 13.8923 17.0896 15.8135C16.4655 16.1769 16.2575 17.0077 16.6215 17.6827C16.9856 18.3058 17.8178 18.5135 18.442 18.15C21.1466 16.4885 24.2153 15.6058 27.3881 15.6058C36.9064 15.6058 44.6562 23.4981 44.6562 33.1558C44.6562 36.375 43.772 39.4904 42.1596 42.2423C41.7955 42.8654 42.0036 43.6961 42.6277 44.1115Z" fill="#BBBABA"/>
<path d="M12.6685 21.525C12.0444 21.1097 11.2122 21.2654 10.7961 21.8885C8.55957 25.2635 7.36328 29.1577 7.36328 33.2077C7.36328 44.3712 16.3614 53.4058 27.4921 53.4058C31.549 53.4058 35.45 52.2116 38.7788 49.927C39.4029 49.5116 39.5589 48.6808 39.1428 48.0577C38.7267 47.4347 37.8945 47.2789 37.2704 47.6943C34.4097 49.6674 30.9769 50.7058 27.4921 50.7058C17.8698 50.7058 10.0679 42.8654 10.0679 33.2077C10.0679 29.677 11.1082 26.302 13.0846 23.3943C13.4487 22.7712 13.2927 21.9404 12.6685 21.525Z" fill="#BBBABA"/>
<path d="M49.1297 17.4749C48.7136 16.9038 47.8814 16.748 47.2573 17.1634C46.6852 17.5788 46.5291 18.4615 46.9452 19.0326C53.9669 28.6903 52.9266 41.8269 44.5006 50.2384C36.1266 58.6499 23.0195 59.7403 13.4493 52.7307C12.8771 52.3153 12.0449 52.4192 11.5768 52.9903C11.1607 53.6134 11.2647 54.4442 11.8889 54.8595C16.414 58.1826 21.9273 59.948 27.5446 59.948C28.2208 59.948 28.8449 59.948 29.5211 59.8961C35.8666 59.4288 41.9 56.6769 46.3731 52.1076C50.8982 47.5384 53.6548 41.5672 54.1229 35.1288C54.591 28.8461 52.8226 22.5634 49.1297 17.4749Z" fill="#BBBABA"/>
<path d="M7.77958 49.3557C8.40372 48.9403 8.50775 48.0577 8.09165 47.4865C1.06998 37.8288 2.16224 24.6403 10.5882 16.1769C19.0142 7.71342 32.1214 6.67496 41.7957 13.6846C42.4198 14.1 43.252 13.9961 43.6681 13.373C44.0842 12.75 43.9802 11.9192 43.356 11.5038C38.2068 7.76534 31.9133 5.94804 25.5678 6.41534C19.1703 6.88265 13.1889 9.6865 8.61177 14.2038C4.0867 18.825 1.38205 24.848 0.86193 31.2865C0.393819 37.6211 2.16224 43.9557 5.85512 49.0961C6.11518 49.4596 6.53128 49.6673 6.94738 49.6673C7.25945 49.6153 7.51951 49.5115 7.77958 49.3557Z" fill="#BBBABA"/>
<path d="M82.6254 36.7386L72.639 24.8482C72.327 24.4847 71.9629 24.2251 71.4948 24.2251H70.1424C69.1542 24.2251 68.374 25.0039 68.374 25.9905V42.0866H71.9109V29.6251L81.9493 41.5155C82.2613 41.8789 82.6254 42.1386 83.0935 42.1386H84.4459C85.4341 42.1386 86.2143 41.3597 86.2143 40.3732V24.277H82.6774C82.6254 24.2251 82.6254 36.7386 82.6254 36.7386Z" fill="#BBBABA"/>
<path d="M114.873 42.502L106.031 24.7443C105.771 24.225 105.199 23.8616 104.575 23.8616H103.795C103.17 23.8616 102.598 24.225 102.338 24.7443L93.4961 42.502H97.6051L99.3215 38.9193H108.996L110.764 42.502H114.873ZM100.726 35.9596L104.159 28.8981L107.643 35.9596H100.726Z" fill="#BBBABA"/>
<path d="M131.881 38.5559H133.078C133.702 38.5559 134.118 38.1924 134.482 37.7251L139.631 29.9886V42.0866H143.22V25.9905C143.22 25.0039 142.44 24.2251 141.452 24.2251H140.099C139.631 24.2251 139.215 24.4847 138.955 24.8482L132.506 34.2982L126.056 24.8482C125.796 24.4847 125.38 24.2251 124.912 24.2251H123.559C122.571 24.2251 121.791 25.0039 121.791 25.9905V42.0866H125.38V29.9886L130.529 37.7251C130.841 38.2443 131.309 38.5559 131.881 38.5559Z" fill="#BBBABA"/>
<path d="M164.753 24.2251V37.2059C164.753 37.9328 164.181 38.5559 163.401 38.5559H157.211C156.483 38.5559 155.859 37.9328 155.859 37.2059V24.2251H152.322V37.6213C152.322 40.1136 154.299 42.0866 156.743 42.0866H163.869C166.314 42.0866 168.29 40.0616 168.29 37.6213V24.2251H164.753Z" fill="#BBBABA"/>
</g>
<defs>
<clipPath id="clip0_1619_12181">
<rect width="168" height="54" fill="white" transform="translate(0.290039 6)"/>
</clipPath>
</defs>
</svg>
