<svg width="72" height="66" viewBox="0 0 72 66" fill="none" xmlns="http://www.w3.org/2000/svg">
<g clip-path="url(#clip0_1619_5953)">
<path opacity="0.996" fill-rule="evenodd" clip-rule="evenodd" d="M46.5624 7C49.0968 7 51.624 7.072 54.1584 7.2232C61.6752 7.972 67.0104 11.7592 70.164 18.592C72.5904 24.1072 72.612 29.6368 70.2432 35.1808C67.5576 40.912 63.1656 44.6488 57.0672 46.384C54.72 46.9744 52.3368 47.2048 49.9104 47.0608C43.5312 46.6792 37.6416 44.8 32.2488 41.4232C30.8664 40.4368 29.4264 39.5296 27.936 38.7088C23.9472 36.6784 19.7064 35.656 15.228 35.6344C13.9968 35.5336 13.2984 34.8784 13.1328 33.6544C13.0536 32.0272 13.0536 30.4072 13.1328 28.78C13.284 27.592 13.9536 26.944 15.1488 26.8432C17.7264 26.8504 19.7568 25.8208 21.24 23.7472C22.3056 22.0696 22.5 20.2984 21.8376 18.4336C21.0672 16.72 19.7424 15.748 17.8632 15.5392C15.1632 15.532 12.4704 15.5104 9.7704 15.4816C9.576 15.496 9.3816 15.532 9.1944 15.5824C9.0216 15.6688 8.9064 15.8128 8.856 16C8.82 16.2952 8.7984 16.5832 8.7984 16.8784C8.8416 26.0584 8.8488 35.2384 8.82 44.4112C8.8128 45.1312 8.5392 45.7216 7.9992 46.1896C7.5672 46.4416 7.0992 46.5712 6.6024 46.5928C5.0976 46.6216 3.5928 46.6216 2.088 46.5928C0.936 46.4848 0.2664 45.8656 0.072 44.7352C0.0504 40.7968 0.036 36.8656 0 32.9344C0.0288 24.9784 0.0504 17.008 0.0576 9.0376C0.1728 8.0296 0.7272 7.4104 1.7136 7.18C4.896 7.1152 8.0784 7.0792 11.268 7.0792C13.896 7.072 16.5168 7.108 19.1448 7.18C22.9176 7.7056 25.92 9.4984 28.1592 12.5584C30.096 15.316 30.9096 18.376 30.6 21.7528C30.5856 23.1496 30.2904 24.4816 29.7216 25.7488C29.2032 26.908 28.6488 28.0528 28.0656 29.1832C29.5272 29.7736 30.9384 30.4576 32.2992 31.2424C34.1712 32.4016 36.0216 33.5824 37.8576 34.7992C42.6312 37.7008 47.8152 38.9392 53.4024 38.5144C57.2616 38.0176 60.1344 36.0808 62.0136 32.6968C64.5984 27.9232 64.1592 23.4592 60.696 19.3048C58.6512 16.9864 56.0736 15.7264 52.9632 15.5248C50.2128 15.5176 47.4624 15.496 44.712 15.4672C44.4888 15.4744 44.2656 15.5104 44.0496 15.568C43.8192 15.6904 43.6896 15.8848 43.668 16.144C43.6536 18.5344 43.6608 20.9248 43.6896 23.3152C43.6824 25.5328 43.6608 27.7504 43.632 29.968C43.5744 30.7384 43.236 31.3432 42.6096 31.7896C41.8896 32.128 41.1768 32.128 40.4496 31.7896C39.6 31.3072 38.772 30.7888 37.9728 30.2344C37.0368 29.572 36.0864 28.9168 35.136 28.276C35.0352 28.1968 34.956 28.096 34.9128 27.9736C34.848 21.832 34.8336 15.6904 34.8696 9.5488C34.8048 8.764 35.0496 8.1088 35.6112 7.5688C35.9568 7.3312 36.3456 7.18 36.7704 7.1296C40.0392 7.0936 43.3008 7.0432 46.5624 7Z" fill="#BBBABA"/>
<path opacity="0.943" fill-rule="evenodd" clip-rule="evenodd" d="M11.4336 50.4448C12.1608 50.4592 12.42 50.8192 12.2112 51.5248C12.0312 51.82 11.772 51.9208 11.4336 51.8272C10.9944 51.712 10.8144 51.424 10.8936 50.9704C10.9656 50.668 11.1456 50.4952 11.4336 50.4448Z" fill="#BBBABA"/>
<path opacity="0.944" fill-rule="evenodd" clip-rule="evenodd" d="M50.1984 50.4448C50.8536 50.524 51.084 50.884 50.8968 51.5248C50.8248 51.6688 50.7096 51.7696 50.5584 51.8272C49.968 51.964 49.6296 51.7408 49.5576 51.1504C49.6008 50.7472 49.8096 50.5168 50.1984 50.4448Z" fill="#BBBABA"/>
<path opacity="0.97" fill-rule="evenodd" clip-rule="evenodd" d="M52.8336 50.4448C53.064 50.4304 53.2728 50.4736 53.4744 50.5816C53.5752 50.6896 53.6328 50.8192 53.6544 50.9632C53.6832 52.9864 53.6832 55.0096 53.6544 57.04C53.6112 57.4144 53.3952 57.616 53.0136 57.6376C52.6032 57.6376 52.3656 57.436 52.2936 57.04C52.2648 55.0384 52.2648 53.044 52.2936 51.0424C52.3296 50.704 52.5096 50.5096 52.8336 50.4448Z" fill="#BBBABA"/>
<path opacity="0.979" fill-rule="evenodd" clip-rule="evenodd" d="M1.0368 50.8047C1.62 50.7975 2.2104 50.8047 2.7936 50.8263C4.2408 50.9343 4.9032 51.7119 4.7736 53.1663C4.7376 53.5047 4.5936 53.7927 4.356 54.0231C4.1328 54.1671 3.9096 54.2967 3.6792 54.4263C3.4344 54.5775 3.384 54.7719 3.5424 55.0023C3.9888 55.4055 4.3848 55.8447 4.7448 56.3199C4.8888 56.8815 4.6656 57.1983 4.0824 57.2775C3.8736 57.2631 3.6864 57.1839 3.5208 57.0543C3.1392 56.6727 2.7864 56.2623 2.4624 55.8375C2.232 55.5783 1.98 55.3551 1.7064 55.1607C1.656 55.2615 1.62 55.3695 1.584 55.4775C1.5768 55.8519 1.548 56.2263 1.5048 56.5935C1.332 57.2271 0.9432 57.4215 0.324 57.1695C0.2232 57.1263 0.1512 57.0471 0.1008 56.9463C0.0576 56.0823 0.0216 55.2183 0 54.3471C0.036 53.3103 0.0504 52.2663 0.0576 51.2295C0.1008 51.0423 0.216 50.9127 0.396 50.8479C0.6192 50.8551 0.8352 50.8335 1.0368 50.8047ZM1.9152 52.1223C2.196 52.1223 2.4768 52.1583 2.7576 52.2231C3.132 52.4103 3.2544 52.7127 3.1392 53.1231C3.0816 53.2599 2.9952 53.3751 2.88 53.4615C2.4984 53.5983 2.1168 53.6271 1.7208 53.5407C1.5552 53.4615 1.4616 53.3391 1.44 53.1591C1.4616 52.8927 1.4976 52.6263 1.5408 52.3599C1.6416 52.2303 1.764 52.1511 1.9152 52.1223Z" fill="#BBBABA"/>
<path opacity="0.975" fill-rule="evenodd" clip-rule="evenodd" d="M20.3401 50.8047C21.2185 50.7759 22.0609 50.9415 22.8601 51.3015C23.7385 51.8199 24.2641 52.5903 24.4369 53.5983C24.6529 56.5503 23.2849 57.8967 20.3185 57.6375C20.0305 57.6303 19.7425 57.5943 19.4617 57.5367C19.2961 57.4791 19.1809 57.3639 19.1233 57.1983C19.0873 57.0543 19.0585 56.9103 19.0441 56.7591C19.0153 55.4919 19.0153 54.2247 19.0441 52.9647C19.0513 52.3815 19.1953 51.8343 19.4833 51.3231C19.7065 51.0423 19.9945 50.8695 20.3401 50.8047ZM21.2185 52.2807C22.0393 52.3527 22.5937 52.7775 22.8745 53.5623C23.0545 54.3111 22.9537 55.0167 22.5577 55.6791C22.0249 56.2479 21.3913 56.3991 20.6569 56.1399C20.4985 55.9815 20.4337 55.7871 20.4553 55.5639L20.4769 52.6479C20.5201 52.5471 20.5993 52.4751 20.7001 52.4247C20.8729 52.3599 21.0529 52.3095 21.2185 52.2807Z" fill="#BBBABA"/>
<path opacity="0.973" fill-rule="evenodd" clip-rule="evenodd" d="M58.5071 50.8047C59.1263 50.7471 59.7167 50.8623 60.2639 51.1431C60.6311 51.4239 60.7175 51.7767 60.5231 52.2015C60.3935 52.3815 60.2135 52.4751 59.9831 52.4823C59.6663 52.4391 59.3639 52.3671 59.0615 52.2591C58.5215 52.1727 58.2695 52.4103 58.3199 52.9575C58.3703 53.1087 58.4711 53.2095 58.6223 53.2599C59.2919 53.3823 59.9039 53.6343 60.4583 54.0159C61.1423 54.6783 61.3151 55.4559 60.9551 56.3559C60.6887 56.9535 60.2495 57.3279 59.6159 57.4935C58.7879 57.7095 57.9743 57.6663 57.1751 57.3711C56.6999 57.1191 56.5559 56.7375 56.7575 56.2335C56.8943 56.0319 57.0887 55.9239 57.3335 55.9167C57.8159 56.0175 58.2983 56.1183 58.7735 56.2335C59.3711 56.1399 59.5727 55.8015 59.3927 55.2327L59.2559 55.0959C58.6223 54.8583 57.9959 54.6063 57.3767 54.3399C57.0239 54.0879 56.8007 53.7495 56.7143 53.3175C56.5487 52.2375 56.9519 51.4527 57.9311 50.9775C58.1399 50.9199 58.3271 50.8551 58.5071 50.8047Z" fill="#BBBABA"/>
<path opacity="0.974" fill-rule="evenodd" clip-rule="evenodd" d="M66.7802 50.8048C67.4282 50.6824 67.8746 50.9272 68.1194 51.5248C68.7314 53.1304 69.329 54.7432 69.9194 56.3632C70.0562 56.7736 69.9338 57.0616 69.5378 57.22C69.0626 57.3712 68.7386 57.22 68.5586 56.7592C68.5298 56.5576 68.465 56.3704 68.357 56.1976C68.2634 56.1184 68.1698 56.0608 68.0546 56.0176C67.5866 56.0032 67.1186 55.9888 66.6578 55.96C66.2762 55.9456 65.9666 56.0752 65.7218 56.3632C65.6066 56.5936 65.513 56.8312 65.441 57.0832C65.0882 57.3424 64.721 57.3496 64.3394 57.1048C64.2098 56.9824 64.1378 56.8312 64.1378 56.644C64.7642 54.8872 65.4194 53.1448 66.1178 51.4096C66.2762 51.1216 66.4922 50.92 66.7802 50.8048ZM67.1042 52.6408C67.1546 52.6408 67.1906 52.6696 67.205 52.72C67.3922 53.2456 67.5578 53.7784 67.7018 54.3184C67.709 54.412 67.6802 54.4912 67.6226 54.556C67.2554 54.7504 66.881 54.7576 66.5066 54.5776C66.4346 54.5272 66.3914 54.4624 66.3842 54.376C66.5642 53.9368 66.7154 53.4904 66.845 53.0368C66.917 52.9 67.0034 52.7632 67.1042 52.6408ZM6.99137 52.4824C7.43777 52.4608 7.86977 52.5472 8.27297 52.7416C8.63297 52.792 8.99297 52.864 9.35297 52.9432C9.65537 53.044 9.82097 53.2528 9.84977 53.5624C9.90737 54.5704 9.92177 55.5856 9.89297 56.6008C9.88577 56.8096 9.84977 57.0184 9.79217 57.22C9.64097 57.544 9.38897 57.652 9.03617 57.5368C8.84897 57.472 8.66177 57.4144 8.47457 57.3568C7.78337 57.6592 7.07057 57.6952 6.35777 57.4576C5.63057 57.0184 5.22737 56.3776 5.14097 55.5208C5.00417 54.5128 5.28497 53.656 5.99777 52.9432C6.29297 52.6984 6.62417 52.5472 6.99137 52.4824ZM7.31537 53.836C7.89137 53.7928 8.24417 54.0448 8.37377 54.592C8.48177 55.0672 8.43137 55.5208 8.21537 55.9528C7.94897 56.2336 7.62497 56.3344 7.23617 56.2552C6.95537 56.176 6.76097 55.996 6.66017 55.7152C6.42977 55.096 6.51617 54.5344 6.91937 54.016C7.04897 53.944 7.17857 53.8864 7.31537 53.836Z" fill="#BBBABA"/>
<path opacity="0.965" fill-rule="evenodd" clip-rule="evenodd" d="M11.4695 52.4823C11.7215 52.4535 11.9231 52.5327 12.0887 52.7199C12.1823 52.9071 12.2327 53.1087 12.2471 53.3175C12.2831 54.5991 12.2687 55.8735 12.2039 57.1551C12.1031 57.4647 11.8943 57.6231 11.5631 57.6375C11.2319 57.6303 11.0231 57.4719 10.9223 57.1551C10.8647 55.8231 10.8503 54.4911 10.8791 53.1591C10.9223 52.7919 11.1167 52.5615 11.4695 52.4823Z" fill="#BBBABA"/>
<path opacity="0.975" fill-rule="evenodd" clip-rule="evenodd" d="M15.1486 52.4823C15.6382 52.4535 16.099 52.5615 16.531 52.7991C16.927 52.6263 17.3302 52.5831 17.7478 52.6623C17.8198 52.6911 17.8774 52.7415 17.9278 52.7991C17.9998 52.9719 18.0502 53.1519 18.0646 53.3391C18.0214 53.6271 17.9926 53.9223 17.9854 54.2175C18.0286 55.1031 18.0358 55.9887 18.007 56.8743C18.0286 57.2847 17.8414 57.5223 17.4454 57.5943C17.1646 57.5439 16.8982 57.4647 16.6462 57.3567C15.991 57.6447 15.3142 57.6879 14.6302 57.4935C13.8454 57.1047 13.399 56.4711 13.291 55.5927C13.1254 54.5559 13.4134 53.6703 14.1478 52.9359C14.4502 52.7055 14.7814 52.5543 15.1486 52.4823ZM15.3862 53.8791C16.0342 53.7783 16.4302 54.0447 16.567 54.6783C16.6534 55.0743 16.6174 55.4631 16.4446 55.8375C16.0846 56.2911 15.6382 56.3919 15.1054 56.1399C14.8966 56.0031 14.7742 55.8087 14.7238 55.5639C14.6806 55.1751 14.7094 54.7863 14.803 54.4047C14.9326 54.1455 15.127 53.9727 15.3862 53.8791Z" fill="#BBBABA"/>
<path opacity="0.976" fill-rule="evenodd" clip-rule="evenodd" d="M27.5326 52.4823C28.1878 52.4535 28.5262 52.7559 28.555 53.4039C28.5334 53.5263 28.4686 53.6271 28.375 53.7063C28.015 53.8143 27.6838 53.9727 27.3742 54.1887C27.0214 54.6351 26.863 55.1463 26.8918 55.7295C26.9566 56.2047 26.9782 56.6871 26.9494 57.1695C26.8198 57.5007 26.575 57.6663 26.2078 57.6519C25.6894 57.6447 25.4374 57.3855 25.4518 56.8743C25.459 55.5639 25.4878 54.2463 25.5526 52.9359C25.6534 52.6551 25.8478 52.5327 26.1286 52.5543C26.2726 52.6335 26.4238 52.6767 26.5894 52.6911C26.9206 52.6335 27.2302 52.5687 27.5326 52.4823Z" fill="#BBBABA"/>
<path opacity="0.974" fill-rule="evenodd" clip-rule="evenodd" d="M30.6505 52.4824C31.9897 52.4464 32.8537 53.0728 33.2281 54.3616C33.4297 55.24 33.2857 56.0536 32.7889 56.8024C32.0761 57.544 31.2193 57.7888 30.2113 57.544C29.2465 57.256 28.6921 56.608 28.5553 55.6072C28.3897 54.4912 28.7425 53.5768 29.6137 52.8712C29.9449 52.6696 30.2905 52.5472 30.6505 52.4824ZM30.7729 53.836C31.4641 53.8288 31.8313 54.1744 31.8745 54.8728C31.9105 55.2184 31.8601 55.5568 31.7161 55.8736C31.4497 56.2192 31.0969 56.3416 30.6577 56.2552C30.3769 56.176 30.1825 55.996 30.0817 55.7152C29.8513 55.1752 29.9089 54.6496 30.2401 54.16C30.3769 53.9872 30.5569 53.8792 30.7729 53.836ZM41.6017 52.4824C42.1057 52.4752 42.5953 52.5688 43.0633 52.7632C43.4017 52.6048 43.7545 52.5472 44.1217 52.5832C44.2081 52.6264 44.2801 52.6912 44.3449 52.7632C44.4097 52.9144 44.4529 53.08 44.4673 53.2456C44.5249 54.0664 44.5465 54.8872 44.5249 55.7008C44.5249 56.1904 44.4889 56.6728 44.4241 57.1624C44.3521 57.5296 44.1289 57.6664 43.7617 57.58C43.5241 57.5008 43.3009 57.4 43.0849 57.2776C42.3073 57.7384 41.5225 57.7456 40.7305 57.2992C40.0465 56.752 39.7081 56.032 39.7297 55.1392C39.7153 54.2608 40.0249 53.512 40.6513 52.9C40.9321 52.684 41.2561 52.54 41.6017 52.4824ZM41.9257 53.836C42.5089 53.7856 42.8617 54.0376 42.9841 54.592C43.0705 55.0024 43.0489 55.3984 42.9049 55.7944C42.6961 56.1904 42.3721 56.3416 41.9257 56.2552C41.4361 56.14 41.1769 55.8232 41.1481 55.3192C41.1121 54.9304 41.1841 54.556 41.3497 54.2032C41.4937 54.0016 41.6881 53.8792 41.9257 53.836Z" fill="#BBBABA"/>
<path opacity="0.969" fill-rule="evenodd" clip-rule="evenodd" d="M47.0017 52.4824C47.7217 52.4032 48.3049 52.6408 48.7369 53.2024C48.8737 53.5912 48.7585 53.8792 48.3985 54.0592C48.2761 54.088 48.1609 54.088 48.0385 54.0592C47.7721 53.9728 47.4985 53.8936 47.2177 53.836C46.8217 53.8936 46.7569 54.0592 47.0377 54.3328C47.5057 54.5128 47.9593 54.7288 48.3985 54.9736C48.9457 55.456 49.0681 56.032 48.7801 56.7088C48.6073 57.0904 48.3193 57.3496 47.9233 57.4864C47.1025 57.7024 46.3177 57.6088 45.5689 57.2056C45.1441 56.9392 45.0577 56.5864 45.3097 56.1472C45.3745 56.0824 45.4465 56.0392 45.5329 56.0104C45.7345 55.9816 45.9361 55.9816 46.1305 56.0104C46.4401 56.14 46.7569 56.2696 47.0665 56.392C47.2321 56.3704 47.3401 56.2768 47.3833 56.1112C47.4193 55.9816 47.4049 55.8736 47.3257 55.7728C47.0449 55.636 46.7497 55.528 46.4473 55.456C46.0225 55.2832 45.6841 55.0096 45.4249 54.6352C45.1945 53.9872 45.3025 53.4112 45.7633 52.9C46.1377 52.6552 46.5553 52.5184 47.0017 52.4824Z" fill="#BBBABA"/>
<path opacity="0.965" fill-rule="evenodd" clip-rule="evenodd" d="M50.119 52.4824C50.5582 52.4392 50.8318 52.6264 50.9398 53.044C50.9686 54.376 50.9686 55.708 50.9398 57.04C50.8894 57.436 50.6662 57.6376 50.263 57.6376C49.8598 57.6304 49.6366 57.436 49.5862 57.04C49.5502 55.6648 49.5646 54.2968 49.6294 52.9216C49.6942 52.6696 49.8598 52.5184 50.119 52.4824Z" fill="#BBBABA"/>
<path opacity="0.977" fill-rule="evenodd" clip-rule="evenodd" d="M35.9281 52.5183C36.1009 52.5111 36.2737 52.5183 36.4465 52.5399C36.8137 52.6191 37.1881 52.6767 37.5625 52.7199C37.8649 52.6623 38.1745 52.6335 38.4841 52.6191C38.6641 52.7415 38.7721 52.9071 38.8225 53.1159C38.8513 54.5919 38.8513 56.0751 38.8225 57.5511C38.7361 58.5807 38.1961 59.2431 37.2025 59.5311C36.1801 59.7975 35.2369 59.6175 34.3873 58.9911C34.2073 58.5879 34.2937 58.2639 34.6465 58.0119C34.7905 57.9831 34.9417 57.9831 35.0857 58.0119C35.3809 58.1559 35.6833 58.2567 36.0073 58.3287C36.3241 58.3719 36.6193 58.3071 36.8857 58.1271C37.0513 57.9975 37.1953 57.8535 37.3249 57.6879C36.9937 57.7167 36.6625 57.7383 36.3241 57.7455C35.5033 57.7887 34.8985 57.4575 34.5025 56.7447C33.9409 55.5639 34.0129 54.4191 34.7041 53.3103C35.0281 52.9143 35.4385 52.6479 35.9281 52.5183ZM36.3673 53.8791C36.8497 53.8503 37.1593 54.0591 37.3033 54.5199C37.5337 55.0743 37.4833 55.6071 37.1449 56.1183C36.7273 56.4711 36.3025 56.4855 35.8633 56.1615C35.4457 55.5279 35.4241 54.8727 35.7841 54.2031C35.9569 54.0303 36.1441 53.9295 36.3673 53.8791Z" fill="#BBBABA"/>
<path opacity="0.943" fill-rule="evenodd" clip-rule="evenodd" d="M62.2658 55.8809C62.9426 55.8593 63.2306 56.1761 63.1226 56.8385C62.9498 57.2273 62.6474 57.3713 62.2226 57.2561C61.8986 57.1553 61.7546 56.9321 61.7834 56.5937C61.7762 56.2409 61.9346 55.9961 62.2658 55.8809Z" fill="#BBBABA"/>
<path opacity="0.954" fill-rule="evenodd" clip-rule="evenodd" d="M71.1359 55.8809C71.8343 55.8593 72.1079 56.1905 71.9567 56.8817C71.9135 57.0257 71.8271 57.1409 71.6975 57.2201C70.8407 57.4145 70.5023 57.0905 70.6751 56.2409C70.7831 56.0537 70.9415 55.9313 71.1359 55.8809Z" fill="#BBBABA"/>
</g>
<defs>
<clipPath id="clip0_1619_5953">
<rect width="72" height="52.6536" fill="white" transform="translate(0 7)"/>
</clipPath>
</defs>
</svg>
