<svg width="178" height="66" viewBox="0 0 178 66" fill="none" xmlns="http://www.w3.org/2000/svg">
<g clip-path="url(#clip0_1619_4446)">
<path d="M16.2868 17C7.29294 17 0 24.3903 0 33.5043C0 42.6183 7.29294 50 16.2868 50C25.2807 50 32.5736 42.6125 32.5736 33.5043C32.5736 24.3961 25.2835 17 16.2868 17ZM27.2404 27.117C26.646 29.126 25.0645 30.0023 23.8898 29.8754C22.5131 29.7313 21.7906 28.3075 21.6456 27.1862C21.3867 26.6991 20.5306 26.751 19.993 27.3217C17.9678 29.567 16.3465 32.4955 15.6241 33.8934C14.4664 36.2512 13.1381 39.2546 11.6277 43.068C11.6277 43.068 11.5253 43.3735 11.13 43.3735H6.09831C5.8992 43.3735 5.77974 43.2985 5.69725 43.2034C5.47824 42.9498 5.60339 42.6932 5.61192 42.6587C5.8224 42.088 10.6948 28.6908 10.928 27.9587C11.1044 27.4139 11.0134 27.0479 10.5839 27.0162C10.4416 27.0075 10.0889 27.0825 9.20719 27.8665C8.55299 28.4804 7.46075 29.6535 7.46075 29.6535C7.16779 30.0023 6.85491 29.6449 6.77242 29.4921C6.65296 29.2615 6.6046 28.9127 6.79802 28.6245C9.0991 25.1945 12.39 23.5256 13.7183 23.2778C15.6923 22.9203 16.7334 23.3902 17.1202 24.2059C17.7147 25.4482 17.0263 28.0192 16.7675 28.9473C18.5481 26.0189 20.2689 24.6815 20.9316 24.2491C25.5935 21.1333 28.0141 24.5287 27.2404 27.117ZM52.8681 33.9194C57.1944 33.2132 59.6718 30.7603 59.6718 26.9556C59.6718 23.1509 56.3695 20.3752 51.7247 20.3752H42.2416V46.6161H45.9961V33.9857H48.9201L56.873 46.6161H61.0058L52.8681 33.9165V33.9194ZM45.9961 32.1842V22.1825H50.3793C53.5052 22.1825 55.7893 24.252 55.7893 27.0853C55.7893 29.9187 53.2436 32.1842 49.6255 32.1842H45.9961ZM80.0943 46.6219H66.1001V20.381H79.7729V22.1853H69.8546V32.1784H79.0106V33.9828H69.8546V44.8175H80.0943V46.6219ZM105.477 46.6219H103.822L88.4254 27.1487V46.6219H86.2666V20.381H87.922L103.31 39.8541V20.381H105.477V46.6219ZM132.135 46.6219H130.479L115.083 27.1487V46.6219H112.924V20.381H114.579L129.967 39.8541V20.381H132.135V46.6219ZM153.32 46.6219H139.325V20.381H152.998V22.1853H143.071V32.1784H152.236V33.9828H143.071V44.8175H153.32V46.6219ZM169.859 33.9223C174.186 33.2161 176.663 30.7632 176.663 26.9585C176.663 23.1538 173.361 20.3781 168.716 20.3781H159.233V46.619H162.987V33.9886H165.911L173.864 46.619H177.997L169.859 33.9194V33.9223ZM162.987 32.1871V22.1825H167.379C170.497 22.1825 172.789 24.252 172.789 27.0853C172.789 29.9187 170.235 32.1842 166.617 32.1842H162.987V32.1871Z" fill="#BBBABA"/>
</g>
<defs>
<clipPath id="clip0_1619_4446">
<rect width="178" height="33" fill="white" transform="translate(0 17)"/>
</clipPath>
</defs>
</svg>
