<svg width="180" height="66" viewBox="0 0 180 66" fill="none" xmlns="http://www.w3.org/2000/svg">
<g clip-path="url(#clip0_1619_8251)">
<path d="M23.7469 31.562C23.7028 30.4042 23.3718 29.2686 22.7979 28.2444L17.6116 19.2043C17.2143 18.5141 16.9495 17.7793 16.795 17L16.5743 17.3785C15.2943 19.6274 15.2943 22.3884 16.5743 24.6373L20.7234 31.896C22.0034 34.1449 22.0034 36.9058 20.7234 39.1547L20.5027 39.5332C20.3482 38.7539 20.0834 38.0191 19.6861 37.3512L15.8901 30.6936L13.4625 26.4631C13.0652 25.7728 12.8004 25.038 12.6459 24.281L12.4252 24.6595C11.1452 26.8861 11.1452 29.6471 12.4031 31.896L16.5743 39.1547C17.8543 41.4036 17.8543 44.1646 16.5743 46.4135L16.3536 46.792C16.1991 46.0127 15.9122 45.2779 15.537 44.6099L10.3507 35.5254C9.6665 34.323 9.33546 32.9648 9.40167 31.5843C3.84012 33.0316 0 36.1488 0 39.7559C0 44.7658 7.4154 48.8182 16.5743 48.8182C25.7332 48.8182 33.1486 44.7658 33.1486 39.7559C33.1486 36.1488 29.3085 33.0316 23.7469 31.562ZM39.3943 47.0592C39.4384 45.9681 39.6371 44.8994 39.9902 43.8974C41.7778 44.699 43.72 45.0998 45.6842 45.122C48.5753 45.122 50.1864 44.1868 50.1864 42.3165C50.1864 40.4461 48.9946 39.6446 46.0814 38.3531L44.4924 37.6629C41.5571 36.3715 39.5709 34.7015 39.5709 31.3839C39.5709 27.799 42.0206 25.5056 47.0745 25.5056C49.0167 25.4834 50.9367 25.7951 52.7685 26.4185C52.7023 27.4873 52.4816 28.5338 52.1506 29.5581C50.5174 28.9791 48.796 28.6674 47.0525 28.6451C44.3379 28.6451 43.102 29.7139 43.102 31.3839C43.102 33.0538 44.3158 33.9667 46.5007 34.9019L48.178 35.6144C52.1285 37.3066 53.7837 39.1102 53.7837 42.1606C53.7837 45.7677 51.0692 48.2615 45.7945 48.2615C43.2344 48.2615 41.1378 47.883 39.3943 47.0592ZM70.5125 32.0518V47.7494H67.3786L67.2021 45.8568C66.3193 47.2373 64.9951 48.1057 62.8102 48.1057C58.7052 48.1057 55.9686 45.0998 55.9686 39.8227C55.9686 34.3007 58.9039 31.1612 64.664 31.1612C66.871 31.1612 68.7028 31.4061 70.5125 32.0518ZM67.0696 44.1646V34.3007C66.2531 34.1671 65.4365 34.1003 64.6199 34.1226C61.0667 34.1226 59.4335 36.3269 59.4335 39.845C59.4335 43.0513 60.7136 45.3001 63.7592 45.3001C64.951 45.3001 66.1206 44.8994 67.0696 44.1646ZM88.0358 37.1953V47.7494H84.615V37.7965C84.615 35.325 83.7984 34.1226 80.3776 34.1226C79.4728 34.1449 78.5679 34.2117 77.6631 34.3675V47.7494H74.2423V32.0518C76.4272 31.5175 78.8107 31.1835 80.4659 31.1835C86.182 31.1612 88.0358 33.3878 88.0358 37.1953ZM97.5257 45.1666C98.4306 45.1666 99.3355 45.0107 100.196 44.699C100.108 45.6341 99.9755 46.7029 99.7989 47.6158C98.872 47.9721 97.9009 48.1279 96.9078 48.1057C93.5753 48.1057 91.4566 46.5693 91.4566 42.7396V26.2627C92.5601 25.9287 93.7298 25.7506 94.8774 25.7506V31.6956H100.284C100.24 32.6753 100.13 33.6773 99.9755 34.657H94.8774V42.361C94.8774 44.3872 95.8705 45.1666 97.5257 45.1666ZM115.888 32.0296V47.7271H112.754L112.555 45.8345C111.672 47.215 110.348 48.0834 108.163 48.0834C104.058 48.0834 101.322 45.0775 101.322 39.8004C101.322 34.2785 104.257 31.1389 110.017 31.1389C112.246 31.1612 114.078 31.4061 115.888 32.0296ZM112.467 44.1646V34.3007C111.65 34.1671 110.834 34.1003 110.017 34.1226C106.464 34.1226 104.809 36.3269 104.809 39.845C104.809 43.0513 106.089 45.3001 109.134 45.3001C110.348 45.3001 111.518 44.8994 112.467 44.1646ZM133.411 37.1953V47.7494H129.99V37.7965C129.99 35.325 129.174 34.1226 125.753 34.1226C124.848 34.1449 123.943 34.2117 123.06 34.3675V47.7494H119.617V32.0518C121.802 31.5175 124.186 31.1835 125.841 31.1835C131.579 31.1612 133.411 33.3878 133.411 37.1953ZM150.78 25.7506V47.7271H147.646L147.469 45.7232C146.587 47.1928 145.262 48.1057 143.011 48.1057C138.906 48.1057 136.17 45.0998 136.17 39.8227C136.17 34.3007 139.105 31.1612 144.843 31.1612C145.704 31.1612 146.564 31.2503 147.403 31.4061V26.2404C148.462 25.8619 149.676 25.7506 150.78 25.7506ZM147.403 44.0978V34.4343C146.498 34.2339 145.593 34.1226 144.667 34.1226C141.268 34.1226 139.657 36.2601 139.657 39.845C139.657 43.0513 140.937 45.3001 143.982 45.3001C145.218 45.3001 146.432 44.8771 147.403 44.0978ZM168.016 41.0251H157.092C157.533 43.8306 159.144 45.1666 162.19 45.1666C164.088 45.1666 165.942 44.7658 167.663 43.9642C167.531 44.8771 167.354 46.0795 167.133 47.1037C165.566 47.8162 163.933 48.1057 162.102 48.1057C156.363 48.1057 153.605 44.8994 153.605 39.5332C153.605 34.8574 155.745 31.1389 161.197 31.1389C166.074 31.1389 168.193 34.3675 168.193 38.3309C168.193 39.2438 168.127 40.1344 168.016 41.0251ZM157.025 38.1305H164.75C164.75 35.5476 163.382 34.0558 161.02 34.0558C158.57 34.0558 157.29 35.4586 157.025 38.1305ZM180 31.2948C180 32.2968 179.912 33.2765 179.691 34.2562C178.83 34.1671 177.97 34.1226 177.109 34.1226C176.27 34.1226 175.432 34.1894 174.593 34.3007V47.7494H171.172V32.0518C172.629 31.562 175.101 31.1835 177.021 31.1835C177.992 31.1612 179.007 31.2057 180 31.2948Z" fill="#BBBABA"/>
</g>
<defs>
<clipPath id="clip0_1619_8251">
<rect width="180" height="31.8182" fill="white" transform="translate(0 17)"/>
</clipPath>
</defs>
</svg>
