<svg width="121" height="66" viewBox="0 0 121 66" fill="none" xmlns="http://www.w3.org/2000/svg">
<g clip-path="url(#clip0_956_25064)">
<path fill-rule="evenodd" clip-rule="evenodd" d="M24.7608 24.0077C37.0493 13.9064 55.7116 7.44574 51.9169 24.453C59.1253 7.76499 40.8999 3.50268 17.9053 22.5459L24.758 24.0077H24.7608Z" fill="#BBBABA"/>
<path fill-rule="evenodd" clip-rule="evenodd" d="M10.8082 34.4732C6.89314 15.0436 36.2616 31.978 42.207 44.1349H49.9671C28.5576 16.6847 3.89664 17.648 10.8082 34.4732Z" fill="#BBBABA"/>
<path fill-rule="evenodd" clip-rule="evenodd" d="M5.85974 39.9845C1.94468 20.5549 31.3132 37.4893 37.2586 49.6461H45.0187C23.6091 22.1988 -1.05462 23.1593 5.85974 39.9845Z" fill="#BBBABA"/>
<path fill-rule="evenodd" clip-rule="evenodd" d="M1.47518 45.6357C-2.43987 26.2061 26.9286 43.1405 32.874 55.2973H40.6341C19.2245 27.85 -5.43637 28.8133 1.47518 45.6357Z" fill="#BBBABA"/>
<path fill-rule="evenodd" clip-rule="evenodd" d="M3.23056 41.9644C-1.65065 63.8529 31.5041 45.9859 38.424 32.5745H47.9736C20.5318 63.5588 -4.99441 61.0076 3.23056 41.9644Z" fill="#BBBABA"/>
<path fill-rule="evenodd" clip-rule="evenodd" d="M53.3359 37.1503H64.8038L59.9618 40.1384L56.4137 55.3366H62.6475L67.0386 37.1503H74.8771L75.9553 32.7312H54.4141L53.3359 37.1503Z" fill="#BBBABA"/>
<path fill-rule="evenodd" clip-rule="evenodd" d="M80.3722 45.5659L80.3974 45.5743H84.4441C89.6445 45.5379 88.2387 51.29 83.0018 51.0744H79.0084L80.3722 45.5631V45.5659ZM73.4158 55.3367L73.4046 55.3759H81.4028C85.0266 55.3087 88.3703 54.8354 90.9356 53.2447C93.9236 51.1248 94.7246 47.921 93.7836 45.8207C93.1591 44.4289 91.6161 43.7652 89.989 43.3423C91.7841 42.9698 93.3944 42.2081 94.5061 40.3654C95.4863 38.0606 95.4359 36.4307 93.736 34.8597C91.9857 33.269 88.8828 32.7957 85.2926 32.7285H77.2945L76.2163 37.1477H80.8371L75.2669 40.5026L71.7188 55.3339H73.413L73.4158 55.3367ZM82.4529 37.1477H85.6847C89.8714 36.9404 89.2049 41.5556 85.0574 41.5696H81.3552L82.4501 37.1477H82.4529Z" fill="#BBBABA"/>
<path fill-rule="evenodd" clip-rule="evenodd" d="M115.459 54.1185C112.474 55.6839 107.408 56.7145 102.574 55.6951C94.5898 54.2557 93.3744 46.8681 96.5949 40.5082L103.834 37.1532H98.9025C103.196 32.0676 114.678 31.4263 120.287 34.6664L118.968 39.9453L118.198 39.9537C112.712 34.8316 103.991 36.5035 101.98 43.7119C101.538 45.3026 101.345 47.1733 101.865 48.7248C102.462 50.4975 103.955 51.8417 106.441 51.7549H109.738L110.743 47.4505H105.96L107.055 43.191H112.807L118.097 43.1938L115.464 54.1213L115.459 54.1185Z" fill="#BBBABA"/>
</g>
<defs>
<clipPath id="clip0_956_25064">
<rect width="120" height="46.1181" fill="white" transform="translate(0.290039 10)"/>
</clipPath>
</defs>
</svg>
