<svg width="60" height="66" viewBox="0 0 60 66" fill="none" xmlns="http://www.w3.org/2000/svg">
<path d="M55.6095 2H4.04727C1.82127 2 0 3.85246 0 6.11658V58.6442C0 60.9083 1.82127 62.7608 4.04727 62.7608H55.6095C57.8355 62.7608 59.6567 60.9083 59.6567 58.6442V6.11658C59.6567 3.85246 57.8355 2 55.6095 2ZM58.3211 58.6442C58.3211 60.1262 57.107 61.32 55.6904 61.32H4.08774C2.63072 61.32 1.45702 60.085 1.45702 58.6442V6.11658C1.45702 4.63461 2.6712 3.4408 4.08774 3.4408H55.6499C57.107 3.4408 58.2807 4.67578 58.2807 6.11658L58.3211 58.6442Z" fill="#BBBABA"/>
<path d="M36.7086 51.8108C38.0037 51.2757 38.6513 50.37 38.6513 48.888C38.6513 48.8057 38.6513 48.7234 38.6513 48.641C38.5299 46.6651 36.9919 45.7183 35.1706 45.7183H30.2734V55.6804H32.6209V52.099H34.2802L36.1015 55.6804H38.7322L36.7086 51.8108ZM34.7659 50.4112H32.459V47.4884H34.7659C35.6563 47.4884 36.1824 47.9001 36.1824 48.9292C36.2634 49.9172 35.7372 50.4112 34.7659 50.4112Z" fill="#BBBABA"/>
<path d="M17.7676 45.7593H15.1369L13.4775 50.1229L11.6562 46.9119C11.292 46.3356 10.442 45.8004 9.71353 45.8004H8.37793L12.4252 53.0045L11.3729 55.8037H12.7895C13.4775 55.8037 14.2465 55.2686 14.4893 54.6099L17.7676 45.7593Z" fill="#BBBABA"/>
<path d="M24.8098 51.3579H21.491L22.9076 47.6118C23.0694 47.2002 23.3123 47.2002 23.4337 47.6118L24.8098 51.3579ZM25.4169 53.0869L26.4287 55.7627H28.8975L25.6192 46.9943C25.3764 46.3357 24.5669 45.8005 23.9194 45.8005H21.0458L17.3628 55.7627H18.577C19.265 55.7627 20.034 55.2275 20.2768 54.5689L20.803 53.1281H25.4169V53.0869Z" fill="#BBBABA"/>
<path d="M44.8841 47.6529C45.046 47.2412 45.2888 47.2412 45.4103 47.6529L46.8268 51.399H43.508L44.8841 47.6529ZM42.901 53.0868H47.4744L48.0005 54.5276C48.2433 55.1863 49.0123 55.7214 49.7004 55.7214H50.9145L47.1506 45.7593H44.3175C43.6295 45.7593 42.8605 46.2944 42.6176 46.9531L39.3394 55.7214H41.8082L42.901 53.0868Z" fill="#BBBABA"/>
<path d="M38.2062 27.1935C38.3276 27.2759 38.6109 27.2759 38.8942 27.2759C39.9465 27.2759 42.0106 27.2759 43.2248 27.2759C41.0393 25.2999 39.7037 20.4012 39.7037 17.4784C39.7037 14.4733 41.0393 9.6157 43.2248 7.68091C42.0511 7.68091 39.987 7.68091 38.8942 7.68091C38.6514 7.68091 38.3276 7.68091 38.2062 7.76324C38.2062 7.76324 34.3208 11.5093 34.3208 17.4784C34.3208 23.4474 38.2062 27.1935 38.2062 27.1935Z" fill="#BBBABA"/>
<path d="M28.8571 27.1935C28.9785 27.2759 29.2618 27.2759 29.5451 27.2759C30.5974 27.2759 32.6615 27.2759 33.8352 27.2759C31.6497 25.2999 30.3141 20.4012 30.3141 17.4784C30.3141 14.4733 31.7306 9.6157 33.8352 7.68091C32.6615 7.68091 30.5974 7.68091 29.5451 7.68091C29.3023 7.68091 28.9785 7.68091 28.8571 7.76324C28.8571 7.76324 24.9717 11.5917 24.9717 17.4784C25.0526 23.3651 28.8571 27.1935 28.8571 27.1935Z" fill="#BBBABA"/>
<path d="M19.5885 27.1935C19.7099 27.2759 19.9932 27.2759 20.2361 27.2759C21.3288 27.2759 23.3929 27.2759 24.5666 27.2759C22.3811 25.2999 21.0455 20.4012 21.0455 17.4784C21.0455 14.4733 22.3811 9.6157 24.5666 7.68091C23.3929 7.68091 21.3288 7.68091 20.2361 7.68091C19.9932 7.68091 19.6694 7.68091 19.5885 7.76324C19.5885 7.76324 15.7031 11.5093 15.7031 17.4784C15.7031 23.4474 19.5885 27.1935 19.5885 27.1935Z" fill="#BBBABA"/>
<path d="M50.0242 35.0149C49.3767 33.6565 48.203 31.31 48.0411 30.5279C48.0411 30.5279 47.353 28.7577 49.2148 28.4284C49.9838 28.3049 50.5099 27.7286 50.5504 26.9876V26.082C50.5504 25.9585 50.429 25.835 50.3075 25.835H47.2721C47.1911 25.835 45.0866 26.082 45.0866 28.7166C45.0056 33.2036 45.0866 33.7388 43.9128 33.9858C43.7914 33.9858 43.751 33.8623 43.751 33.8211C43.751 33.7388 43.751 33.7388 43.751 33.6976C43.751 31.31 41.8892 29.3752 39.5013 29.3752C38.3276 29.3752 37.1944 29.9104 36.5063 30.6925C36.5063 30.7749 36.3849 30.816 36.3445 30.816C36.2635 30.816 36.1826 30.7337 36.1826 30.6925C35.4136 29.9104 34.3613 29.3752 33.1876 29.3752C32.0139 29.3752 30.8806 29.9104 30.1926 30.6925C30.1926 30.7749 30.0712 30.816 30.0307 30.816C29.9498 30.816 29.8688 30.7337 29.8688 30.6925C29.0998 29.9104 28.0476 29.3752 26.8738 29.3752C25.7001 29.3752 24.5669 29.9104 23.8789 30.6925C23.8789 30.7749 23.7575 30.816 23.717 30.816C23.636 30.816 23.5551 30.7337 23.5551 30.6925C22.7861 29.9104 21.7338 29.3752 20.5601 29.3752C18.2127 29.3752 16.3105 31.2689 16.3105 33.6976C16.3105 33.78 16.3105 33.78 16.3105 33.8211C16.3105 33.9446 16.1891 33.9858 16.0676 33.9858C14.8939 33.8211 14.9749 33.2036 14.8939 28.7166C14.8939 26.082 12.7894 25.835 12.7084 25.835H9.55154C9.43012 25.835 9.3087 25.9585 9.3087 26.082V26.9876C9.38965 27.7698 9.83485 28.3461 10.6443 28.4284C12.506 28.7166 11.818 30.5279 11.818 30.5279C11.6561 31.31 10.4824 33.6153 9.83485 35.0149C9.43012 35.9206 8.53972 38.0612 9.91579 40.2018C10.6848 41.4368 11.6156 42.5483 14.8939 42.5483H45.2484C48.5267 42.6306 49.4981 41.478 50.2266 40.2018C51.2789 38.1024 50.4694 35.8794 50.0242 35.0149ZM20.2363 36.2088C18.8198 36.2088 17.727 35.0973 17.727 33.6565C17.727 32.2157 18.8198 31.1042 20.2363 31.1042C21.6529 31.1042 22.7456 32.2157 22.7456 33.6565C22.7861 35.0561 21.5719 36.2088 20.2363 36.2088ZM26.631 36.2088C25.2145 36.2088 24.1217 35.0973 24.1217 33.6565C24.1217 32.2157 25.2145 31.1042 26.631 31.1042C28.0476 31.1042 29.1403 32.2157 29.1403 33.6565C29.1403 35.0561 28.0476 36.2088 26.631 36.2088ZM33.0257 36.2088C31.6092 36.2088 30.5164 35.0973 30.5164 33.6565C30.5164 32.2157 31.6092 31.1042 33.0257 31.1042C34.4422 31.1042 35.535 32.2157 35.535 33.6565C35.535 35.0561 34.4422 36.2088 33.0257 36.2088ZM39.4609 36.2088C38.0443 36.2088 36.9515 35.0973 36.9515 33.6565C36.9515 32.2157 38.0443 31.1042 39.4609 31.1042C40.8774 31.1042 41.9702 32.2157 41.9702 33.6565C42.0106 35.0561 40.8774 36.2088 39.4609 36.2088Z" fill="#BBBABA"/>
</svg>
