<svg width="132" height="66" viewBox="0 0 132 66" fill="none" xmlns="http://www.w3.org/2000/svg">
<path d="M103.797 35.6406C103.024 34.3024 101.311 33.8414 99.9704 34.6171L97.0708 36.2924L98.6743 39.0706C98.3595 39.1078 98.0373 39.1252 97.7077 39.1252C96.3199 39.1252 95.0584 38.7931 93.9258 38.1289C92.7932 37.4647 91.8986 36.5527 91.2468 35.3953C90.595 34.2379 90.2678 32.9467 90.2678 31.5217C90.2678 30.0967 90.595 28.803 91.2468 27.6382C91.8986 26.4758 92.7932 25.5613 93.9258 24.8996C95.0584 24.2354 96.3199 23.9033 97.7077 23.9033C99.0956 23.9033 100.377 24.2354 101.509 24.8996C102.64 25.5613 103.529 26.4783 104.176 27.6382C104.82 28.803 105.143 30.0967 105.143 31.5217C105.143 32.9467 104.82 34.2379 104.176 35.3953C104.092 35.5465 103.99 35.6803 103.901 35.8216L103.794 35.6406H103.797ZM109.576 38.4312C110.763 36.3717 111.358 34.0694 111.358 31.5242C111.358 28.9789 110.763 26.6741 109.576 24.6171C108.387 22.5576 106.756 20.9418 104.679 19.7646C102.602 18.5898 100.273 18 97.6904 18C95.108 18 92.7957 18.5874 90.7189 19.7646C88.6396 20.9418 87.0113 22.5576 85.8292 24.6171C84.6445 26.6741 84.0547 28.9765 84.0547 31.5242C84.0547 34.0719 84.6445 36.3717 85.8292 38.4312C87.0088 40.4907 88.6396 42.1041 90.7189 43.2739C92.7957 44.4411 95.1179 45.0285 97.6904 45.0285C99.1377 45.0285 100.506 44.8377 101.794 44.4709L102.518 45.7224C103.291 47.0632 105.001 47.5217 106.342 46.746L109.244 45.0706L107.16 41.4647C108.102 40.5898 108.912 39.5812 109.576 38.4312Z" fill="#BBBABA"/>
<path d="M73.8785 18.3718V34.2182C73.8785 35.1203 73.6728 35.9208 73.2663 36.6197C72.8599 37.321 72.2874 37.8613 71.5587 38.243C70.8276 38.6271 69.9825 38.8179 69.021 38.8179C68.0594 38.8179 67.2316 38.6296 66.5079 38.243C65.7843 37.8588 65.2217 37.3185 64.8202 36.6197C64.4162 35.9208 64.2155 35.1203 64.2155 34.2182V18.3718H60.8053C59.2589 18.3718 58.0073 19.6259 58.0073 21.1674V34.2182C58.0073 36.3347 58.4658 38.2132 59.3853 39.8514C60.3047 41.4895 61.5959 42.7609 63.2638 43.6655C64.9317 44.5726 66.85 45.0286 69.016 45.0286C71.182 45.0286 73.1201 44.575 74.793 43.6655C76.4683 42.7609 77.7669 41.4871 78.6913 39.8514C79.6157 38.2132 80.0792 36.3347 80.0792 34.2182V18.3718H73.871H73.8785Z" fill="#BBBABA"/>
<path d="M46.8924 35.3062C46.2654 36.4437 45.4104 37.3433 44.3249 38.0001C43.2418 38.6544 42.0547 38.9864 40.7635 38.9864H35.9605V24.067H40.7635C42.0547 24.067 43.2418 24.3991 44.3249 25.0658C45.4079 25.7299 46.2654 26.6271 46.8924 27.7671C47.5194 28.9047 47.8317 30.1612 47.8317 31.5366C47.8317 32.9121 47.5194 34.1686 46.8924 35.3062ZM52.2778 24.8923C51.1031 22.8824 49.4996 21.2938 47.4649 20.124C45.4351 18.9567 43.1997 18.3718 40.766 18.3718H29.7573V41.8836C29.7573 43.4251 31.0089 44.6791 32.5553 44.6791H40.766C43.1997 44.6791 45.4351 44.0967 47.4649 42.9294C49.4996 41.7597 51.1006 40.1711 52.2778 38.1612C53.45 36.1513 54.0374 33.9456 54.0374 31.5342C54.0374 29.1228 53.45 26.8948 52.2778 24.8898" fill="#BBBABA"/>
<path d="M117.229 43.8488C115.636 43.0631 114.176 42.0198 112.848 40.7187L114.161 38.3444C114.416 37.8934 114.751 37.5539 115.165 37.3234C115.579 37.0904 116.035 36.9739 116.535 36.9739C117.217 36.9739 117.874 37.1722 118.508 37.5613C120.139 38.6319 121.462 39.1672 122.468 39.1672C123.475 39.1672 124.315 38.9591 124.907 38.5353C125.497 38.1164 125.792 37.4622 125.792 36.5749C125.792 36.0148 125.519 35.5043 124.972 35.0483C124.424 34.5947 123.576 34.1561 122.434 33.7422C119.695 32.8178 117.67 31.6951 116.362 30.3742C115.053 29.0532 114.399 27.4795 114.399 25.653C114.399 24.1561 114.753 22.8277 115.467 21.6728C116.181 20.5179 117.18 19.6183 118.473 18.9789C119.762 18.3395 121.242 18.0198 122.91 18.0198C124.297 18.0198 125.705 18.275 127.135 18.7881C128.565 19.2986 129.732 20.0346 130.632 20.9987L129.425 23.0978C129.086 23.6827 128.677 24.1115 128.203 24.3841C127.727 24.6592 127.224 24.7955 126.687 24.7955C126.26 24.7955 125.822 24.7038 125.371 24.5204C124.969 24.2998 124.543 24.1363 124.092 24.0297C123.641 23.9182 123.247 23.8636 122.905 23.8636C122.211 23.8636 121.653 24.0272 121.234 24.3494C120.815 24.6691 120.605 25.1003 120.605 25.6381C120.605 26.1239 120.89 26.56 121.462 26.9417C122.035 27.3258 122.922 27.6877 124.129 28.0272C126.746 28.7236 128.714 29.7794 130.027 31.2044C131.343 32.6294 132 34.4113 132 36.5576C132 38.2255 131.599 39.7001 130.796 40.9838C129.993 42.2676 128.863 43.2639 127.41 43.9677C125.955 44.674 124.283 45.0284 122.397 45.0284C120.511 45.0284 118.825 44.6344 117.227 43.8488" fill="#BBBABA"/>
<path d="M10.1165 44.6866V35.9753C10.1165 35.5515 10.057 35.1252 9.943 34.7064C9.82652 34.2851 9.61586 33.8266 9.31351 33.326L0 18.3718H5.60595C6.20322 18.3718 6.71623 18.5057 7.14994 18.7733C7.58116 19.041 7.96283 19.4598 8.28996 20.0323L12.1636 26.3693C12.7212 27.3681 13.0632 28.6122 13.1846 30.0943H13.2416C13.4944 28.3768 13.8439 27.1351 14.2825 26.3693L18.1537 20.0149C18.4734 19.4425 18.8525 19.0261 19.2962 18.7634C19.7398 18.5007 20.2726 18.3718 20.8947 18.3718H26.4263L17.1301 33.326C16.8129 33.839 16.5998 34.3024 16.4907 34.7138C16.3817 35.1277 16.3247 35.549 16.3247 35.9728V42.0521C16.3247 43.5069 15.1475 44.6841 13.6927 44.6841H10.1165V44.6866Z" fill="#BBBABA"/>
</svg>
