<svg width="130" height="96" viewBox="0 0 130 96" fill="none" xmlns="http://www.w3.org/2000/svg">
<g clip-path="url(#clip0_1619_13851)">
<path d="M18.3993 49.7592H31.0526C31.2905 48.0271 31.7448 46.3315 32.4046 44.7124H13V73.8756H18.3993V61.9417H30.1195V56.8948H18.3993V49.7592Z" fill="#0336FF"/>
<path d="M38.8209 49.7592C39.2307 47.8701 40.045 46.0924 41.2077 44.5482C42.3705 43.0039 43.854 41.73 45.5562 40.8141C47.2585 39.8982 49.1389 39.3621 51.0682 39.2425C52.9975 39.123 54.9298 39.423 56.732 40.1219C57.2395 36.0065 59.235 32.2191 62.3425 29.4737C65.4501 26.7284 69.4548 25.215 73.6013 25.2189C77.7477 25.2228 81.7496 26.7438 84.8519 29.495C87.9542 32.2461 89.9428 36.0373 90.4424 40.1536C92.7748 39.1623 95.3165 38.7644 97.8403 38.9953C100.364 39.2263 102.791 40.0789 104.905 41.477C107.019 42.8751 108.753 44.7752 109.954 47.0074C111.154 49.2396 111.782 51.7344 111.782 54.2687C111.782 58.7869 110.191 62.1467 107.738 65.2927H113.675C115.864 62.0347 117.022 58.1937 117 54.2687C117.007 51.3729 116.402 48.5085 115.223 45.8637C114.043 43.2188 112.318 40.8536 110.159 38.9236C108 36.9937 105.457 35.5428 102.697 34.6664C99.937 33.7899 97.0227 33.5078 94.1459 33.8386C92.4759 29.7324 89.615 26.2202 85.9317 23.7539C82.2483 21.2877 77.9112 19.9803 73.4784 20.0002C69.0457 20.0201 64.7205 21.3663 61.0594 23.8655C57.3984 26.3647 54.5691 29.9025 52.936 34.0235C52.598 34.0061 52.2629 33.9946 51.922 33.9946C47.4794 34.0017 43.1848 35.593 39.8102 38.4826C36.4356 41.3722 34.2021 45.3705 33.5112 49.7592H38.8209Z" fill="#0336FF"/>
<path d="M38.711 52.0039H33.4678V73.8844H38.711V52.0039Z" fill="#0336FF"/>
<path d="M40.9585 52.0039H46.6351L51.919 66.5148H52.0345L57.0033 52.0039H62.7579L53.8891 73.8756H49.787L40.9585 52.0039Z" fill="#0336FF"/>
<path d="M89.9225 73.8756L96.3877 64.0186C95.9221 64.12 95.4453 64.1599 94.9693 64.1371C90.8296 64.0966 86.3345 60.4711 86.3345 54.6356C86.3345 48.4448 91.104 44.1489 96.4282 44.1489C101.671 44.1489 106.559 48.2078 106.559 54.5951C106.547 55.8342 106.32 57.0617 105.889 58.2236C105.444 59.3727 104.875 60.4701 104.193 61.4966L96.0728 73.8756H89.9225ZM96.4686 49.1149C93.2736 49.1149 91.5777 51.8738 91.5777 54.1618C91.5777 57.12 93.6 59.2866 96.4686 59.2866C99.6204 59.2866 101.316 56.5278 101.316 54.3611C101.316 51.4925 99.2276 49.1265 96.4686 49.1265V49.1149Z" fill="#0336FF"/>
<path d="M78.4129 67.5403C77.3903 68.9848 75.7898 69.7878 73.7156 69.7878C69.9601 69.7878 67.9205 66.7112 67.6836 65.2928H84.676C84.8781 64.4259 84.9837 63.5394 84.9909 62.6494C84.9909 57.1317 80.6143 51.1372 73.6752 51.1372C66.9354 51.1372 62.1659 56.8138 62.1659 63.0048C62.1536 64.5274 62.4439 66.0374 63.0197 67.447C63.5957 68.8566 64.4458 70.1378 65.5207 71.2163C66.5958 72.2948 67.8743 73.149 69.2819 73.7294C70.6896 74.31 72.1987 74.6051 73.7213 74.5978C78.6007 74.5978 82.6221 71.2756 84.0664 67.5403H78.4129ZM73.7156 55.9472C76.3156 55.9472 79.0369 57.5649 79.6292 61.0749H67.5247C68.5127 57.0103 71.783 55.9472 73.7156 55.9472Z" fill="#0336FF"/>
<path d="M103.664 72.0818C103.652 71.7461 103.708 71.4113 103.83 71.0982C103.952 70.7852 104.137 70.5006 104.373 70.2619C104.61 70.0233 104.893 69.8358 105.204 69.711C105.516 69.5863 105.851 69.5269 106.186 69.5367C107.775 69.5367 108.786 70.643 108.786 72.047C108.769 72.7111 108.494 73.3424 108.02 73.8075C107.546 74.2726 106.909 74.5352 106.245 74.5397C105.581 74.5442 104.941 74.2903 104.46 73.8316C103.98 73.3729 103.697 72.7455 103.67 72.0818H103.664ZM108.336 72.047C108.336 70.8569 107.53 69.9527 106.189 69.9584C105.629 69.9641 105.094 70.1922 104.702 70.5923C104.31 70.9924 104.093 71.5318 104.099 72.0919C104.105 72.6519 104.333 73.1868 104.733 73.5787C105.133 73.9707 105.673 74.1877 106.233 74.1819C107.561 74.1646 108.333 73.2547 108.333 72.047H108.336ZM105.346 70.7327H106.354C106.471 70.7232 106.589 70.7377 106.7 70.7751C106.812 70.8127 106.914 70.8724 107.002 70.9508C107.089 71.0291 107.16 71.1245 107.209 71.2309C107.259 71.3374 107.286 71.453 107.29 71.5704C107.299 71.7316 107.259 71.8919 107.176 72.03C107.092 72.1682 106.969 72.2779 106.822 72.3447L107.4 73.4107H106.888L106.412 72.4313H105.814V73.399H105.354L105.346 70.7327ZM106.322 72.0442C106.444 72.0442 106.561 71.9958 106.647 71.9097C106.733 71.8235 106.781 71.7066 106.781 71.5849C106.781 71.4631 106.733 71.3462 106.647 71.2601C106.561 71.174 106.444 71.1255 106.322 71.1255H105.814V72.0442H106.322Z" fill="#0336FF"/>
</g>
<defs>
<clipPath id="clip0_1619_13851">
<rect width="104" height="55.12" fill="white" transform="translate(13 20)"/>
</clipPath>
</defs>
</svg>
