<svg width="200" height="66" viewBox="0 0 200 66" fill="none" xmlns="http://www.w3.org/2000/svg">
<mask id="mask0_896_2712" style="mask-type:luminance" maskUnits="userSpaceOnUse" x="0" y="15" width="200" height="35">
<path d="M199.466 15.625H0V49.496H199.466V15.625Z" fill="white"/>
</mask>
<g mask="url(#mask0_896_2712)">
<path d="M192.255 19.4263H196V24.6376H199.466V28.0657H196V37.3765H199.279V40.743C198.644 40.879 197.994 40.9424 197.344 40.9319C193.941 40.9319 192.253 39.1388 192.253 35.5527L192.255 19.4263Z" fill="#F5455C"/>
<path d="M185.18 26.9344V24.635H188.926V40.4872H185.18V38.1906C184.65 39.7291 182.747 40.8327 180.155 40.8327C179.105 40.8524 178.063 40.6527 177.095 40.2467C176.129 39.8406 175.256 39.237 174.535 38.4746C173.035 36.8775 172.226 34.7519 172.287 32.5611C172.255 31.4806 172.435 30.4043 172.822 29.3945C173.208 28.3848 173.79 27.4616 174.535 26.6784C175.25 25.9056 176.121 25.293 177.088 24.881C178.056 24.4689 179.101 24.2669 180.155 24.2881C182.745 24.2895 184.65 25.3959 185.18 26.9344ZM184.061 36.0256C184.521 35.5774 184.884 35.0383 185.124 34.443C185.364 33.8475 185.479 33.2087 185.461 32.5667C185.472 31.9311 185.356 31.2995 185.119 30.7093C184.882 30.1192 184.53 29.5823 184.084 29.1304C183.637 28.6785 183.103 28.3207 182.516 28.078C181.927 27.8354 181.297 27.7128 180.661 27.7176C180.038 27.705 179.421 27.8216 178.847 28.0599C178.271 28.2982 177.751 28.6531 177.321 29.1023C176.884 29.5642 176.545 30.1077 176.319 30.7015C176.095 31.2954 175.988 31.9278 176.009 32.5625C175.988 33.197 176.095 33.8293 176.319 34.4228C176.545 35.0166 176.884 35.5598 177.321 36.0214C177.751 36.4704 178.271 36.8254 178.847 37.0638C179.421 37.302 180.038 37.4187 180.661 37.4061C181.292 37.4185 181.918 37.3024 182.501 37.0651C183.085 36.8277 183.614 36.4741 184.058 36.0256H184.061Z" fill="#F5455C"/>
<path d="M46.5474 40.4859V24.6364H50.2622V26.9959C50.6906 26.1371 51.3643 25.4248 52.1978 24.949C53.0314 24.4732 53.9874 24.2554 54.9448 24.3231C55.3199 24.318 55.6948 24.3499 56.0637 24.4183V28.0659C55.5498 27.9623 55.027 27.9098 54.5029 27.9093C53.9341 27.8659 53.3627 27.946 52.8278 28.144C52.293 28.3421 51.8072 28.6534 51.404 29.0567C51.0008 29.46 50.6893 29.9457 50.4912 30.4806C50.2932 31.0155 50.2132 31.5868 50.2566 32.1556V40.4859H46.5474Z" fill="#F5455C"/>
<path d="M57.0059 32.5613C56.9846 31.4461 57.1957 30.3387 57.6259 29.3095C58.0559 28.2804 58.6954 27.352 59.5038 26.5835C61.1491 25.0282 63.3274 24.1616 65.5915 24.1616C67.8556 24.1616 70.0338 25.0282 71.6791 26.5835C72.4875 27.352 73.127 28.2804 73.5572 29.3095C73.9872 30.3387 74.1983 31.4461 74.177 32.5613C74.1982 33.6761 73.9869 34.7829 73.5569 35.8116C73.1267 36.8403 72.4874 37.7682 71.6791 38.5363C70.0338 40.0916 67.8556 40.9582 65.5915 40.9582C63.3274 40.9582 61.1491 40.0916 59.5038 38.5363C58.6953 37.7686 58.0556 36.8407 57.6254 35.8119C57.1954 34.7832 56.9843 33.6761 57.0059 32.5613ZM69.0511 36.1166C69.5099 35.6479 69.8703 35.0918 70.1104 34.4815C70.3507 33.871 70.4661 33.2186 70.4496 32.5627C70.4691 31.9111 70.3549 31.2624 70.1144 30.6566C69.874 30.0507 69.512 29.5004 69.0511 29.0395C68.5948 28.5811 68.0524 28.2173 67.4551 27.969C66.8578 27.7208 66.2174 27.593 65.5706 27.593C64.9236 27.593 64.2832 27.7208 63.6859 27.969C63.0886 28.2173 62.5462 28.5811 62.0899 29.0395C61.6385 29.5061 61.2844 30.058 61.0486 30.6629C60.8128 31.2678 60.6999 31.9137 60.7165 32.5627C60.6882 33.8821 61.1817 35.1594 62.0899 36.1166C63.0214 37.024 64.2703 37.5319 65.5706 37.5319C66.8707 37.5319 68.1196 37.024 69.0511 36.1166Z" fill="#F5455C"/>
<path d="M89.7551 25.7371V29.5134C89.118 28.8841 88.3623 28.3876 87.5318 28.0527C86.7013 27.7178 85.8125 27.5511 84.9172 27.5623C84.2451 27.5403 83.5755 27.6536 82.9481 27.8956C82.3209 28.1375 81.7484 28.5032 81.2652 28.9707C80.7923 29.431 80.4204 29.9847 80.1731 30.5966C79.9259 31.2084 79.8086 31.865 79.8289 32.5247C79.8086 33.1844 79.9259 33.841 80.1731 34.4528C80.4204 35.0647 80.7923 35.6184 81.2652 36.0786C81.7472 36.5487 82.3186 36.917 82.9457 37.1616C83.573 37.4063 84.2428 37.5221 84.9157 37.5025C85.8126 37.5187 86.7036 37.3536 87.5352 37.0171C88.3668 36.6807 89.1218 36.1797 89.7551 35.5444V39.3207C88.3113 40.4344 86.5207 41.0026 84.6989 40.9249C83.5709 40.957 82.4478 40.762 81.3967 40.3513C80.3454 39.9407 79.3875 39.3229 78.5799 38.5347C77.7697 37.7613 77.1313 36.8263 76.7063 35.79C76.2812 34.7539 76.0789 33.6399 76.1126 32.5205C76.0783 31.401 76.2804 30.2868 76.7054 29.2505C77.1305 28.2143 77.7693 27.2792 78.5799 26.5063C79.3875 25.7181 80.3454 25.1003 81.3967 24.6897C82.4478 24.279 83.5709 24.084 84.6989 24.116C86.5209 24.0565 88.3073 24.6292 89.7551 25.7371Z" fill="#F5455C"/>
<path d="M92.5322 40.4899V19.4263H96.2443V31.3987L101.559 24.6362H105.805L99.8416 32.2169L106.303 40.4885H101.933L96.2443 33.1596V40.4899H92.5322Z" fill="#F5455C"/>
<path d="M106.393 32.5611C106.34 31.4561 106.515 30.352 106.907 29.3174C107.299 28.2828 107.9 27.3398 108.671 26.547C109.441 25.7823 110.36 25.1838 111.37 24.7888C112.381 24.3937 113.461 24.2105 114.546 24.2504C115.578 24.2087 116.608 24.3926 117.562 24.7892C118.516 25.1858 119.373 25.7857 120.072 26.547C120.783 27.2978 121.339 28.1815 121.709 29.1474C122.078 30.1134 122.254 31.1427 122.226 32.1766C122.226 32.6479 122.195 33.1206 122.163 33.529H110.112C110.133 34.1182 110.274 34.6969 110.528 35.229C110.782 35.7611 111.143 36.2353 111.588 36.6219C112.034 37.0085 112.553 37.2993 113.116 37.4764C113.678 37.6534 114.271 37.7127 114.857 37.6508C116.905 37.7979 118.93 37.1463 120.508 35.8326V39.3558C118.787 40.4808 116.757 41.0414 114.702 40.96C113.6 41.0034 112.5 40.828 111.466 40.4439C110.432 40.0598 109.485 39.4747 108.678 38.7222C107.907 37.9295 107.306 36.9866 106.914 35.9519C106.522 34.9172 106.347 33.813 106.4 32.708V32.5514L106.393 32.5611ZM118.412 30.8632C118.412 30.4071 118.312 29.9565 118.118 29.5435C117.925 29.1304 117.643 28.7649 117.293 28.4729C116.537 27.8027 115.556 27.4429 114.546 27.4659C113.461 27.4473 112.403 27.803 111.55 28.4729C111.161 28.7466 110.838 29.1033 110.604 29.5172C110.371 29.9311 110.232 30.3919 110.199 30.866L118.412 30.8632Z" fill="#F5455C"/>
<path d="M125.041 19.4263H128.787V24.6376H132.252V28.0657H128.789V37.3765H132.068V40.743C131.432 40.879 130.782 40.9424 130.132 40.9319C126.729 40.9319 125.044 39.1388 125.044 35.5527V19.4263H125.041Z" fill="#F5455C"/>
<path d="M135.959 36.3306C135.512 36.329 135.075 36.4599 134.702 36.707C134.33 36.954 134.039 37.3059 133.867 37.7183C133.695 38.1306 133.649 38.5848 133.735 39.0233C133.821 39.4617 134.036 39.8648 134.351 40.1812C134.666 40.4978 135.069 40.7136 135.507 40.8014C135.945 40.8891 136.399 40.8449 136.812 40.6745C137.225 40.5038 137.578 40.2145 137.827 39.843C138.075 39.4715 138.208 39.0348 138.208 38.588C138.208 38.2922 138.151 37.999 138.038 37.7254C137.925 37.4519 137.76 37.2032 137.551 36.9935C137.342 36.784 137.094 36.6175 136.821 36.5036C136.547 36.3899 136.255 36.3312 135.959 36.3306Z" fill="#F5455C"/>
<path d="M152.902 25.7374V29.5138C152.265 28.8845 151.509 28.388 150.678 28.0531C149.848 27.7181 148.959 27.5514 148.064 27.5626C147.391 27.5415 146.721 27.6559 146.094 27.8991C145.466 28.1422 144.895 28.5092 144.412 28.9781C143.939 29.4384 143.567 29.9921 143.32 30.6039C143.072 31.2158 142.955 31.8725 142.976 32.532C142.955 33.1917 143.072 33.8483 143.32 34.4602C143.567 35.072 143.939 35.6257 144.412 36.086C144.894 36.5542 145.464 36.9209 146.09 37.1642C146.717 37.4076 147.385 37.5228 148.057 37.5028C148.953 37.5199 149.843 37.356 150.675 37.0207C151.506 36.6855 152.261 36.1859 152.895 35.5517V39.3281C151.451 40.4418 149.66 41.0101 147.839 40.9323C146.711 40.9644 145.587 40.7694 144.536 40.3588C143.485 39.9481 142.527 39.3304 141.72 38.542C140.909 37.7688 140.271 36.8338 139.846 35.7975C139.421 34.7613 139.219 33.6473 139.252 32.5278C139.218 31.4083 139.42 30.2941 139.845 29.2579C140.27 28.2216 140.909 27.2866 141.72 26.5137C142.527 25.7254 143.485 25.1075 144.536 24.6969C145.587 24.2863 146.711 24.0912 147.839 24.1234C149.662 24.0602 151.451 24.6305 152.902 25.7374Z" fill="#F5455C"/>
<path d="M155.678 40.4899V19.4263H159.393V26.8391C159.841 26.0282 160.51 25.3611 161.323 24.9155C162.135 24.4698 163.056 24.2639 163.982 24.3215C167.603 24.3215 169.726 26.744 169.726 30.6756V40.4899H166.011V31.2099C166.011 29.0392 164.856 27.6867 162.86 27.6867C162.384 27.6799 161.911 27.7722 161.474 27.9576C161.036 28.143 160.642 28.4175 160.316 28.7636C159.99 29.1097 159.74 29.5199 159.581 29.968C159.422 30.4161 159.358 30.8924 159.393 31.3665V40.4899H155.678Z" fill="#F5455C"/>
<path d="M35.8403 26.8379C34.7363 25.1542 33.2918 23.7205 31.5995 22.6294C27.7606 20.2204 23.3042 18.9793 18.7726 19.0573C17.1892 19.0551 15.6089 19.1956 14.0508 19.4769C13.0789 18.5333 11.9886 17.72 10.8073 17.0572C9.24905 16.2476 7.53998 15.7695 5.78782 15.653C4.03566 15.5365 2.27834 15.7841 0.626592 16.3803C0.479942 16.4347 0.349005 16.5245 0.245419 16.6417C0.141834 16.7589 0.0688052 16.8999 0.0328232 17.0522C-0.00315881 17.2044 -0.000980046 17.3631 0.0391658 17.5143C0.0793118 17.6655 0.156182 17.8045 0.262945 17.9188C1.63642 19.3594 3.91621 22.1986 3.35674 24.7707C1.26023 26.8159 0.0541761 29.6049 0 32.5332C0.0431116 35.4794 1.2498 38.289 3.35674 40.3489C3.91621 42.9266 1.64202 45.7616 0.26854 47.2023C0.161437 47.3165 0.0842689 47.4553 0.0439229 47.6066C0.00357698 47.7577 0.0013082 47.9168 0.037319 48.069C0.07333 48.2215 0.1465 48.3624 0.2503 48.4797C0.354098 48.5969 0.485298 48.6866 0.632187 48.7406C2.28397 49.3374 4.04142 49.5855 5.79382 49.4695C7.54623 49.3535 9.25563 48.8758 10.8143 48.0666C11.9967 47.4035 13.0879 46.5897 14.0606 45.6455C15.6187 45.9268 17.199 46.0673 18.7824 46.0652C23.3139 46.1439 27.7703 44.9032 31.6094 42.4944C33.299 41.4019 34.741 39.9673 35.8416 38.2831C36.9573 36.5823 37.5515 34.5924 37.5515 32.5584C37.5515 30.5243 36.9573 28.5346 35.8416 26.8337L35.8403 26.8379ZM18.5782 42.7419C16.5989 42.7477 14.6274 42.4919 12.7151 41.9811L11.3962 43.2635C10.6642 43.9697 9.84603 44.5806 8.96111 45.0818C7.88584 45.6239 6.71721 45.9561 5.51764 46.061C5.58198 45.9434 5.64073 45.8245 5.70368 45.7071C6.32248 44.734 6.7365 43.645 6.92047 42.5066C7.10444 41.3682 7.05447 40.2044 6.77363 39.0858C5.75516 38.3689 4.91406 37.4285 4.3146 36.3368C3.71513 35.245 3.37315 34.0305 3.31479 32.7863C3.31479 27.2897 10.1486 22.8322 18.5782 22.8322C27.0079 22.8322 33.8473 27.2883 33.8473 32.7863C33.8473 38.2845 27.0092 42.7419 18.5782 42.7419Z" fill="#F5455C"/>
<path d="M11.2721 30.4966C10.8253 30.4949 10.3881 30.6259 10.0157 30.873C9.64339 31.12 9.35274 31.472 9.1806 31.8843C9.00845 32.2967 8.96255 32.7507 9.04871 33.1893C9.13486 33.6277 9.3492 34.0307 9.66457 34.3472C9.97992 34.6638 10.3821 34.8796 10.8203 34.9674C11.2584 35.0553 11.7127 35.0111 12.1257 34.8404C12.5387 34.6698 12.8917 34.3804 13.1401 34.009C13.3886 33.6377 13.5212 33.2009 13.5212 32.754C13.5217 32.4582 13.464 32.1649 13.3513 31.8914C13.2385 31.6178 13.073 31.3691 12.8642 31.1595C12.6553 30.9499 12.4073 30.7835 12.1341 30.6697C11.8609 30.556 11.5681 30.4971 11.2721 30.4966Z" fill="#F5455C"/>
<path d="M18.5191 30.4966C18.0724 30.4949 17.6351 30.6259 17.2628 30.873C16.8904 31.12 16.5998 31.472 16.4277 31.8843C16.2556 32.2967 16.2096 32.7507 16.2957 33.1893C16.3819 33.6277 16.5962 34.0307 16.9116 34.3472C17.227 34.6638 17.6291 34.8796 18.0674 34.9674C18.5054 35.0553 18.9598 35.0111 19.3727 34.8404C19.7857 34.6698 20.1388 34.3804 20.3872 34.009C20.6356 33.6377 20.7682 33.2009 20.7682 32.754C20.7688 32.4582 20.7111 32.1649 20.5983 31.8914C20.4856 31.6178 20.3201 31.3691 20.1112 31.1595C19.9024 30.9499 19.6543 30.7835 19.3812 30.6697C19.108 30.556 18.8151 30.4971 18.5191 30.4966Z" fill="#F5455C"/>
<path d="M25.7579 30.4966C25.3109 30.4944 24.8734 30.6249 24.5008 30.8716C24.128 31.1183 23.8369 31.4701 23.6643 31.8823C23.4917 32.2947 23.4455 32.7489 23.5313 33.1874C23.6171 33.6262 23.8313 34.0294 24.1466 34.3463C24.4617 34.6631 24.864 34.8792 25.3022 34.9671C25.7403 35.0552 26.1948 35.0112 26.608 34.8407C27.0211 34.6702 27.3743 34.3808 27.6229 34.0094C27.8714 33.6379 28.0042 33.201 28.0042 32.7541C28.0053 32.157 27.7693 31.5838 27.3482 31.1605C26.9269 30.7372 26.355 30.4984 25.7579 30.4966Z" fill="#F5455C"/>
</g>
</svg>
