<svg width="224" height="66" viewBox="0 0 224 66" fill="none" xmlns="http://www.w3.org/2000/svg">
<path fill-rule="evenodd" clip-rule="evenodd" d="M54.3402 26.4375C52.1027 26.4323 49.9345 27.2131 48.2141 28.6436V26.6615H42.626V48.4286H48.4381V34.5134C49.0628 33.7013 49.8602 33.0382 50.7727 32.5721C51.6851 32.106 52.6898 31.8487 53.714 31.8186C54.5068 31.7779 55.2996 31.8968 56.0456 32.1682V26.5869C55.4825 26.4881 54.9119 26.4381 54.3402 26.4375Z" fill="black"/>
<path fill-rule="evenodd" clip-rule="evenodd" d="M3.6656 41.7865C5.3252 43.1897 7.43172 43.9535 9.605 43.9399C11.1696 43.9399 12.3761 43.1763 12.3761 42.1004C12.3761 38.8236 1.87021 39.9911 1.87021 32.9894C1.87021 28.8165 5.89372 26.2134 10.1854 26.2134C12.7915 26.2205 15.339 26.9872 17.5163 28.4194L14.7977 32.6296C13.5978 31.7191 12.1455 31.2022 10.6401 31.1499C9.03142 31.1499 7.68912 31.7777 7.68912 32.8994C7.68912 35.7266 18.1968 34.6049 18.1968 42.1445C18.1968 46.3191 14.124 48.8764 9.56766 48.8764C6.42809 48.8459 3.37771 47.8283 0.848633 45.9678L3.6656 41.7865Z" fill="black"/>
<path fill-rule="evenodd" clip-rule="evenodd" d="M40.1453 37.3421C40.1453 31.2839 35.9028 26.2134 29.9057 26.2134C23.4674 26.2134 19.354 31.5079 19.354 37.5678C19.2901 39.0744 19.5407 40.5778 20.0897 41.9822C20.6388 43.3867 21.4743 44.6614 22.5431 45.7252C23.6118 46.789 24.8904 47.6186 26.2974 48.1611C27.7044 48.7037 29.2089 48.9473 30.7152 48.8764C32.3909 48.8985 34.0518 48.5615 35.5864 47.8883C37.1211 47.2151 38.4938 46.2212 39.6124 44.9734L36.3033 41.6524C35.6103 42.417 34.77 43.0338 33.8328 43.4656C32.8956 43.8975 31.8808 44.1356 30.8493 44.1656C29.3999 44.2128 27.987 43.7059 26.8981 42.7482C25.8092 41.7904 25.1261 40.4538 24.9879 39.0102H40.0112C40.1037 38.4591 40.1486 37.901 40.1453 37.3421ZM25.256 34.7407C25.4646 33.6624 26.0435 32.6909 26.8926 31.9943C27.7416 31.2977 28.8075 30.9197 29.9057 30.9259C30.9639 30.9275 31.9848 31.3164 32.7757 32.0192C33.5667 32.722 34.073 33.6901 34.1991 34.7407H25.256Z" fill="black"/>
<path fill-rule="evenodd" clip-rule="evenodd" d="M69.8983 39.945L75.8445 26.6611H81.8823L71.9109 48.4282H67.8874L57.916 26.6611H63.9521L69.8983 39.945Z" fill="black"/>
<path fill-rule="evenodd" clip-rule="evenodd" d="M86.7626 16.4406C87.498 16.4539 88.213 16.6842 88.8179 17.1025C89.4229 17.5207 89.8908 18.1084 90.163 18.7916C90.4352 19.4749 90.4995 20.2233 90.3479 20.9429C90.1963 21.6626 89.8355 22.3215 89.3107 22.8368C88.786 23.3522 88.1208 23.701 87.3985 23.8397C86.6762 23.9783 85.9291 23.9005 85.2508 23.6161C84.5726 23.3316 83.9935 22.8532 83.5862 22.2408C83.1789 21.6284 82.9615 20.9094 82.9614 20.1739C82.9613 19.6779 83.0601 19.1868 83.252 18.7294C83.4438 18.2719 83.7249 17.8573 84.0788 17.5097C84.4327 17.1622 84.8523 16.8886 85.3131 16.705C85.7739 16.5214 86.2667 16.4315 86.7626 16.4406Z" fill="black"/>
<path d="M89.6681 26.6611H83.856V48.4282H89.6681V26.6611Z" fill="black"/>
<path fill-rule="evenodd" clip-rule="evenodd" d="M113.697 43.984C112.596 45.5575 111.119 46.8298 109.399 47.6844C107.68 48.5391 105.773 48.949 103.854 48.8764C102.34 48.9148 100.834 48.6493 99.4239 48.0957C98.014 47.542 96.7294 46.7115 95.6459 45.6531C94.5624 44.5946 93.7021 43.3298 93.1156 41.9333C92.5292 40.5367 92.2285 39.0368 92.2315 37.5222C92.2344 36.0075 92.5409 34.5088 93.1328 33.1146C93.7247 31.7203 94.59 30.4589 95.6776 29.4047C96.7652 28.3505 98.053 27.5249 99.465 26.9768C100.877 26.4287 102.385 26.1691 103.899 26.2133C105.649 26.2003 107.38 26.5853 108.96 27.3394C110.541 28.0935 111.929 29.1968 113.02 30.5661L108.906 34.201C108.333 33.4064 107.581 32.757 106.711 32.305C105.842 31.853 104.879 31.6108 103.899 31.5978C103.119 31.5946 102.347 31.7478 101.629 32.0482C100.91 32.3486 100.258 32.7903 99.713 33.3469C99.1677 33.9035 98.7397 34.5639 98.4542 35.2889C98.1687 36.0139 98.0315 36.7888 98.0508 37.5678C98.025 38.3584 98.1629 39.1459 98.4558 39.8807C98.7488 40.6155 99.1904 41.2819 99.753 41.838C100.316 42.3941 100.987 42.8279 101.725 43.1122C102.464 43.3965 103.253 43.5252 104.043 43.4902C105.076 43.4696 106.088 43.1974 106.991 42.697C107.895 42.1966 108.663 41.4833 109.229 40.6189L113.697 43.984Z" fill="black"/>
<path fill-rule="evenodd" clip-rule="evenodd" d="M134.81 44.9719C133.692 46.2198 132.319 47.2138 130.785 47.887C129.25 48.5602 127.589 48.8971 125.913 48.8749C124.407 48.9451 122.903 48.7009 121.497 48.1581C120.091 47.6152 118.813 46.7855 117.744 45.7218C116.676 44.6581 115.841 43.3836 115.292 41.9795C114.744 40.5754 114.493 39.0725 114.557 37.5663C114.557 31.5065 118.671 26.2119 125.109 26.2119C131.099 26.2119 135.347 31.2825 135.347 37.3406C135.35 37.8973 135.306 38.4532 135.213 39.002H120.189C120.326 40.4458 121.008 41.7833 122.097 42.742C123.185 43.7007 124.598 44.2087 126.047 44.1625C127.079 44.1322 128.094 43.894 129.031 43.4621C129.969 43.0303 130.81 42.4137 131.503 41.6492L134.81 44.9719ZM129.4 34.7409C129.275 33.6905 128.769 32.7224 127.978 32.0195C127.187 31.3167 126.167 30.9277 125.109 30.9261C124.011 30.9196 122.944 31.2974 122.095 31.9941C121.246 32.6908 120.667 33.6624 120.459 34.7409H129.4Z" fill="black"/>
<path fill-rule="evenodd" clip-rule="evenodd" d="M137.658 48.4285V26.6614H143.246V28.411C144.967 26.9838 147.135 26.2061 149.371 26.2134C150.803 26.2094 152.219 26.521 153.517 27.1261C154.816 27.7312 155.965 28.6148 156.883 29.7143C158.555 31.8917 159.352 34.6155 159.118 37.3506V48.4285H153.306V36.8891C153.388 36.1554 153.314 35.4128 153.091 34.7092C152.868 34.0057 152.499 33.3568 152.009 32.8045C151.124 31.9854 149.951 31.5498 148.746 31.5928C147.722 31.623 146.718 31.8803 145.805 32.346C144.893 32.8118 144.095 33.4743 143.47 34.2859V48.4285H137.658Z" fill="black"/>
<path fill-rule="evenodd" clip-rule="evenodd" d="M174.085 26.2134C171.535 26.208 169.042 26.9689 166.93 28.3973C164.817 29.8257 163.183 31.8558 162.238 34.2244C161.293 36.5929 161.081 39.1907 161.63 41.681C162.179 44.1713 163.464 46.4393 165.317 48.1908C165.752 48.6048 166.32 48.8494 166.92 48.8806C167.519 48.9117 168.11 48.7272 168.585 48.3605C170.154 47.1936 172.056 46.5633 174.011 46.5633C175.965 46.5633 177.868 47.1936 179.436 48.3605C179.916 48.728 180.512 48.9109 181.115 48.8757C181.718 48.8405 182.289 48.5896 182.723 48.1687C184.562 46.4237 185.838 44.1693 186.387 41.6944C186.936 39.2195 186.734 36.6369 185.806 34.2778C184.878 31.9186 183.267 29.8903 181.178 28.4529C179.09 27.0155 176.62 26.2345 174.085 26.21M174.011 45.289C173.173 45.3117 172.339 45.1633 171.56 44.853C170.781 44.5427 170.073 44.0769 169.48 43.4841C168.887 42.8913 168.421 42.1839 168.111 41.4051C167.8 40.6263 167.652 39.7924 167.674 38.9542C167.674 37.2737 168.342 35.662 169.53 34.4736C170.718 33.2853 172.33 32.6177 174.011 32.6177C175.691 32.6177 177.303 33.2853 178.491 34.4736C179.68 35.662 180.347 37.2737 180.347 38.9542C180.37 39.7924 180.221 40.6263 179.911 41.4051C179.6 42.1839 179.134 42.8913 178.541 43.4841C177.948 44.0769 177.241 44.5427 176.462 44.853C175.683 45.1633 174.849 45.3117 174.011 45.289Z" fill="#62D84E"/>
<path fill-rule="evenodd" clip-rule="evenodd" d="M198.186 48.4282H193.857L185.224 26.6611H191.028L195.761 39.0999L200.402 26.6611H205.252L209.851 39.0999L214.624 26.6611H220.429L211.797 48.4282H207.468L202.827 36.0335L198.186 48.4282Z" fill="black"/>
<path d="M220.496 45.9674H220.005V46.8889H219.588V44.3672H220.606C220.713 44.3667 220.818 44.3874 220.917 44.428C221.016 44.4686 221.105 44.5284 221.181 44.6038C221.256 44.6792 221.316 44.7688 221.356 44.8674C221.397 44.966 221.418 45.0717 221.417 45.1783C221.416 45.3364 221.368 45.4906 221.279 45.6212C221.189 45.7517 221.063 45.8528 220.917 45.9114L221.49 46.894H221.035L220.496 45.9674ZM220.005 45.5958H220.606C220.719 45.5958 220.827 45.5511 220.906 45.4715C220.986 45.392 221.03 45.2841 221.03 45.1716C221.03 45.059 220.986 44.9511 220.906 44.8716C220.827 44.792 220.719 44.7473 220.606 44.7473H220.01L220.005 45.5958Z" fill="black"/>
<path d="M220.436 43.3338C220.899 43.3335 221.352 43.4704 221.737 43.7274C222.122 43.9843 222.422 44.3497 222.6 44.7772C222.777 45.2048 222.824 45.6754 222.733 46.1294C222.643 46.5835 222.421 47.0006 222.093 47.328C221.766 47.6555 221.349 47.8785 220.895 47.969C220.441 48.0594 219.971 48.0131 219.543 47.8361C219.115 47.659 218.75 47.3591 218.492 46.9742C218.235 46.5893 218.098 46.1368 218.098 45.6739C218.099 45.0539 218.345 44.4594 218.784 44.0208C219.222 43.5822 219.816 43.3352 220.436 43.3338ZM220.436 42.9639C219.899 42.9639 219.374 43.1231 218.928 43.4215C218.481 43.7198 218.133 44.1438 217.928 44.64C217.722 45.1361 217.669 45.682 217.773 46.2087C217.878 46.7354 218.137 47.2192 218.516 47.5989C218.896 47.9786 219.38 48.2372 219.907 48.342C220.433 48.4468 220.979 48.393 221.475 48.1875C221.972 47.982 222.396 47.634 222.694 47.1875C222.992 46.741 223.151 46.216 223.151 45.679C223.151 44.9589 222.865 44.2683 222.356 43.7591C221.847 43.2499 221.156 42.9639 220.436 42.9639Z" fill="black"/>
</svg>
