<svg width="215" height="66" viewBox="0 0 215 66" fill="none" xmlns="http://www.w3.org/2000/svg">
<g clip-path="url(#clip0_1619_14627)">
<path d="M64.3241 25.4878V23.8154H75.9211L66.3699 39.4353H75.6568V41.2225H63.1689L72.6742 25.528H64.4218L64.3241 25.4878Z" fill="#0F0D0D"/>
<path d="M101.409 25.5051V23.7695H94.2422H92.3745V25.5051V30.7519V32.5737V39.4583V41.1939H94.2422H101.409V39.4583H94.2422V32.5737H101.161V30.7519H94.2422V25.5051H101.409Z" fill="#0F0D0D"/>
<path d="M119.822 41.2108H117.914V23.0049L131.568 37.3087V23.8324H133.424V41.8774L119.81 28.269L119.822 41.2108Z" fill="#0F0D0D"/>
<path d="M149.952 23.8154L157.02 42.257L164.106 23.8154H162.054L157.026 36.8779L152.038 23.8154H149.952Z" fill="#0F0D0D"/>
<path d="M182.611 23.8154H180.623V41.2111H182.611V23.8154Z" fill="#0F0D0D"/>
<path d="M207.058 27.4587L210.035 34.4756H204.075L207.058 27.4587ZM199.064 41.1821H201.231L203.345 36.1996H210.77L212.885 41.1821H215L207.155 22.9072L199.064 41.1821Z" fill="#0F0D0D"/>
<path d="M85.7538 32.8035C85.7549 33.1322 85.6585 33.4539 85.4767 33.7278C85.2949 34.0017 85.0359 34.2154 84.7325 34.342C84.4291 34.4686 84.095 34.5023 83.7725 34.4389C83.4499 34.3755 83.1535 34.2177 82.9206 33.9857C82.6878 33.7536 82.529 33.4577 82.4645 33.1354C82.3999 32.8131 82.4325 32.4788 82.558 32.175C82.6835 31.8712 82.8964 31.6115 83.1697 31.4287C83.4429 31.246 83.7642 31.1484 84.093 31.1484C84.5324 31.1484 84.954 31.3226 85.2653 31.6328C85.5766 31.9431 85.7523 32.364 85.7538 32.8035Z" fill="#0F0D0D"/>
<path d="M111.299 32.8035C111.3 33.1322 111.203 33.4539 111.022 33.7278C110.84 34.0017 110.581 34.2154 110.277 34.342C109.974 34.4686 109.64 34.5023 109.317 34.4389C108.995 34.3755 108.698 34.2177 108.466 33.9857C108.233 33.7536 108.074 33.4577 108.009 33.1354C107.945 32.8131 107.977 32.4788 108.103 32.175C108.228 31.8712 108.441 31.6115 108.715 31.4287C108.988 31.246 109.309 31.1484 109.638 31.1484C110.077 31.1484 110.499 31.3226 110.81 31.6328C111.122 31.9431 111.297 32.364 111.299 32.8035Z" fill="#0F0D0D"/>
<path d="M144.027 32.6999C144.027 33.0284 143.929 33.3495 143.747 33.6226C143.564 33.8957 143.305 34.1086 143.001 34.2343C142.698 34.36 142.364 34.3929 142.042 34.3288C141.72 34.2647 141.424 34.1065 141.192 33.8743C140.959 33.642 140.801 33.3461 140.737 33.0239C140.673 32.7017 140.706 32.3678 140.832 32.0643C140.957 31.7608 141.17 31.5015 141.443 31.319C141.716 31.1365 142.037 31.0391 142.366 31.0391C142.806 31.0391 143.229 31.214 143.54 31.5255C143.852 31.837 144.027 32.2594 144.027 32.6999Z" fill="#0F0D0D"/>
<path d="M172.1 32.7746C172.1 33.1031 172.003 33.4242 171.82 33.6973C171.638 33.9704 171.378 34.1833 171.075 34.309C170.771 34.4347 170.437 34.4676 170.115 34.4035C169.793 34.3394 169.497 34.1813 169.265 33.949C169.032 33.7167 168.874 33.4208 168.81 33.0986C168.746 32.7764 168.779 32.4425 168.905 32.139C169.03 31.8355 169.243 31.5762 169.516 31.3937C169.79 31.2112 170.111 31.1138 170.439 31.1138C170.88 31.1138 171.302 31.2887 171.614 31.6002C171.925 31.9117 172.1 32.3341 172.1 32.7746Z" fill="#0F0D0D"/>
<path d="M194.34 32.7863C194.34 33.1148 194.243 33.4359 194.06 33.709C193.878 33.9821 193.618 34.195 193.315 34.3207C193.011 34.4464 192.678 34.4793 192.355 34.4152C192.033 34.3512 191.737 34.193 191.505 33.9607C191.273 33.7284 191.115 33.4325 191.05 33.1103C190.986 32.7882 191.019 32.4542 191.145 32.1507C191.271 31.8473 191.484 31.5879 191.757 31.4054C192.03 31.2229 192.351 31.1255 192.679 31.1255C193.12 31.1255 193.542 31.3005 193.854 31.6119C194.165 31.9234 194.34 32.3458 194.34 32.7863Z" fill="#0F0D0D"/>
<path d="M0 55.1585H46.4113V10H0V55.1585ZM45.0148 53.7793H1.37924V11.3735H45.0148V53.7793Z" fill="#0F0D0D"/>
<path d="M40.9808 40.0733H13.8443C13.6202 40.0733 13.6547 40.0733 13.6547 40.2687C13.6547 41.9927 13.6547 43.6708 13.6547 45.3718C13.6547 45.5845 13.6834 45.5155 13.534 45.6649C12.5686 46.6132 11.6318 47.6016 10.6606 48.5383C10.5786 48.5499 10.4955 48.5499 10.4135 48.5383C10.3822 48.5416 10.3505 48.537 10.3214 48.5249C10.2923 48.5129 10.2667 48.4938 10.2468 48.4694L7.44814 45.6764C7.28722 45.5155 7.31021 45.5845 7.31021 45.3546V33.7977C7.31021 33.5564 7.31021 33.5909 7.52284 33.5909H40.9923C41.205 33.5909 41.1877 33.6253 41.1877 33.407V14.5976C41.1877 14.3677 41.1877 14.4022 40.9866 14.4022H30.7975C30.5618 14.4022 30.5963 14.3677 30.5963 14.6091C30.5963 17.3446 30.5963 20.0801 30.5963 22.8213C30.5963 22.896 30.4756 22.8558 30.4239 22.8673H20.1141C19.9762 22.8673 19.9934 22.8328 19.9934 22.7179C19.9934 22.08 19.9934 21.4421 19.9934 20.8042C19.9926 20.7962 19.9935 20.7881 19.9961 20.7804C19.9986 20.7728 20.0027 20.7657 20.0081 20.7598C20.0135 20.7538 20.0201 20.7491 20.0275 20.7458C20.0349 20.7426 20.0429 20.7409 20.0509 20.741C22.1198 20.6778 24.361 20.8617 26.3724 20.6835V18.81C26.3724 18.5917 26.3724 18.6204 26.1828 18.6204H20.1141C20.0049 18.6204 20.0222 18.5687 20.0222 18.4882V16.6377C20.0222 16.4251 20.1314 16.5113 20.2635 16.4941H28.4183C28.5045 16.4941 28.4585 16.3791 28.47 16.3217V14.5976C28.47 14.3792 28.47 14.408 28.2746 14.408H18.0855C17.8614 14.408 17.8901 14.408 17.8901 14.6091V22.7179C17.8901 22.8673 17.8901 22.8558 17.7464 22.8558H15.5799C12.8444 22.8558 10.1032 22.8558 7.36193 22.8558C7.31021 22.8558 7.29872 22.8558 7.29297 22.7868V20.9191C7.29297 20.7007 7.29297 20.7295 7.48836 20.7295H15.6488C15.7638 20.7295 15.7638 20.7295 15.7695 20.6088V14.5976C15.7695 14.3735 15.7695 14.408 15.5741 14.408H5.33905C5.20113 14.408 5.20688 14.408 5.20688 14.5459V16.3217C5.20688 16.54 5.1724 16.5113 5.39652 16.5113H13.5742C13.6892 16.5113 13.6432 16.6377 13.649 16.7067C13.649 17.289 13.649 17.8637 13.649 18.4307C13.649 18.6549 13.6834 18.6204 13.4593 18.6204H5.37928C5.18389 18.6204 5.20688 18.6204 5.20688 18.7985C5.20688 20.8272 5.20688 22.8558 5.20688 24.8844C5.14366 25.0051 5.68961 24.9419 5.78156 24.9591C14.0991 24.9591 22.4167 24.9591 30.7342 24.9591H32.6594C32.7112 24.9591 32.7226 24.9591 32.7226 24.8902C32.7226 23.873 32.7226 22.8615 32.7226 21.8444C32.7226 20.0858 32.7226 18.3273 32.7226 16.5745C32.7226 16.5113 32.7227 16.4941 32.7916 16.4941H38.9752C39.2453 21.2467 38.9752 26.4131 39.0671 31.3036C39.0671 31.5163 39.0671 31.4933 38.8775 31.4933H22.9875C17.1143 31.4933 11.241 31.4933 5.36779 31.4933C5.30457 31.4933 5.19538 31.4588 5.18389 31.5507V31.6944C5.28158 36.6194 4.99424 41.6824 5.28158 46.5499L9.30436 50.5727C9.33494 50.6076 9.3731 50.6351 9.41593 50.6531C9.45876 50.671 9.50512 50.6789 9.55147 50.6762H11.4192C12.9076 49.4693 14.2064 47.8947 15.6374 46.5614C15.781 46.4178 15.758 46.4637 15.758 46.2798V42.349C15.758 42.1536 15.758 42.1709 15.9362 42.1709C17.9418 42.1709 19.959 42.1709 21.9474 42.1709C22.1313 42.1709 22.114 42.1709 22.114 42.3375V48.4694C22.114 48.5039 22.114 48.5268 22.0566 48.5268H18.0338C17.9763 48.5268 17.8671 48.4809 17.8556 48.5728C17.8556 49.2107 17.8556 49.8486 17.8556 50.4865C17.8556 50.544 17.8556 50.6359 17.9246 50.6244H32.5388C32.7112 50.6244 32.6997 50.6244 32.6997 50.475C32.6997 49.136 32.6997 47.797 32.6997 46.4522C34.6536 46.2683 36.8316 46.4522 38.8603 46.389C38.935 46.389 39.0671 46.3488 39.0614 46.458C39.0614 47.8315 39.0614 49.1992 39.0614 50.5727C39.0614 50.6359 39.1418 50.6187 39.1878 50.6244H41.0555C41.0958 50.6244 41.1647 50.6244 41.1705 50.5785C41.1705 47.1304 41.1705 43.6823 41.1705 40.2687C41.1705 40.0273 41.1705 40.0618 40.9636 40.0618M30.5963 45.3488V48.3602C30.5963 48.5556 30.5963 48.5326 30.4182 48.5326H24.407C24.2289 48.5326 24.2346 48.5326 24.2346 48.3544V42.3548C24.2346 42.1651 24.2346 42.1824 24.4127 42.1824C26.4126 42.1824 28.4355 42.1824 30.4182 42.1824C30.6193 42.1824 30.5963 42.1824 30.5963 42.3605V45.3603M39.0786 42.3663V44.1248C39.0786 44.1822 39.0786 44.2914 39.0269 44.2972H32.7916C32.7112 44.2972 32.7054 44.2972 32.7054 44.2052C32.7054 43.5616 32.7054 42.9122 32.7054 42.2628C32.7054 42.1824 32.7054 42.1766 32.7974 42.1709H38.866C39.1016 42.1709 39.0671 42.1709 39.0671 42.3663" fill="#0F0D0D"/>
</g>
<defs>
<clipPath id="clip0_1619_14627">
<rect width="215" height="45.1585" fill="white" transform="translate(0 10)"/>
</clipPath>
</defs>
</svg>
