<svg width="88" height="88" viewBox="0 0 88 88" fill="none" xmlns="http://www.w3.org/2000/svg">
<rect width="88" height="88" fill="#203AEC"/>
<path d="M68.5877 45.013C66.7549 45.013 65.2535 46.5144 65.2535 48.3472C65.2535 49.4392 65.7799 50.4141 66.5794 51.0186L64.22 55.3667C64.0056 55.3277 63.7911 55.3082 63.5571 55.3082C63.0111 55.3082 62.5042 55.4447 62.0557 55.6592L59.9499 53.7289C60.1839 53.1439 60.4178 52.5589 60.6518 51.935C62.0752 48.0743 62.8941 44.3695 63.1281 40.8988C63.4206 36.5116 62.7382 32.5144 61.1003 29.0046C59.8524 26.2943 58.195 23.9545 56.1866 22.0631C55.8552 21.7511 55.3287 21.7706 55.0167 22.1021C54.7048 22.4336 54.7242 22.96 55.0557 23.272C56.9081 25.0269 58.4485 27.2107 59.6184 29.7261C61.1393 32.9823 61.7632 36.7066 61.4903 40.8013C61.2758 44.116 60.4763 47.6648 59.1309 51.3695C57.5516 55.6592 55.5822 59.169 54.4707 61.0018C53.3203 57.0241 54.0418 53.2219 54.9777 49.3417C55.0752 48.8932 54.8217 48.4642 54.3733 48.3472C53.9248 48.2497 53.4958 48.5032 53.3788 48.9517C52.3844 53.0659 51.5655 57.4531 53.0669 62.0353H30.7799C30.8384 60.6509 31.3064 57.6481 34.2702 55.3082C41.8162 49.4002 43.8245 41.2107 43.9025 40.8793C44.117 40.1188 43.1031 39.5339 42.5376 40.0798C42.5376 40.0798 40.8607 41.6007 39.1253 41.7957C38.2674 41.8932 37.4485 41.4837 36.6685 41.0743C35.8886 40.6648 35.0891 40.2553 34.2507 40.4308C33.5682 40.5673 32.8858 41.0938 32.1644 41.6397C31.3454 42.2637 30.4095 42.9656 29.7075 42.9461C29.1031 42.9266 27.7967 42.2247 26.9972 40.9963C26.4123 40.0993 26.2758 39.2024 26.6267 38.3445C27.1922 36.9016 28.1866 36.0631 29.2396 35.1857C30.1755 34.3862 31.1504 33.5673 31.8329 32.2999C31.9499 32.0854 32.0668 31.8319 32.2033 31.5979C33.5097 29.0826 35.4791 25.2609 39.1644 23.974C39.4958 23.857 39.7103 23.545 39.7103 23.194V17.7734C40.2368 17.8709 40.9387 18.0659 41.6407 18.4364C43.4346 19.3723 44.3315 20.9712 44.3315 23.2135C44.3315 23.5645 44.546 23.857 44.8774 23.9935C44.8969 23.9935 47.3343 24.9099 49.8106 26.8988C53.0668 29.5311 54.8997 32.7094 55.2312 36.3556C55.5432 39.7288 54.8607 42.9851 54.1978 45.7539C54.1003 46.2024 54.3733 46.6314 54.8022 46.7484C55.2507 46.8458 55.6797 46.5729 55.7967 46.1439C56.4986 43.2386 57.2006 39.8458 56.8691 36.2191C56.4986 32.1439 54.3928 28.4782 50.805 25.5924C48.7967 23.9935 46.8663 23.0575 45.9694 22.6676C45.8329 20.3667 44.8774 18.8653 43.766 17.9099C46.3203 18.2999 49.5766 19.2358 52.6379 21.3027C53.0084 21.5562 53.5153 21.4587 53.7688 21.0882C54.0223 20.7177 53.9248 20.2108 53.5543 19.9573C46.8078 15.3946 39.4178 15.9991 38.8524 16.0575C38.4429 16.077 38.0724 16.4475 38.0919 16.8765V22.6676C34.1727 24.3445 32.0669 28.4002 30.7799 30.8765C30.6435 31.13 30.5265 31.364 30.4095 31.5784C29.883 32.5729 29.0641 33.2553 28.2061 33.9768C27.0947 34.9127 25.8273 35.9656 25.1254 37.7985C24.5989 39.1439 24.7939 40.6258 25.6518 41.9517C26.6267 43.4336 28.3426 44.584 29.6685 44.6425C30.936 44.701 32.1253 43.8041 33.1783 43.0046C33.7047 42.6147 34.3092 42.1467 34.6407 42.0882C34.9136 42.0297 35.4596 42.3222 35.9666 42.5757C36.8635 43.0436 37.9944 43.6091 39.3398 43.4726C40.1393 43.3946 40.9192 43.1021 41.5822 42.7706C40.5293 45.4419 38.2089 50.0046 33.7827 53.6704L29.9415 50.7456C30.195 50.2776 30.3315 49.7511 30.3315 49.2052C30.3315 47.3723 28.8496 45.8709 26.9972 45.8709C25.1448 45.8709 23.663 47.3723 23.663 49.2052C23.663 49.8291 23.8384 50.3946 24.1309 50.9016L21.0112 55.2302C20.5237 54.9378 19.9387 54.7623 19.3343 54.7623C17.5014 54.7623 16 56.2637 16 58.0965C16 59.9294 17.4819 61.4308 19.3343 61.4308C21.1866 61.4308 22.6685 59.9294 22.6685 58.0965C22.6685 57.4726 22.4931 56.9071 22.2006 56.4002L25.3203 52.0715C25.8078 52.364 26.3928 52.5394 26.9972 52.5394C27.6797 52.5394 28.3036 52.325 28.8301 51.974L32.4958 54.7623C29.649 57.4531 29.2006 60.6899 29.1811 62.1718C28.0307 62.4837 27.1727 63.5367 27.1727 64.8041C27.1727 65.2135 27.2702 65.584 27.4262 65.935C26.0418 66.2275 24.9889 67.4559 24.9889 68.9183V71.1411C24.9889 71.5896 25.3593 71.9601 25.8078 71.9601H58.4095C58.8579 71.9601 59.2284 71.5896 59.2284 71.1411V68.9183C59.2284 67.4559 58.1755 66.208 56.7911 65.935C56.9471 65.584 57.0446 65.2135 57.0446 64.8041C57.0446 63.7706 56.4596 62.8737 55.6212 62.4057C56.4401 61.1188 57.9025 58.6425 59.3454 55.4057L60.9053 56.8291C60.5348 57.3751 60.3203 58.0185 60.3203 58.7205C60.3203 60.5534 61.8022 62.0548 63.6546 62.0548C65.507 62.0548 66.9889 60.5534 66.9889 58.7205C66.9889 57.7066 66.5209 56.7901 65.7995 56.1662L68.1978 51.74C68.3538 51.7595 68.5098 51.779 68.6658 51.779C70.4986 51.779 72 50.2776 72 48.4447C72 46.6119 70.5181 45.1105 68.6658 45.1105L68.5877 45.013ZM19.2953 59.6759C18.3593 59.6759 17.6184 58.9155 17.6184 57.9796C17.6184 57.0436 18.3788 56.2832 19.2953 56.2832C20.2117 56.2832 20.9722 57.0436 20.9722 57.9796C20.9722 58.9155 20.2117 59.6759 19.2953 59.6759ZM26.9582 50.7846C26.0223 50.7846 25.2814 50.0241 25.2814 49.0882C25.2814 48.1523 26.0418 47.3918 26.9582 47.3918C27.8747 47.3918 28.6351 48.1523 28.6351 49.0882C28.6351 50.0241 27.8747 50.7846 26.9582 50.7846ZM57.532 68.8208V70.2247H26.5682V68.8208C26.5682 68.0408 27.1922 67.4169 27.9721 67.4169H36.7075C37.156 67.4169 37.5265 67.0464 37.5265 66.5979C37.5265 66.1495 37.156 65.779 36.7075 65.779H29.8245C29.2395 65.779 28.7521 65.2915 28.7521 64.7066C28.7521 64.1216 29.2395 63.6342 29.8245 63.6342H54.2758C54.8607 63.6342 55.3482 64.1216 55.3482 64.7066C55.3482 65.2915 54.8607 65.779 54.2758 65.779H39.9833C39.5348 65.779 39.1644 66.1495 39.1644 66.5979C39.1644 67.0464 39.5348 67.4169 39.9833 67.4169H56.1281C56.9081 67.4169 57.532 68.0408 57.532 68.8208ZM63.5766 60.2999C62.6407 60.2999 61.8997 59.5394 61.8997 58.6035C61.8997 57.6676 62.6602 56.9071 63.5766 56.9071C64.4931 56.9071 65.2535 57.6676 65.2535 58.6035C65.2535 59.5394 64.4931 60.2999 63.5766 60.2999ZM68.5877 50.0241C67.6518 50.0241 66.9109 49.2637 66.9109 48.3277C66.9109 47.3918 67.6713 46.6314 68.5877 46.6314C69.5042 46.6314 70.2646 47.3918 70.2646 48.3277C70.2646 49.2637 69.5042 50.0241 68.5877 50.0241Z" fill="#F1F1F2"/>
</svg>
