<svg width="88" height="88" viewBox="0 0 88 88" fill="none" xmlns="http://www.w3.org/2000/svg">
<rect width="88" height="88" fill="#203AEC"/>
<path d="M68.2135 44.0005C69.3944 41.6584 70.3194 39.2967 70.9689 36.9547C72.996 29.6727 72.012 23.552 68.2135 19.7732C64.4151 15.9945 58.314 15.0104 51.0321 17.0179C48.7097 17.6674 46.348 18.5924 43.9863 19.7732C41.0735 18.2972 38.1411 17.2344 35.3267 16.6243C28.7729 15.1679 23.2426 16.3094 19.7787 19.7732C17.5548 21.9972 16.2559 25.1264 16.0394 28.8265C15.8426 32.1525 16.5117 35.9706 17.9878 39.9068C16.7872 40.8515 16 42.3276 16 43.9808C16 45.634 16.7676 47.1101 17.9878 48.0547C16.5117 51.9909 15.8426 55.809 16.0394 59.1351C16.2559 62.8351 17.5548 65.9644 19.7787 68.1883C22.2782 70.6878 25.7617 71.9671 29.9735 71.9671C30.8197 71.9671 31.7054 71.908 32.6107 71.8096C36.232 71.3963 40.0895 70.1564 43.9863 68.1883C46.3283 69.3692 48.69 70.2942 51.0124 70.9437C53.4922 71.6325 55.8342 71.9671 57.9991 71.9671C62.1912 71.9671 65.6944 70.6878 68.1939 68.1883C71.6774 64.7245 72.7992 59.1941 71.3625 52.6404C70.7524 49.826 69.6699 46.8936 68.2135 43.9808V44.0005ZM51.465 18.612C58.1566 16.762 63.6869 17.5886 67.0524 20.9344C70.4178 24.2998 71.2444 29.8302 69.3747 36.5217C68.863 38.3914 68.1348 40.3004 67.2492 42.1898C65.655 39.3361 63.7066 36.5217 61.4433 33.8254C62.1321 32.9398 62.5454 31.8376 62.5454 30.6174C62.5454 29.3972 62.1715 28.3541 61.4433 27.4291L60.1443 28.4328C60.6364 29.0626 60.8922 29.8105 60.8922 30.6174C60.8922 32.5855 59.2981 34.1797 57.33 34.1797C55.3619 34.1797 53.7677 32.5855 53.7677 30.6174C53.7677 28.6493 55.3619 27.0552 57.33 27.0552C57.9794 27.0552 58.5896 27.2323 59.1406 27.5472L59.9869 26.1302C59.18 25.6578 58.2747 25.402 57.33 25.402C56.1294 25.402 55.0076 25.8153 54.122 26.5041C51.4257 24.2408 48.6113 22.2924 45.7576 20.6982C47.6666 19.8126 49.556 19.1041 51.4257 18.5727L51.465 18.612ZM20.9399 20.9344C25.3878 16.4865 33.5357 16.6636 42.1953 20.7179C37.9639 23.0796 33.8113 26.2286 30.0325 30.027C27.2181 32.8414 24.758 35.8525 22.6718 39.0015C22.1995 38.8637 21.7075 38.785 21.2154 38.785C20.5857 38.785 19.9952 38.9031 19.4442 39.0999C16.5904 31.3456 17.1218 24.7525 20.9399 20.9344ZM30.0325 70.3336C26.3128 70.3336 23.1639 69.2511 20.9399 67.0468C17.1218 63.2287 16.5904 56.6356 19.4442 48.8813C19.9952 49.0781 20.5857 49.1962 21.2154 49.1962C21.7272 49.1962 22.2192 49.1175 22.6718 48.9797C24.7383 52.1287 27.2181 55.1399 30.0325 57.9542C33.8113 61.733 37.9639 64.9016 42.1953 67.2633C37.8458 69.2905 33.6735 70.3336 30.0325 70.3336ZM44.006 66.3777C39.5778 64.0553 35.1889 60.7883 31.2134 56.8128C28.5368 54.1361 26.175 51.2824 24.1873 48.2909C25.5453 47.3462 26.4309 45.7914 26.4309 44.0201C26.4309 43.8627 26.4309 43.7052 26.4112 43.5478L24.7777 43.6856C24.7777 43.784 24.7777 43.9021 24.7777 44.0005C24.7777 45.9686 23.1835 47.5627 21.2154 47.5627C19.2474 47.5627 17.6532 45.9686 17.6532 44.0005C17.6532 42.0324 19.2474 40.4382 21.2154 40.4382C22.5734 40.4382 23.7937 41.1861 24.4038 42.4063L25.8798 41.6781C25.4862 40.8712 24.8958 40.2217 24.1873 39.7297C26.175 36.7382 28.5368 33.8845 31.2134 31.2078C35.1889 27.2323 39.5778 23.9653 44.0257 21.6429C47.0565 23.2371 50.1071 25.2839 53.0592 27.7637C52.5081 28.5903 52.1736 29.594 52.1736 30.6568C52.1736 33.5302 54.5156 35.8526 57.3693 35.8526C58.4321 35.8526 59.4358 35.5377 60.2624 34.9669C62.7422 37.9191 64.789 40.9893 66.3832 44.0005C64.0609 48.4483 60.7938 52.8175 56.8183 56.8128C56.3853 57.2457 55.9326 57.6787 55.48 58.1117C54.5746 57.3441 53.3938 56.8718 52.1145 56.8718C50.9533 56.8718 49.8512 57.2457 48.9262 57.9739L49.9299 59.2729C50.5597 58.7808 51.3076 58.525 52.1145 58.525C54.0826 58.525 55.6768 60.1191 55.6768 62.0872C55.6768 64.0553 54.0826 65.6495 52.1145 65.6495C50.1464 65.6495 48.5523 64.0553 48.5523 62.0872C48.5523 61.4378 48.7294 60.8277 49.0443 60.2766L47.6273 59.4303C47.1549 60.2372 46.8991 61.1426 46.8991 62.0872C46.8991 62.9138 47.0959 63.6814 47.4305 64.3899C46.289 65.1181 45.1278 65.7873 43.9863 66.3974L44.006 66.3777ZM67.072 67.0468C63.7066 70.4123 58.1763 71.2389 51.4847 69.3692C49.615 68.8575 47.706 68.1293 45.8166 67.2437C46.6826 66.7516 47.5485 66.2399 48.4145 65.6889C49.3592 66.6532 50.6778 67.2633 52.1342 67.2633C55.0076 67.2633 57.33 64.9213 57.33 62.0676C57.33 61.0638 57.0544 60.1388 56.5624 59.3319C57.0544 58.8792 57.5268 58.4069 57.9991 57.9542C61.7779 54.1755 64.9465 50.0228 67.3082 45.7914C71.3625 54.451 71.5396 62.5989 67.0917 67.0468H67.072ZM57.4874 52.4829H55.7949V48.3499C55.7949 46.5196 54.555 44.8861 52.8034 44.3941L52.1932 44.2169L51.7406 45.7914L52.3507 45.9686C53.4135 46.2638 54.1417 47.2478 54.1417 48.3499V52.4829H51.1895V50.2393H49.556V52.4829H42.156V54.1165H57.4874V52.4829ZM46.7219 44.3941L50.1464 45.3584L50.5991 43.784L47.2337 42.8393V40.6547C48.7491 39.6116 49.7528 37.8797 49.7528 35.8919V33.4908C49.7528 30.3222 47.1746 27.744 44.006 27.744C40.8373 27.744 38.2591 30.3222 38.2591 33.4908V35.8919C38.2591 37.86 39.2629 39.6116 40.7783 40.6547V42.8393L35.2283 44.4138C33.457 44.9058 32.2368 46.5393 32.2368 48.3696V52.5026H30.5442V54.1361H40.5225V52.5026H38.4953V50.259H36.8618V52.5026H33.9097V48.3696C33.9097 47.2675 34.6575 46.3031 35.7006 45.9882L41.3294 44.3941C42.0182 45.142 43.0022 45.5946 44.0453 45.5946C45.0884 45.5946 46.0725 45.1616 46.7613 44.3941H46.7219ZM44.006 29.3775C46.2693 29.3775 48.1193 31.2275 48.1193 33.4908V34.3962L46.3874 32.1132H40.1288C40.6996 30.519 42.215 29.3775 44.006 29.3775ZM39.8927 35.8919V33.7467H45.5608L47.9618 36.935C47.4895 38.6866 45.8953 39.9855 43.9863 39.9855C41.723 39.9855 39.873 38.1355 39.873 35.8722L39.8927 35.8919ZM42.4118 43.1935V41.4223C42.9235 41.56 43.4549 41.6387 44.006 41.6387C44.557 41.6387 45.0884 41.56 45.6001 41.4223V43.1935C45.2065 43.6659 44.6358 43.9611 44.006 43.9611C43.3762 43.9611 42.8054 43.6856 42.4118 43.1935ZM48.3358 48.2712L46.0134 47.6218L46.4661 46.0473L48.7884 46.6967L48.3358 48.2712ZM51.9374 47.5824L51.4847 49.1569L49.9103 48.7042L50.3629 47.1297L51.9374 47.5824ZM56.5427 29.8302H58.1763V31.4834H56.5427V29.8302ZM51.2879 61.2606H52.9214V62.8942H51.2879V61.2606ZM20.3888 43.1739H22.042V44.8074H20.3888V43.1739Z" fill="#F1F1F2"/>
</svg>
