<svg width="88" height="88" viewBox="0 0 88 88" fill="none" xmlns="http://www.w3.org/2000/svg">
<rect width="88" height="88" fill="#203AEC"/>
<path d="M55.4105 44.4124C55.4105 38.1176 50.305 33.0121 44.0102 33.0121C37.7154 33.0121 32.6099 38.1176 32.6099 44.4124C32.6099 50.7072 37.7154 55.8127 44.0102 55.8127C50.305 55.8127 55.4105 50.7072 55.4105 44.4124ZM34.6193 44.4124C34.6193 39.2454 38.8226 35.0215 43.9897 35.0215C49.1567 35.0215 53.3806 39.2249 53.3806 44.4124C53.3806 47.119 52.2324 49.559 50.387 51.2813C50.1819 50.7277 49.8539 50.2356 49.4233 49.805C48.6031 48.9848 47.5164 48.5337 46.3682 48.5337H41.6522C40.504 48.5337 39.4172 48.9848 38.5971 49.805C38.1665 50.2356 37.8385 50.7277 37.6334 51.2813C35.788 49.559 34.6398 47.119 34.6398 44.4124H34.6193ZM39.3762 52.5731C39.4378 52.081 39.6633 51.6094 40.0324 51.2403C40.463 50.8097 41.0371 50.5637 41.6522 50.5637H46.3682C46.9833 50.5637 47.5574 50.8097 47.988 51.2403C48.3571 51.6094 48.5826 52.0605 48.6441 52.5731C47.2704 53.3522 45.6916 53.8033 44.0102 53.8033C42.3289 53.8033 40.75 53.3522 39.3762 52.5731Z" fill="#F1F1F2"/>
<path d="M44.0105 47.0164C46.471 47.0164 48.4599 45.007 48.4599 42.567C48.4599 40.1065 46.471 38.1176 44.0105 38.1176C41.55 38.1176 39.561 40.127 39.561 42.567C39.561 45.0275 41.55 47.0164 44.0105 47.0164ZM44.0105 40.127C45.3432 40.127 46.4299 41.2137 46.4299 42.5465C46.4299 43.8793 45.3432 44.966 44.0105 44.966C42.6777 44.966 41.591 43.8793 41.591 42.5465C41.591 41.2137 42.6777 40.127 44.0105 40.127Z" fill="#F1F1F2"/>
<path d="M70.0914 38.7737L68.1025 39.2043C68.2461 39.881 68.3691 40.5781 68.4511 41.2753L70.4605 41.0292C70.358 40.2705 70.235 39.5324 70.0709 38.7942L70.0914 38.7737Z" fill="#F1F1F2"/>
<path d="M70.6862 44.4124C70.6862 44.0228 70.6862 43.6537 70.6657 43.2642L68.6357 43.3462C68.6357 43.6947 68.6562 44.0433 68.6562 44.3919C68.6562 44.7405 68.6562 45.089 68.6357 45.4376L70.6657 45.5196C70.6657 45.1505 70.6862 44.761 70.6862 44.3919V44.4124Z" fill="#F1F1F2"/>
<path d="M70.481 47.8161L68.4716 47.5701C68.3896 48.2672 68.2666 48.9644 68.123 49.641L70.112 50.0716C70.276 49.3334 70.399 48.5748 70.5015 47.8366L70.481 47.8161Z" fill="#F1F1F2"/>
<path d="M54.2827 19.7869C53.5856 19.4999 52.8679 19.2333 52.1503 19.0078L51.5352 20.9351C52.1913 21.1402 52.8679 21.3862 53.5035 21.6733L54.2827 19.8074V19.7869Z" fill="#F1F1F2"/>
<path d="M57.2355 23.6007L58.3223 21.8783C57.9942 21.6733 57.6866 21.4888 57.3381 21.2837C57.01 21.0992 56.6819 20.9146 56.3333 20.7301L55.3901 22.5345C55.6977 22.6985 56.0053 22.8625 56.3128 23.0471C56.6204 23.2316 56.9074 23.3956 57.215 23.6007H57.2355Z" fill="#F1F1F2"/>
<path d="M61.9311 24.6463C61.3775 24.1337 60.7829 23.6416 60.1883 23.1906L58.958 24.8104C59.5116 25.241 60.0652 25.6921 60.5778 26.1637L61.9311 24.6669V24.6463Z" fill="#F1F1F2"/>
<path d="M36.4648 20.9351L35.8497 19.0078C35.1321 19.2333 34.4144 19.4999 33.7173 19.7869L34.4964 21.6528C35.1526 21.3862 35.8087 21.1402 36.4648 20.9146V20.9351Z" fill="#F1F1F2"/>
<path d="M31.6666 23.0675C31.9742 22.883 32.2818 22.719 32.5893 22.5549L31.6461 20.7505C31.3181 20.9351 30.9695 21.0991 30.6414 21.3042C30.3134 21.4887 29.9853 21.6937 29.6777 21.8988L30.7645 23.6006C31.0515 23.4161 31.3591 23.2316 31.6666 23.047V23.0675Z" fill="#F1F1F2"/>
<path d="M29.0424 24.8104L27.8122 23.1906C27.2176 23.6416 26.6229 24.1337 26.0693 24.6463L27.4226 26.1432C27.9352 25.6716 28.4888 25.2205 29.0424 24.7899V24.8104Z" fill="#F1F1F2"/>
<path d="M19.8975 49.641C19.754 48.9644 19.631 48.2672 19.549 47.5701L17.5396 47.8161C17.6421 48.5748 17.7651 49.3129 17.9291 50.0511L19.918 49.6205L19.8975 49.641Z" fill="#F1F1F2"/>
<path d="M17.314 44.4124C17.314 44.802 17.314 45.1711 17.3345 45.5401L19.3644 45.4581C19.3644 45.1095 19.3439 44.761 19.3439 44.4124C19.3439 44.0638 19.3439 43.7153 19.3644 43.3667L17.3345 43.2847C17.3345 43.6537 17.314 44.0433 17.314 44.4329V44.4124Z" fill="#F1F1F2"/>
<path d="M19.8975 39.2043L17.9086 38.7737C17.7446 39.5119 17.6216 40.2705 17.519 41.0087L19.5285 41.2547C19.6105 40.5576 19.7335 39.8605 19.877 39.1838L19.8975 39.2043Z" fill="#F1F1F2"/>
<path d="M33.7173 69.0379C34.4144 69.325 35.1321 69.5915 35.8497 69.8171L36.4648 67.8897C35.8087 67.6847 35.1321 67.4386 34.4964 67.1516L33.7173 69.0174V69.0379Z" fill="#F1F1F2"/>
<path d="M30.785 65.2241L29.6982 66.9465C30.0263 67.1515 30.3339 67.3361 30.6825 67.5411C31.0105 67.7256 31.3386 67.9102 31.6871 68.0947L32.6304 66.2903C32.3228 66.1263 32.0152 65.9623 31.7077 65.7777C31.4001 65.5932 31.113 65.4292 30.8055 65.2241H30.785Z" fill="#F1F1F2"/>
<path d="M26.0693 64.1784C26.6229 64.691 27.2176 65.1626 27.8122 65.6342L29.0424 64.0144C28.4888 63.5838 27.9352 63.1327 27.4226 62.6816L26.0693 64.1784Z" fill="#F1F1F2"/>
<path d="M58.958 64.0144L60.1883 65.6342C60.7829 65.1832 61.3775 64.691 61.9311 64.1784L60.5778 62.6816C60.0652 63.1532 59.5116 63.6043 58.958 64.0349V64.0144Z" fill="#F1F1F2"/>
<path d="M56.3333 65.7777C56.0258 65.9623 55.7182 66.1263 55.4106 66.2903L56.3538 68.0947C56.6819 67.9307 57.0305 67.7461 57.3585 67.5411C57.6866 67.3566 58.0147 67.1515 58.3222 66.9465L57.2355 65.2241C56.9485 65.4087 56.6409 65.5932 56.3333 65.7777Z" fill="#F1F1F2"/>
<path d="M51.5352 67.9102L52.1503 69.8376C52.8679 69.6121 53.5856 69.3455 54.2827 69.0379L53.5035 67.1721C52.8474 67.4386 52.1913 67.6847 51.5352 67.9102Z" fill="#F1F1F2"/>
<path d="M45.0148 26.1227H42.9849V31.5358H45.0148V26.1227Z" fill="#F1F1F2"/>
<path d="M44.0102 24.5233C47.1884 24.5233 49.7719 21.9398 49.7719 18.7617C49.7719 15.5835 47.1884 13 44.0102 13C40.8321 13 38.2485 15.5835 38.2485 18.7617C38.2485 21.9398 40.8321 24.5233 44.0102 24.5233ZM44.0102 15.0094C46.0812 15.0094 47.742 16.6908 47.742 18.7412C47.742 20.7916 46.0607 22.4729 44.0102 22.4729C41.9598 22.4729 40.2785 20.7916 40.2785 18.7412C40.2785 16.6908 41.9598 15.0094 44.0102 15.0094Z" fill="#F1F1F2"/>
<path d="M28.6517 34.3749L27.6367 36.1329L32.3246 38.8394L33.3396 37.0815L28.6517 34.3749Z" fill="#F1F1F2"/>
<path d="M18.8927 36.5798C19.7743 37.0924 20.7585 37.359 21.7632 37.359C23.8137 37.359 25.741 36.2517 26.7663 34.4679C28.3656 31.7203 27.4019 28.1731 24.6543 26.5943C23.7726 26.0817 22.7884 25.8151 21.7837 25.8151C19.7333 25.8151 17.8059 26.9224 16.7807 28.7062C16.0015 30.039 15.7965 31.5973 16.2066 33.0736C16.5962 34.5704 17.5599 35.8007 18.8927 36.5798ZM18.5441 29.7109C19.2002 28.5627 20.451 27.845 21.7837 27.845C22.4399 27.845 23.0755 28.0091 23.6496 28.3371C25.4335 29.3623 26.0486 31.6588 25.0234 33.4427C24.3468 34.5909 23.1165 35.3086 21.7837 35.3086C21.1276 35.3086 20.492 35.1445 19.9179 34.8165C19.0567 34.3244 18.4416 33.5042 18.175 32.5405C17.9084 31.5768 18.052 30.5721 18.5441 29.7109Z" fill="#F1F1F2"/>
<path d="M32.3168 49.9643L27.6294 52.6717L28.6447 54.4295L33.3321 51.7221L32.3168 49.9643Z" fill="#F1F1F2"/>
<path d="M26.7661 54.3774C25.7409 52.5936 23.8135 51.4863 21.763 51.4863C20.7583 51.4863 19.7537 51.7529 18.8925 52.2655C16.1449 53.8648 15.2017 57.3915 16.7805 60.1391C17.8057 61.923 19.7331 63.0302 21.7835 63.0302C22.7882 63.0302 23.793 62.7636 24.6541 62.251C27.4017 60.6517 28.3449 57.125 26.7661 54.3774ZM23.6494 60.5082C23.0753 60.8362 22.4397 61.0003 21.7835 61.0003C20.4508 61.0003 19.2 60.2826 18.5439 59.1344C17.5187 57.3505 18.1338 55.0541 19.9177 54.0288C20.4918 53.7008 21.1274 53.5367 21.7835 53.5367C23.1163 53.5367 24.3671 54.2544 25.0232 55.4026C26.0484 57.1865 25.4333 59.483 23.6494 60.5082Z" fill="#F1F1F2"/>
<path d="M45.0148 57.3095H42.9849V62.7226H45.0148V57.3095Z" fill="#F1F1F2"/>
<path d="M44.0102 64.322C40.8321 64.322 38.2485 66.9055 38.2485 70.0836C38.2485 73.2618 40.8321 75.8453 44.0102 75.8453C45.548 75.8453 47.0038 75.2507 48.0905 74.164C49.1773 73.0772 49.7719 71.6214 49.7719 70.0836C49.7719 66.9055 47.1884 64.322 44.0102 64.322ZM46.6553 72.7287C45.9581 73.4258 45.0149 73.8154 44.0102 73.8154C41.9393 73.8154 40.2785 72.1341 40.2785 70.0836C40.2785 68.0332 41.9598 66.3519 44.0102 66.3519C46.0812 66.3519 47.742 68.0332 47.742 70.0836C47.742 71.0883 47.3524 72.0315 46.6553 72.7287Z" fill="#F1F1F2"/>
<path d="M55.6771 49.9802L54.6621 51.7382L59.35 54.4447L60.3649 52.6868L55.6771 49.9802Z" fill="#F1F1F2"/>
<path d="M69.1072 52.2655C68.2256 51.7529 67.2414 51.4863 66.2367 51.4863C64.1863 51.4863 62.2589 52.5936 61.2337 54.3774C59.6548 57.125 60.598 60.6722 63.3456 62.251C64.2273 62.7636 65.2114 63.0302 66.2162 63.0302C68.2666 63.0302 70.194 61.923 71.2192 60.1391C71.9983 58.8063 72.2034 57.248 71.7933 55.7717C71.4037 54.2749 70.44 53.0446 69.1072 52.2655ZM69.4558 59.1344C68.7997 60.2826 67.5489 61.0003 66.2162 61.0003C65.56 61.0003 64.9244 60.8362 64.3503 60.4877C62.5664 59.4625 61.9513 57.166 62.9765 55.3821C63.6532 54.2339 64.8834 53.5162 66.2162 53.5162C66.8723 53.5162 67.5079 53.6803 68.082 54.0288C68.9432 54.5209 69.5584 55.3411 69.8249 56.3048C70.0915 57.2685 69.9479 58.2732 69.4558 59.1344Z" fill="#F1F1F2"/>
<path d="M59.3646 34.3749L54.6768 37.0814L55.6917 38.8394L60.3796 36.1328L59.3646 34.3749Z" fill="#F1F1F2"/>
<path d="M61.234 34.4679C62.2592 36.2517 64.1866 37.359 66.237 37.359C67.2417 37.359 68.2464 37.0924 69.1076 36.5798C70.4403 35.8007 71.404 34.5704 71.7936 33.0736C72.1832 31.5768 71.9782 30.039 71.2195 28.7062C70.1943 26.9224 68.2874 25.8151 66.2165 25.8151C65.2118 25.8151 64.2071 26.0817 63.3459 26.5943C60.5983 28.1936 59.6346 31.7203 61.234 34.4679ZM64.3506 28.3371C64.9247 28.0091 65.5603 27.8245 66.2165 27.8245C67.5492 27.8245 68.8 28.5422 69.4561 29.6904C69.9482 30.5516 70.0918 31.5563 69.8252 32.52C69.5587 33.4837 68.9435 34.2833 68.0824 34.796C67.5082 35.124 66.8726 35.3086 66.2165 35.3086C64.8837 35.3086 63.633 34.5909 62.9768 33.4427C61.9516 31.6588 62.5668 29.3623 64.3506 28.3371Z" fill="#F1F1F2"/>
</svg>
