<svg width="88" height="88" viewBox="0 0 88 88" fill="none" xmlns="http://www.w3.org/2000/svg">
<rect width="88" height="88" fill="#203AEC"/>
<path d="M46.6837 38.3102C46.6837 38.7591 47.0545 39.13 47.5035 39.13H48.8698V48.8699H39.1298V39.13H43.9901C44.439 39.13 44.8099 38.7591 44.8099 38.3102C44.8099 37.8612 44.439 37.4904 43.9901 37.4904H38.7394C38.0368 37.4904 37.4902 38.0564 37.4902 38.7396V49.2408C37.4902 49.9435 38.0563 50.49 38.7394 50.49H49.2407C49.9434 50.49 50.4899 49.924 50.4899 49.2408V38.7396C50.4899 38.0369 49.9238 37.4904 49.2407 37.4904H47.484C47.035 37.4904 46.6642 37.8612 46.6642 38.3102H46.6837Z" fill="#F1F1F2"/>
<path d="M20.548 19.2792C19.8454 19.2792 19.2988 19.8452 19.2988 20.5284V26.2084C19.2988 26.9111 19.8649 27.4576 20.548 27.4576H26.2281C26.9308 27.4576 27.4773 26.8916 27.4773 26.2084V20.5284C27.4773 19.8257 26.9112 19.2792 26.2281 19.2792H20.548ZM25.8572 25.8376H20.9384V20.9188H25.8572V25.8376Z" fill="#F1F1F2"/>
<path d="M26.2281 60.5033H20.548C19.8454 60.5033 19.2988 61.0693 19.2988 61.7525V67.4325C19.2988 68.1352 19.8649 68.6818 20.548 68.6818H26.2281C26.9308 68.6818 27.4773 68.1157 27.4773 67.4325V61.7525C27.4773 61.0498 26.9112 60.5033 26.2281 60.5033ZM25.8377 67.0617H20.9189V62.1429H25.8377V67.0617Z" fill="#F1F1F2"/>
<path d="M59.3712 30.7564H69.8724C71.0436 30.7564 72 29.7999 72 28.6288V18.1276C72 16.9564 71.0436 16 69.8724 16H59.3712C58.2001 16 57.2436 16.9564 57.2436 18.1276V22.5584H47.4061C46.9571 22.5584 46.5863 22.9292 46.5863 23.3782V34.2112H42.0969V31.0101C43.0533 30.6783 43.7365 29.7609 43.7365 28.6873C43.7365 27.321 42.6239 26.228 41.2771 26.228C39.9303 26.228 38.8177 27.3405 38.8177 28.6873C38.8177 29.7609 39.5009 30.6588 40.4573 31.0101V34.2112H36.7877C35.3628 34.2112 34.2112 35.3628 34.2112 36.7877V41.5504H24.198V30.7759H28.6288C29.7999 30.7759 30.7564 29.8194 30.7564 28.6483V26.5207C30.7564 26.0718 30.3855 25.7009 29.9366 25.7009C29.4876 25.7009 29.1168 26.0718 29.1168 26.5207V28.6483C29.1168 28.9216 28.9021 29.1363 28.6288 29.1363H18.1276C17.8543 29.1363 17.6396 28.9216 17.6396 28.6483V18.1471C17.6396 17.8738 17.8543 17.6591 18.1276 17.6591H28.6288C28.9021 17.6591 29.1168 17.8738 29.1168 18.1471V23.0073C29.1168 23.4563 29.4876 23.8271 29.9366 23.8271C30.3855 23.8271 30.7564 23.4563 30.7564 23.0073V18.1471C30.7564 16.9759 29.7999 16.0195 28.6288 16.0195H18.1276C16.9564 16.0195 16 16.9759 16 18.1471V28.6483C16 29.8194 16.9564 30.7759 18.1276 30.7759H22.5584V42.3702C22.5584 42.8191 22.9292 43.19 23.3782 43.19H34.2112V46.6839H33.0791C32.7473 45.7274 31.8299 45.0443 30.7564 45.0443C29.39 45.0443 28.297 46.1569 28.297 47.5037C28.297 48.8505 29.4095 49.9631 30.7564 49.9631C31.8299 49.9631 32.7278 49.2799 33.0791 48.3235H34.2112V51.2318C34.2112 52.6567 35.3628 53.8083 36.7877 53.8083H40.4573V63.5483H30.7759V59.3907C30.7759 58.2196 29.8194 57.2632 28.6483 57.2632H18.1276C16.9564 57.2632 16 58.2196 16 59.3907V69.8919C16 71.0631 16.9564 72.0195 18.1276 72.0195H28.6288C29.7999 72.0195 30.7564 71.0631 30.7564 69.8919V65.2074H41.2576C41.7065 65.2074 42.0774 64.8365 42.0774 64.3876V53.8278H46.5667V57.4779C45.6103 57.8097 44.9272 58.7271 44.9272 59.8006C44.9272 61.167 46.0397 62.26 47.3865 62.26C48.7334 62.26 49.8459 61.1474 49.8459 59.8006C49.8459 58.7271 49.1628 57.8292 48.2063 57.4779V53.8278H51.2123C52.6372 53.8278 53.7888 52.6762 53.7888 51.2513V45.6689H63.802V57.2632H59.3712C58.2001 57.2632 57.2436 58.2196 57.2436 59.3907V61.5183C57.2436 61.9672 57.6145 62.3381 58.0634 62.3381C58.5124 62.3381 58.8832 61.9672 58.8832 61.5183V59.3907C58.8832 59.1175 59.0979 58.9028 59.3712 58.9028H69.8724C70.1457 58.9028 70.3604 59.1175 70.3604 59.3907V69.8919C70.3604 70.1652 70.1457 70.3799 69.8724 70.3799H59.3712C59.0979 70.3799 58.8832 70.1652 58.8832 69.8919V65.0122C58.8832 64.5633 58.5124 64.1924 58.0634 64.1924C57.6145 64.1924 57.2436 64.5633 57.2436 65.0122V69.8919C57.2436 71.0631 58.2001 72.0195 59.3712 72.0195H69.8724C71.0436 72.0195 72 71.0631 72 69.8919V59.3907C72 58.2196 71.0436 57.2632 69.8724 57.2632H65.4416V44.8491C65.4416 44.4001 65.0708 44.0293 64.6218 44.0293H53.7888V41.2381H57.6926C58.0244 42.1945 58.9418 42.8777 60.0153 42.8777C61.3817 42.8777 62.4747 41.7651 62.4747 40.4183C62.4747 39.0715 61.3621 37.9589 60.0153 37.9589C58.9418 37.9589 58.0439 38.642 57.6926 39.5985H53.7888V36.8072C53.7888 35.3824 52.6372 34.2307 51.2123 34.2307H48.2063V24.2175H57.2241V28.6483C57.2241 29.8194 58.1805 30.7759 59.3517 30.7759L59.3712 30.7564ZM41.2771 27.8676C41.726 27.8676 42.0969 28.2384 42.0969 28.6873C42.0969 29.1363 41.726 29.5071 41.2771 29.5071C40.8282 29.5071 40.4573 29.1363 40.4573 28.6873C40.4573 28.2384 40.8282 27.8676 41.2771 27.8676ZM30.7759 48.3235C30.3269 48.3235 29.9561 47.9526 29.9561 47.5037C29.9561 47.0547 30.3269 46.6839 30.7759 46.6839C31.2248 46.6839 31.5957 47.0547 31.5957 47.5037C31.5957 47.9526 31.2248 48.3235 30.7759 48.3235ZM29.1363 69.8724C29.1363 70.1457 28.9216 70.3604 28.6483 70.3604H18.1276C17.8543 70.3604 17.6396 70.1457 17.6396 69.8724V59.3712C17.6396 59.0979 17.8543 58.8832 18.1276 58.8832H28.6288C28.9021 58.8832 29.1168 59.0979 29.1168 59.3712V69.8724H29.1363ZM47.4061 60.5814C46.9571 60.5814 46.5863 60.2105 46.5863 59.7616C46.5863 59.3127 46.9571 58.9418 47.4061 58.9418C47.855 58.9418 48.2259 59.3127 48.2259 59.7616C48.2259 60.2105 47.855 60.5814 47.4061 60.5814ZM60.0349 39.5789C60.4838 39.5789 60.8546 39.9498 60.8546 40.3988C60.8546 40.8477 60.4838 41.2185 60.0349 41.2185C59.5859 41.2185 59.2151 40.8477 59.2151 40.3988C59.2151 39.9498 59.5859 39.5789 60.0349 39.5789ZM52.1687 36.7877V51.2318C52.1687 51.7393 51.7588 52.1687 51.2318 52.1687H36.7877C36.2802 52.1687 35.8508 51.7588 35.8508 51.2318V36.7877C35.8508 36.2802 36.2607 35.8508 36.7877 35.8508H51.2318C51.7393 35.8508 52.1687 36.2607 52.1687 36.7877ZM59.3907 17.6396H69.8919C70.1652 17.6396 70.3799 17.8543 70.3799 18.1276V28.6288C70.3799 28.9021 70.1652 29.1168 69.8919 29.1168H59.3907C59.1175 29.1168 58.9028 28.9021 58.9028 28.6288V23.3977C58.9028 23.3977 58.9028 23.3977 58.9028 23.3782C58.9028 23.3587 58.9028 23.3782 58.9028 23.3587V18.1276C58.9028 17.8543 59.1175 17.6396 59.3907 17.6396Z" fill="#F1F1F2"/>
<path d="M61.7722 27.4772H67.4522C68.1549 27.4772 68.7014 26.9111 68.7014 26.228V20.5479C68.7014 19.8452 68.1354 19.2987 67.4522 19.2987H61.7722C61.0695 19.2987 60.5229 19.8648 60.5229 20.5479V26.228C60.5229 26.9306 61.089 27.4772 61.7722 27.4772ZM62.1625 20.9188H67.0813V25.8376H62.1625V20.9188Z" fill="#F1F1F2"/>
<path d="M67.4522 68.7013C68.1549 68.7013 68.7014 68.1352 68.7014 67.4521V61.772C68.7014 61.0694 68.1354 60.5228 67.4522 60.5228H61.7722C61.0695 60.5228 60.5229 61.0889 60.5229 61.772V67.4521C60.5229 68.1547 61.089 68.7013 61.7722 68.7013H67.4522ZM62.143 62.1429H67.0618V67.0617H62.143V62.1429Z" fill="#F1F1F2"/>
</svg>
