<svg width="60" height="61" viewBox="0 0 60 61" fill="none" xmlns="http://www.w3.org/2000/svg">
<g id="Group">
<path id="Vector" d="M47.3437 30.7853C47.8269 30.7853 48.2196 30.3945 48.2196 29.9094V27.9439C48.2196 27.4607 47.8269 27.068 47.3437 27.068C46.8605 27.068 46.4678 27.4588 46.4678 27.9439V29.9094C46.4678 30.3926 46.8586 30.7853 47.3437 30.7853Z" fill="#2A4DDD"/>
<g id="Group_2">
<path id="Vector_2" d="M57.0961 30.9336H54.6936C54.0795 28.5253 52.9553 26.2364 51.4191 24.2728C49.8713 22.2958 47.8981 20.6363 45.6881 19.4524V13.1016C45.6881 12.5703 45.4591 12.0659 45.0606 11.7155C44.6621 11.3671 44.1346 11.2054 43.6091 11.2747C40.1651 11.7309 37.3256 14.0718 36.2052 17.3156H35.2812C35.2947 17.1173 35.3024 16.919 35.3024 16.7169C35.3024 12.2911 31.7025 8.68933 27.2767 8.68933C22.851 8.68933 19.2492 12.2892 19.2492 16.7169C19.2492 17.3291 19.3204 17.9335 19.4552 18.5207C16.2576 19.7431 13.4797 21.8203 11.3872 24.5673C11.0946 24.9524 11.1677 25.501 11.5527 25.7936C11.7106 25.9149 11.8973 25.9726 12.0821 25.9726C12.3459 25.9726 12.6058 25.8533 12.779 25.6281C14.6656 23.1563 17.1605 21.2812 20.0346 20.1724C20.4254 20.9886 20.9529 21.7394 21.5939 22.3862C21.5015 22.4093 21.411 22.4344 21.3206 22.4594C20.8547 22.5884 20.5813 23.0696 20.7103 23.5374C20.8181 23.9244 21.1704 24.1785 21.5535 24.1785C21.6305 24.1785 21.7094 24.1688 21.7864 24.1457C22.4352 23.9667 23.1013 23.8377 23.7635 23.7646C24.7626 23.6549 24.1832 23.6876 34.3302 23.6876C34.8134 23.6876 35.2061 23.2968 35.2061 22.8117C35.2061 22.3266 34.8153 21.9358 34.3302 21.9358H33.3754C34.0954 21.0984 34.6305 20.1223 34.952 19.0655H36.8463C37.2428 19.0655 37.5913 18.7979 37.6914 18.4148C38.4576 15.5233 40.8678 13.4019 43.8305 13.0092C43.8401 13.0092 43.869 13.0034 43.8998 13.0304C43.9209 13.0496 43.9325 13.0727 43.9325 13.0997V19.9818C43.9325 20.3148 44.1211 20.6171 44.4176 20.7653C48.853 22.9695 52.1121 27.1662 53.1382 31.9885C53.2248 32.3928 53.581 32.6815 53.9948 32.6815H57.0904C57.537 32.6815 57.9008 33.0454 57.9008 33.492V39.9698C57.9008 40.4165 57.537 40.7784 57.0904 40.7784H53.735C53.065 40.7784 52.4606 41.1769 52.1949 41.7967C51.935 42.407 51.6347 43.0095 51.2997 43.5871C51.0572 44.0048 51.1996 44.54 51.6174 44.7825C51.756 44.8634 51.9061 44.9 52.0544 44.9C52.3566 44.9 52.6511 44.744 52.8128 44.463C53.1748 43.8392 53.502 43.1866 53.785 42.5263H57.0884C58.4995 42.5263 59.6488 41.379 59.6488 39.9679V33.4901C59.6488 32.079 58.4995 30.9297 57.0884 30.9297L57.0961 30.9336ZM23.879 21.9954C22.0983 20.8442 21.001 18.846 21.001 16.7188C21.001 13.2575 23.8174 10.4431 27.2767 10.4431C30.7361 10.4431 33.5525 13.2595 33.5525 16.7188C33.5525 17.1404 33.5121 17.5543 33.4312 17.9547C33.4216 17.9932 33.412 18.0317 33.4062 18.0721C33.0635 19.643 32.1299 21.0252 30.7611 21.9377C25.3343 21.955 24.9898 21.8953 23.8771 21.9954H23.879Z" fill="#2A4DDD"/>
<path id="Vector_3" d="M50.4583 46.3707C50.1022 46.0454 49.5478 46.0704 49.2224 46.4265C48.4312 47.2928 47.5438 48.0763 46.587 48.754C46.3637 48.9118 46.227 49.1659 46.2174 49.4393C46.1558 51.3624 45.9613 53.505 45.6418 55.8055C45.4377 57.2724 44.171 58.3735 42.6906 58.3735H42.6752C41.2257 58.3658 39.9744 57.2609 39.7395 55.7901C39.5836 54.662 39.4565 53.5686 39.3641 52.5406C39.3141 51.9958 39.2717 51.4702 39.2409 50.9755C39.2063 50.4403 39.1812 49.9167 39.1658 49.4181C39.1504 48.9349 38.7423 48.5518 38.263 48.5711C37.7798 48.5865 37.4005 48.9907 37.4159 49.4739C37.4333 49.9898 37.4583 50.5327 37.4929 51.0871C37.5064 51.3008 37.5218 51.5184 37.5392 51.7417C37.414 51.7436 37.2889 51.7455 37.1657 51.7455H25.7943C25.2091 51.7455 24.6027 51.7109 23.9886 51.6435C23.7556 51.6165 23.5208 51.6878 23.3379 51.836C23.1569 51.9842 23.0414 52.1998 23.0202 52.4347C22.9221 53.5224 22.7912 54.6562 22.6314 55.8036C22.4273 57.2666 21.1587 58.3716 19.6802 58.3716C18.2018 58.3716 16.9332 57.2686 16.7291 55.8036C16.7253 55.7785 16.7214 55.7554 16.7195 55.7304C16.7195 55.7227 16.7176 55.7131 16.7156 55.7035C16.7156 55.6958 16.7137 55.6861 16.7118 55.6784C16.5385 54.4156 16.3383 52.7177 16.2247 50.9177C15.9995 47.2851 16.2498 45.1002 16.4673 43.9817C16.5597 43.5081 16.2498 43.048 15.7743 42.9556C15.2988 42.8632 14.8406 43.1732 14.7482 43.6487C14.5422 44.7074 14.4344 45.8837 14.3959 47.1099C11.2446 44.0529 9.46195 39.8948 9.4504 35.4459C9.4504 35.3747 9.4504 35.3015 9.4504 35.2303V35.2053C9.47735 32.9164 9.98557 30.7025 10.9616 28.6196C11.1656 28.1807 10.977 27.6609 10.54 27.4549C10.1011 27.2509 9.58131 27.4395 9.37725 27.8765C8.41664 29.9248 7.86606 32.0905 7.73131 34.3255C5.20946 34.366 3.43455 34.9011 2.1871 35.9888C0.933874 37.0842 0.433355 38.6454 0.881897 40.0661C1.5499 42.1856 4.01207 42.896 5.50592 41.3713C6.04109 40.8265 6.2952 40.1123 6.20665 39.4116C6.14505 38.9322 5.70806 38.5934 5.22679 38.655C4.74745 38.7166 4.40863 39.1555 4.47023 39.6349C4.50104 39.8697 4.3297 40.0719 4.25655 40.1469C4.06019 40.3472 3.78106 40.4607 3.54812 40.4357C3.08611 40.3857 2.71264 40.0507 2.55286 39.5405C2.31415 38.7821 2.60869 37.9466 3.34022 37.3094C4.24308 36.522 5.67726 36.1178 7.71398 36.0773C7.90457 41.3135 10.3148 46.1378 14.4017 49.4508C14.4691 51.6088 14.6962 53.8958 14.9965 56.0423C15.32 58.3658 17.3336 60.1196 19.6822 60.1196C22.0308 60.1196 24.0425 58.3678 24.3659 56.0423C24.4872 55.1683 24.593 54.302 24.6797 53.4569C25.057 53.48 25.4285 53.4916 25.7923 53.4916H37.1638C37.3389 53.4916 37.516 53.4896 37.6951 53.4839C37.7798 54.2924 37.8799 55.1221 37.9954 55.9576C37.9992 55.9845 38.0031 56.0134 38.0069 56.0404C38.0069 56.0404 38.0089 56.0577 38.0108 56.0673C38.3823 58.3716 40.3652 60.1061 42.6656 60.1177C42.6733 60.1177 42.6829 60.1177 42.6906 60.1177C45.0392 60.1177 47.0509 58.3697 47.3744 56.0404C47.6804 53.8477 47.8729 51.7898 47.9499 49.9186C48.874 49.2294 49.7345 48.4517 50.5141 47.6008C50.8395 47.2447 50.8164 46.6903 50.4583 46.3649V46.3707Z" fill="#2A4DDD"/>
</g>
<path id="Vector_4" d="M27.8829 15.8409H26.674C26.4083 15.8409 26.1927 15.6253 26.1927 15.3597C26.1927 15.094 26.4083 14.8803 26.674 14.8803H28.9879C29.4711 14.8803 29.8638 14.4895 29.8638 14.0044C29.8638 13.5193 29.4731 13.1285 28.9879 13.1285H28.2834V12.6954C28.2834 12.2122 27.8926 11.8195 27.4075 11.8195C26.9223 11.8195 26.5315 12.2102 26.5315 12.6954V13.1324C25.3669 13.2055 24.4409 14.1757 24.4409 15.3577C24.4409 16.5397 25.442 17.587 26.6721 17.587H27.881C28.1448 17.587 28.3604 17.8026 28.3604 18.0663C28.3604 18.3301 28.1448 18.5457 27.881 18.5457H25.5671C25.0839 18.5457 24.6912 18.9384 24.6912 19.4216C24.6912 19.9048 25.0839 20.2975 25.5671 20.2975H26.5315V20.7306C26.5315 21.2138 26.9243 21.6065 27.4075 21.6065C27.8906 21.6065 28.2834 21.2138 28.2834 20.7306V20.2609C29.3229 20.0722 30.1122 19.1598 30.1122 18.0663C30.1122 16.8362 29.1111 15.8352 27.8829 15.8352V15.8409Z" fill="#2A4DDD"/>
<path id="Vector_5" d="M11.487 16.4358C15.9128 16.4358 19.5127 12.8359 19.5127 8.41013C19.5127 3.98438 15.9128 0.382568 11.487 0.382568C9.87959 0.382568 8.32798 0.856137 6.99968 1.75322C6.59927 2.02273 6.49339 2.56753 6.76482 2.96794C7.03433 3.36836 7.57913 3.47424 7.97955 3.2028C9.01716 2.50207 10.23 2.13054 11.487 2.13054C14.9483 2.13054 17.7628 4.94692 17.7628 8.40628C17.7628 11.8656 14.9464 14.682 11.487 14.682C8.02767 14.682 5.21129 11.8656 5.21129 8.40628C5.21129 7.40331 5.44037 6.44463 5.89277 5.55717C6.11222 5.12788 5.94282 4.60041 5.5116 4.37902C5.08038 4.15956 4.55484 4.32897 4.33346 4.76019C3.76171 5.88058 3.45947 7.13958 3.45947 8.40435C3.45947 12.8301 7.05936 16.43 11.4851 16.43L11.487 16.4358Z" fill="#2A4DDD"/>
<path id="Vector_6" d="M11.6179 3.51474C11.1347 3.51474 10.742 3.90553 10.742 4.39065V4.82764C9.57733 4.9008 8.65137 5.87103 8.65137 7.05303C8.65137 8.23502 9.65048 9.28226 10.8806 9.28226H12.0895C12.3533 9.28226 12.5689 9.49787 12.5689 9.76161C12.5689 10.0253 12.3533 10.2409 12.0895 10.2409H9.77561C9.29242 10.2409 8.8997 10.6317 8.8997 11.1169C8.8997 11.602 9.29049 11.9928 9.77561 11.9928H10.7401V12.4259C10.7401 12.9091 11.1309 13.3018 11.616 13.3018C12.1011 13.3018 12.4919 12.911 12.4919 12.4259V11.9562C13.5314 11.7675 14.3207 10.855 14.3207 9.76161C14.3207 8.53148 13.3197 7.53237 12.0895 7.53237H10.8806C10.6149 7.53237 10.4013 7.31676 10.4013 7.05303C10.4013 6.78929 10.6169 6.57368 10.8806 6.57368H13.1945C13.6777 6.57368 14.0704 6.18097 14.0704 5.69778C14.0704 5.21458 13.6797 4.82187 13.1945 4.82187H12.49V4.38873C12.49 3.90553 12.0972 3.51282 11.6141 3.51282L11.6179 3.51474Z" fill="#2A4DDD"/>
</g>
</svg>
