<svg width="50" height="59" viewBox="0 0 50 59" fill="none" xmlns="http://www.w3.org/2000/svg">
<g id="Group">
<path id="Vector" d="M31.3134 35.1921C31.3134 34.7243 30.9342 34.3451 30.4664 34.3451H9.33873C8.87094 34.3451 8.4917 34.7243 8.4917 35.1921C8.4917 35.6599 8.87094 36.0392 9.33873 36.0392H30.4664C30.9342 36.0392 31.3134 35.6599 31.3134 35.1921Z" fill="#2A4DDD"/>
<path id="Vector_2" d="M9.33873 38.3319C8.87094 38.3319 8.4917 38.7112 8.4917 39.1789C8.4917 39.6467 8.87094 40.026 9.33873 40.026H23.9058C24.3736 40.026 24.7528 39.6467 24.7528 39.1789C24.7528 38.7112 24.3736 38.3319 23.9058 38.3319H9.33873Z" fill="#2A4DDD"/>
<path id="Vector_3" d="M48.4794 17.6913C48.9472 17.6913 49.3264 17.3121 49.3264 16.8443V9.18439C49.3264 8.7166 48.9472 8.33736 48.4794 8.33736H38.8771V1.18956C38.8771 0.721769 38.4979 0.342529 38.0301 0.342529H1.36705C0.899259 0.342529 0.52002 0.721769 0.52002 1.18956V30.2716C0.52002 30.7394 0.899259 31.1187 1.36705 31.1187C1.83484 31.1187 2.21408 30.7394 2.21408 30.2716V2.03659H37.185V41.1733H30.7918C30.324 41.1733 29.9448 41.5526 29.9448 42.0204V48.4135H2.21408V33.6598C2.21408 33.192 1.83484 32.8127 1.36705 32.8127C0.899259 32.8127 0.52002 33.192 0.52002 33.6598V49.2606C0.52002 49.7284 0.899259 50.1076 1.36705 50.1076H10.9693V57.2554C10.9693 57.7232 11.3486 58.1024 11.8164 58.1024H41.2411C41.2411 58.1024 41.2546 58.1024 41.2623 58.1024C41.2835 58.1024 41.3046 58.1024 41.3239 58.0986C41.3393 58.0986 41.3566 58.0947 41.372 58.0909C41.3836 58.0909 41.3951 58.089 41.4067 58.0851C41.424 58.0813 41.4394 58.0774 41.4567 58.0736C41.4663 58.0716 41.476 58.0697 41.4856 58.0659C41.501 58.0601 41.5183 58.0543 41.5337 58.0485C41.5433 58.0447 41.553 58.0408 41.5645 58.037C41.5799 58.0312 41.5953 58.0235 41.6088 58.0158C41.6184 58.01 41.63 58.0062 41.6396 58.0023C41.655 57.9946 41.6704 57.985 41.6858 57.9754C41.6935 57.9696 41.7031 57.9658 41.7108 57.96C41.732 57.9465 41.7512 57.9311 41.7705 57.9157C41.7724 57.9138 41.7763 57.9119 41.7782 57.9099C41.7994 57.8926 41.8205 57.8734 41.8417 57.8522L49.0819 50.612C49.1089 50.585 49.132 50.5561 49.1551 50.5253C49.1609 50.5176 49.1666 50.5099 49.1705 50.5042C49.1917 50.4734 49.2128 50.4426 49.2302 50.4098C49.2302 50.4098 49.2302 50.406 49.2321 50.406C49.2494 50.3752 49.2629 50.3425 49.2744 50.3097C49.2783 50.302 49.2802 50.2924 49.2841 50.2847C49.2956 50.2501 49.3052 50.2154 49.3129 50.1788C49.3206 50.1442 49.3245 50.1076 49.3264 50.071C49.3264 50.0614 49.3264 50.0518 49.3264 50.0422C49.3264 50.0325 49.3264 50.0229 49.3264 50.0133V20.2324C49.3264 19.7646 48.9472 19.3854 48.4794 19.3854C48.0116 19.3854 47.6323 19.7646 47.6323 20.2324V49.1682H41.2392C40.7714 49.1682 40.3921 49.5474 40.3921 50.0152V56.4084H12.6634V50.1057H30.7918C30.7918 50.1057 30.8053 50.1057 30.813 50.1057C30.8342 50.1057 30.8553 50.1057 30.8746 50.1018C30.89 50.1018 30.9073 50.098 30.9227 50.0941C30.9343 50.0941 30.9458 50.0922 30.9574 50.0884C30.9747 50.0845 30.9901 50.0807 31.0074 50.0749C31.017 50.073 31.0267 50.071 31.0363 50.0672C31.0517 50.0614 31.069 50.0556 31.0844 50.0499C31.094 50.046 31.1037 50.0422 31.1152 50.0383C31.1306 50.0325 31.146 50.0248 31.1595 50.0171C31.1691 50.0114 31.1807 50.0075 31.1903 50.0037C31.2057 49.996 31.2211 49.9863 31.2365 49.9767C31.2442 49.9709 31.2538 49.9671 31.2615 49.9613C31.2827 49.9478 31.3019 49.9324 31.3212 49.917C31.3231 49.9151 31.327 49.9132 31.3289 49.9112C31.3501 49.8939 31.3713 49.8747 31.3924 49.8535L38.6326 42.6133C38.6596 42.5863 38.6846 42.5575 38.7058 42.5267C38.7116 42.519 38.7173 42.5132 38.7212 42.5055C38.7424 42.4747 38.7635 42.4439 38.7809 42.4112C38.7809 42.4112 38.7809 42.4092 38.7809 42.4073C38.7982 42.3765 38.8117 42.3438 38.8232 42.3111C38.8271 42.3034 38.829 42.2937 38.8328 42.286C38.8444 42.2514 38.854 42.2167 38.8617 42.1802C38.8694 42.1455 38.8733 42.1089 38.8752 42.0723C38.8752 42.0627 38.8752 42.0531 38.8752 42.0435C38.8752 42.0338 38.8752 42.0242 38.8752 42.0146V10.0314H47.6304V16.8443C47.6304 17.3121 48.0097 17.6913 48.4775 17.6913H48.4794ZM42.0862 50.8622H46.435L42.0862 55.211V50.8622ZM31.6369 42.8674H35.9857L31.6369 47.2161V42.8674Z" fill="#2A4DDD"/>
<path id="Vector_4" d="M17.4626 24.8776C18.0786 24.8776 18.6562 24.637 19.0912 24.2039L25.7154 17.5797C26.1505 17.1446 26.3892 16.5671 26.3892 15.9511C26.3892 15.335 26.1505 14.7575 25.7154 14.3225C25.2803 13.8874 24.7028 13.6487 24.0868 13.6487C23.4708 13.6487 22.8933 13.8893 22.4582 14.3225L17.4626 19.318L15.7782 17.6336C15.3431 17.1985 14.7656 16.9598 14.1496 16.9598C13.5335 16.9598 12.956 17.1985 12.521 17.6336C11.6239 18.5307 11.6239 19.9918 12.521 20.8908L15.834 24.2039C16.2691 24.6389 16.8466 24.8776 17.4626 24.8776ZM13.7184 18.831C13.8339 18.7155 13.9859 18.6519 14.1496 18.6519C14.3132 18.6519 14.4653 18.7155 14.5808 18.831L16.8639 21.1141C17.0237 21.2739 17.2374 21.3625 17.4626 21.3625C17.6879 21.3625 17.9015 21.2739 18.0613 21.1141L23.6575 15.5179C23.773 15.4024 23.9251 15.3389 24.0887 15.3389C24.2524 15.3389 24.4044 15.4024 24.5199 15.5179C24.6354 15.6334 24.699 15.7855 24.699 15.9491C24.699 16.1128 24.6354 16.2649 24.5199 16.3804L17.8958 23.0045C17.7803 23.12 17.6282 23.1836 17.4645 23.1836C17.3009 23.1836 17.1469 23.1181 17.0333 23.0045L13.7203 19.6915C13.4816 19.4528 13.4816 19.0678 13.7203 18.8291L13.7184 18.831Z" fill="#2A4DDD"/>
<path id="Vector_5" d="M10.4745 11.3232C10.1049 11.0363 9.57356 11.1037 9.28673 11.4733C7.58111 13.6718 6.68018 16.3072 6.68018 19.0947C6.68018 25.9537 12.261 31.5365 19.1219 31.5365C25.9829 31.5365 31.5637 25.9557 31.5637 19.0947C31.5637 12.2337 25.9829 6.65295 19.1219 6.65295C16.5231 6.65295 14.034 7.44608 11.9222 8.94572C11.541 9.21715 11.4524 9.74462 11.7219 10.1258C11.9934 10.507 12.5208 10.5974 12.902 10.326C14.7251 9.03042 16.8754 8.34509 19.12 8.34509C25.0454 8.34509 29.8677 13.1655 29.8677 19.0928C29.8677 25.0201 25.0473 29.8405 19.12 29.8405C13.1927 29.8405 8.37232 25.0201 8.37232 19.0928C8.37232 16.6845 9.15005 14.4072 10.6247 12.509C10.9115 12.1394 10.8441 11.6081 10.4745 11.3213V11.3232Z" fill="#2A4DDD"/>
</g>
</svg>
