<svg width="51" height="51" viewBox="0 0 51 51" fill="none" xmlns="http://www.w3.org/2000/svg">
<g id="Group">
<path id="Vector" d="M42.9827 35.7233H7.44195C3.36079 35.7233 0.0400391 39.044 0.0400391 43.1252C0.0400391 47.2063 3.35117 50.5271 7.44195 50.5271H42.9827C47.0638 50.5271 50.3846 47.2063 50.3846 43.1252C50.3846 39.044 47.0734 35.7233 42.9827 35.7233ZM7.44195 49.0506C4.1674 49.0506 1.51657 46.3997 1.51657 43.1252C1.51657 39.8506 4.1751 37.1979 7.44195 37.1979H10.4181C6.46209 40.1625 6.44861 46.0763 10.4181 49.0506H7.44195ZM14.8458 49.0506C11.577 49.0506 8.91848 46.392 8.91848 43.1252C8.91848 39.8583 11.577 37.1979 14.8458 37.1979C18.1146 37.1979 20.7712 39.8564 20.7712 43.1252C20.7712 46.394 18.1126 49.0506 14.8458 49.0506ZM42.9827 49.0506H19.2754C23.2314 46.0859 23.2449 40.1721 19.2754 37.1979H42.9827C46.2572 37.1979 48.908 39.8487 48.908 43.1252C48.908 46.4017 46.2495 49.0506 42.9827 49.0506Z" fill="#2A4DDD"/>
<path id="Vector_2" d="M42.9827 17.953H7.44195C3.36079 17.953 0.0400391 21.2738 0.0400391 25.3549C0.0400391 29.4361 3.35117 32.7568 7.44195 32.7568H20.2591C20.6672 32.7568 20.9964 32.4276 20.9964 32.0195C20.9964 31.6114 20.6672 31.2822 20.2591 31.2822H7.44195C4.1674 31.2822 1.51657 28.6314 1.51657 25.3568C1.51657 22.0823 4.1751 19.4315 7.44195 19.4315H31.1492C27.1932 22.3941 27.1797 28.3099 31.1492 31.2841H23.7146C23.3084 31.2841 22.9773 31.6153 22.9773 32.0214C22.9773 32.4276 23.3084 32.7587 23.7146 32.7587H42.9827C47.0638 32.7587 50.3846 29.438 50.3846 25.3568C50.3846 21.2757 47.0734 17.9549 42.9827 17.9549V17.953ZM35.5788 31.2803C32.312 31.2803 29.6534 28.6218 29.6534 25.3549C29.6534 22.0881 32.312 19.4295 35.5788 19.4295C38.8457 19.4295 41.5061 22.0881 41.5061 25.3549C41.5061 28.6218 38.8476 31.2803 35.5788 31.2803ZM42.9827 31.2803H40.0065C43.9625 28.3157 43.976 22.4018 40.0065 19.4276H42.9827C46.2572 19.4276 48.908 22.0784 48.908 25.353C48.908 28.6275 46.2495 31.2784 42.9827 31.2784V31.2803Z" fill="#2A4DDD"/>
<path id="Vector_3" d="M7.44198 14.9845H42.9827C47.0638 14.9845 50.3846 11.6638 50.3846 7.5826C50.3846 3.50144 47.0735 0.182617 42.9827 0.182617H7.44198C5.3552 0.182617 3.35312 1.072 1.95167 2.61976C1.6783 2.922 1.70141 3.38786 2.00364 3.66123C2.30588 3.93459 2.77175 3.91148 3.04511 3.60925C4.16743 2.3695 5.76909 1.65722 7.44198 1.65722H14.8593C10.9033 4.62184 10.8898 10.5357 14.8593 13.5099H7.44198C4.16743 13.5099 1.5166 10.8591 1.5166 7.5826C1.5166 7.15331 1.5628 6.72787 1.65135 6.31783C1.73798 5.91934 1.48772 5.52662 1.08923 5.43999C0.692667 5.35336 0.298027 5.60362 0.211399 6.00211C0.0978193 6.51611 0.0419922 7.04743 0.0419922 7.5826C0.0419922 11.6734 3.35312 14.9845 7.4439 14.9845H7.44198ZM42.9827 1.65722C46.2572 1.65722 48.9081 4.30805 48.9081 7.5826C48.9081 10.8572 46.2495 13.5099 42.9827 13.5099H23.7185C27.6745 10.5453 27.688 4.63146 23.7185 1.65722H42.9827ZM13.3616 7.5826C13.3616 4.31383 16.0201 1.65722 19.287 1.65722C22.5538 1.65722 25.2143 4.31575 25.2143 7.5826C25.2143 10.8495 22.5557 13.5099 19.287 13.5099C16.0182 13.5099 13.3616 10.8514 13.3616 7.5826Z" fill="#2A4DDD"/>
</g>
</svg>
