<svg width="72" height="73" viewBox="0 0 72 73" fill="none" xmlns="http://www.w3.org/2000/svg">
<g id="ICONES VANTAGENS">
<path id="Vector" d="M36.0932 55.8608C35.6196 55.8608 35.2327 55.4758 35.2327 55.0022C35.2327 54.5287 35.6177 54.1436 36.0932 54.1436C36.5687 54.1436 36.9537 54.5287 36.9537 55.0022C36.9537 55.4758 36.5687 55.8608 36.0932 55.8608ZM63.7218 43.6905C63.7218 39.7518 60.5166 36.5465 56.5779 36.5465C52.6392 36.5465 49.4339 39.7518 49.4339 43.6905C49.4339 47.6292 52.6392 50.8344 56.5779 50.8344C60.5166 50.8344 63.7218 47.6292 63.7218 43.6905ZM62.0027 43.6905C62.0027 46.6821 59.5694 49.1153 56.5779 49.1153C53.5863 49.1153 51.153 46.6821 51.153 43.6905C51.153 40.6989 53.5863 38.2656 56.5779 38.2656C59.5694 38.2656 62.0027 40.6989 62.0027 43.6905ZM67.0098 65.9155C67.4834 65.9155 67.8704 65.5305 67.8704 65.0569V62.5427C67.8704 56.627 62.6996 51.6295 56.5798 51.6295C53.5517 51.6295 50.4889 52.875 48.3828 54.9599L48.0613 55.2794L47.788 54.9194C44.9812 51.231 40.7191 49.1153 36.0951 49.1153C31.4711 49.1153 27.2109 51.231 24.4022 54.9194L24.1288 55.2794L23.8073 54.9618C21.7013 52.875 18.6366 51.6314 15.6104 51.6314C9.49057 51.6314 4.31982 56.6289 4.31982 62.5447V65.0588C4.31982 65.5324 4.70484 65.9174 5.18033 65.9174H67.0137L67.0098 65.9155ZM66.1493 62.5427V64.1964H50.7757V63.7998C50.7757 61.4589 50.2078 59.1257 49.1336 57.0505L49.0104 56.8099L49.1875 56.6058C50.9393 54.596 53.7711 53.3467 56.5779 53.3467C61.7659 53.3467 66.1493 57.5568 66.1493 62.5408V62.5427ZM49.0566 63.7998V64.1964H23.1278V63.7998C23.1278 56.6501 28.9434 50.8344 36.0932 50.8344C43.2429 50.8344 49.0585 56.6501 49.0585 63.7998H49.0566ZM22.995 56.6058L23.1721 56.8099L23.0489 57.0505C21.9747 59.1257 21.4068 61.4589 21.4068 63.7998V64.1964H6.03506V62.5427C6.03506 57.5587 10.4185 53.3486 15.6065 53.3486C18.4133 53.3486 21.2451 54.598 22.9969 56.6077L22.995 56.6058ZM22.7486 43.6905C22.7486 39.7518 19.5433 36.5465 15.6046 36.5465C11.6659 36.5465 8.46066 39.7518 8.46066 43.6905C8.46066 47.6292 11.6659 50.8344 15.6046 50.8344C19.5433 50.8344 22.7486 47.6292 22.7486 43.6905ZM21.0295 43.6905C21.0295 46.6821 18.5962 49.1153 15.6046 49.1153C12.613 49.1153 10.1797 46.6821 10.1797 43.6905C10.1797 40.6989 12.613 38.2656 15.6046 38.2656C18.5962 38.2656 21.0295 40.6989 21.0295 43.6905ZM45.7474 38.6641C45.7474 33.3394 41.416 29.006 36.0893 29.006C30.7626 29.006 26.4331 33.3374 26.4331 38.6641C26.4331 43.9908 30.7646 48.3203 36.0893 48.3203C41.4141 48.3203 45.7474 43.9889 45.7474 38.6641ZM44.0283 38.6641C44.0283 43.0417 40.4669 46.6012 36.0912 46.6012C31.7155 46.6012 28.1542 43.0398 28.1542 38.6641C28.1542 34.2884 31.7155 30.7251 36.0912 30.7251C40.4669 30.7251 44.0283 34.2865 44.0283 38.6641ZM31.011 24.7863L36.047 22.1393L41.0849 24.7863C41.2081 24.8517 41.3448 24.8845 41.4853 24.8845C41.6682 24.8845 41.8434 24.8267 41.9897 24.7208C42.2572 24.5264 42.3881 24.2049 42.3323 23.8796L41.3698 18.2718L45.4452 14.3004C45.68 14.0713 45.7647 13.7325 45.6627 13.4187C45.5607 13.1049 45.295 12.8816 44.9677 12.8335L39.3388 12.0153L36.8189 6.86384C36.6765 6.57123 36.3723 6.38257 36.047 6.38257C35.7216 6.38257 35.4175 6.57123 35.275 6.86384L32.757 12.0153L27.1281 12.8316C26.8008 12.8797 26.5352 13.103 26.4351 13.4168C26.333 13.7306 26.4158 14.0675 26.6526 14.2985L30.728 18.2699L29.7654 23.8776C29.7096 24.1972 29.8444 24.5283 30.1081 24.7189C30.2563 24.8267 30.4296 24.8825 30.6125 24.8825C30.7511 24.8825 30.8897 24.8479 31.0129 24.7843L31.011 24.7863ZM36.047 9.20088L37.9932 13.18C38.1183 13.436 38.3609 13.6131 38.642 13.6536L42.9965 14.285L39.8451 17.3555C39.643 17.5538 39.5506 17.8387 39.5987 18.1159L40.3437 22.4531L36.4493 20.4048C36.3261 20.3394 36.1875 20.3066 36.0489 20.3066C35.9103 20.3066 35.7717 20.3413 35.6485 20.4048L31.754 22.4531L32.4971 18.1159C32.5452 17.8368 32.4528 17.5518 32.2507 17.3555L29.0994 14.285L33.452 13.6536C33.733 13.6131 33.9756 13.436 34.1007 13.18L36.047 9.20088ZM61.2365 31.3257C61.4194 31.3257 61.5946 31.268 61.7428 31.1621C62.0085 30.9696 62.1394 30.6462 62.0855 30.3228L61.4233 26.4592L64.23 23.7217C64.4649 23.4926 64.5496 23.1538 64.4476 22.84C64.3455 22.5262 64.0799 22.3029 63.7526 22.2548L59.8736 21.6908L58.1391 18.1756C57.9928 17.881 57.6983 17.6962 57.3671 17.6962C57.036 17.6962 56.7415 17.8791 56.5971 18.1756L54.8607 21.6908L50.9817 22.2548C50.6563 22.3029 50.3907 22.5262 50.2887 22.84C50.1866 23.1538 50.2694 23.4907 50.5062 23.7217L53.3129 26.4592L52.6507 30.3228C52.5949 30.6481 52.7258 30.9696 52.9934 31.164C53.1416 31.2718 53.3168 31.3277 53.4997 31.3277C53.6383 31.3277 53.7769 31.293 53.8982 31.2295L57.3691 29.4064L60.84 31.2295C60.9632 31.2949 61.0999 31.3277 61.2385 31.3277L61.2365 31.3257ZM57.3671 20.4991L58.5318 22.8573C58.6569 23.1115 58.8995 23.2866 59.1786 23.3271L61.7813 23.7044L59.8986 25.5428C59.6965 25.7411 59.6041 26.0241 59.6522 26.3032L60.0969 28.8944L57.7695 27.672C57.6463 27.6065 57.5077 27.5738 57.3691 27.5738C57.2305 27.5738 57.0919 27.6084 56.9687 27.672L54.6393 28.8963L55.084 26.3052C55.1321 26.026 55.0397 25.7411 54.8376 25.5448L52.953 23.7082L55.5557 23.3309C55.8367 23.2905 56.0774 23.1153 56.2025 22.8612L57.3671 20.503V20.4991ZM18.5057 31.3257C18.6886 31.3257 18.8638 31.268 19.012 31.1602C19.2738 30.9696 19.4086 30.6404 19.3527 30.3209L18.6905 26.4572L21.4973 23.7198C21.7321 23.4907 21.8168 23.1519 21.7148 22.8381C21.6128 22.5243 21.3471 22.301 21.0198 22.2529L17.1408 21.6888L15.4063 18.1736C15.26 17.8772 14.9655 17.6943 14.6363 17.6943C14.3071 17.6943 14.0106 17.8772 13.8643 18.1736L12.1279 21.6888L8.2489 22.2529C7.92356 22.301 7.65598 22.5243 7.55587 22.8381C7.45384 23.1519 7.53662 23.4888 7.77341 23.7198L10.5802 26.4572L9.91794 30.3209C9.86211 30.6462 9.99302 30.9677 10.2606 31.1602C10.4088 31.268 10.584 31.3238 10.7669 31.3238C10.9055 31.3238 11.0441 31.2892 11.1673 31.2256L14.6382 29.4026L18.1091 31.2256C18.2323 31.2911 18.369 31.3238 18.5076 31.3238L18.5057 31.3257ZM14.6363 20.4991L15.801 22.8573C15.9261 23.1115 16.1687 23.2866 16.4478 23.3271L19.0505 23.7044L17.1678 25.5409C16.9656 25.7392 16.8732 26.0222 16.9194 26.3013L17.3641 28.8925L15.0348 27.67C14.9116 27.6046 14.7749 27.5719 14.6344 27.5719C14.4938 27.5719 14.3572 27.6065 14.234 27.67L11.9046 28.8925L12.3493 26.3013C12.3974 26.0222 12.305 25.7392 12.101 25.5409L10.2163 23.7044L12.8209 23.3271C13.1001 23.2866 13.3426 23.1115 13.4678 22.8573L14.6324 20.4991H14.6363ZM44.0418 60.8891C44.1688 60.8891 44.294 60.8602 44.4114 60.8044C44.6193 60.7062 44.7752 60.533 44.8522 60.3154C44.9292 60.0998 44.9177 59.865 44.8195 59.659C44.0591 58.0592 42.8713 56.6982 41.3852 55.7222C41.2447 55.6298 41.081 55.5797 40.9155 55.5797C40.6248 55.5797 40.3553 55.7241 40.1955 55.9686C40.0704 56.1611 40.0261 56.3902 40.0723 56.6135C40.1185 56.8388 40.2494 57.0313 40.4419 57.1583C41.6643 57.9611 42.6423 59.0815 43.2679 60.3982C43.4084 60.6966 43.7145 60.8872 44.0437 60.8872L44.0418 60.8891Z" fill="#2A4DDD"/>
</g>
</svg>
