<svg width="32" height="32" viewBox="0 0 32 32" fill="none" xmlns="http://www.w3.org/2000/svg">
<path d="M16.0003 29.3334C8.63653 29.3334 2.66699 23.3638 2.66699 16C2.66699 8.63622 8.63653 2.66669 16.0003 2.66669C23.3641 2.66669 29.3337 8.63622 29.3337 16C29.3256 23.3605 23.3608 29.3253 16.0003 29.3334ZM16.0003 5.33335C10.1409 5.33484 5.37961 10.0625 5.33665 15.9218C5.29369 21.7811 9.9851 26.5781 15.8439 26.6655C21.7027 26.7529 26.5352 22.098 26.667 16.24V18.6174V16C26.6604 10.1117 21.8886 5.33997 16.0003 5.33335ZM16.0003 22.6667L9.33366 16L16.0003 9.33335L17.8803 11.2134L14.4403 14.6667H22.667V17.3334H14.4403L17.8803 20.7867L16.0003 22.6667Z" fill="#9DADEF"/>
</svg>
