<svg width="19" height="18" viewBox="0 0 19 18" fill="none" xmlns="http://www.w3.org/2000/svg">
<g id="Frame 803">
<g id="Vector">
<path d="M4.2731 3.54518C7.27325 0.545023 12.1826 0.545023 15.1827 3.54518C18.1829 6.54533 18.1829 11.4547 15.1827 14.4548C12.1826 17.455 7.27325 17.455 4.2731 14.4548C1.27295 11.4547 1.27295 6.54533 4.2731 3.54518ZM3.36396 2.63604C-0.136218 6.13622 -0.136217 11.8638 3.36396 15.364C6.86414 18.8641 12.5917 18.8641 16.0919 15.364C19.5921 11.8638 19.5921 6.13622 16.0919 2.63604C12.5917 -0.864141 6.86414 -0.864141 3.36396 2.63604Z" fill="#F1F1F2"/>
<path d="M12.9099 4.90888L9.72792 8.09086L6.54594 4.90888L5.6368 5.81802L8.81878 9L5.6368 12.182L6.54594 13.0911L9.72792 9.90914L12.9099 13.0911L13.819 12.182L10.6371 9L13.819 5.81802L12.9099 4.90888Z" fill="#F1F1F2"/>
</g>
</g>
</svg>
