<svg width="150" height="48" viewBox="0 0 150 48" fill="none" xmlns="http://www.w3.org/2000/svg">
<g id="LOGO 01" clip-path="url(#clip0_913_950)">
<path id="Vector" d="M121.208 23.9858C132.701 22.6665 141.656 12.888 141.656 1.04883H132.523C132.523 8.74262 126.264 15.0065 118.565 15.0065C113.596 15.0065 108.965 12.3295 106.471 8.02524L98.5651 12.5991C102.229 18.9352 108.71 23.1288 115.883 23.9761C104.376 25.2809 95.4067 35.0691 95.4067 46.9131H104.54C104.54 39.2193 110.799 32.9554 118.498 32.9554C123.091 32.9554 127.39 35.2183 130 39.0026L137.828 34.2987C134.03 28.7908 127.761 24.7609 121.213 23.9858H121.208Z" fill="#F1F1F2"/>
<path id="Vector_2" d="M73.7889 0.918809V0.90918H63.7793V10.0233H73.4326V10.0474C81.1264 10.0474 87.3903 16.3064 87.3903 24.005C87.3903 31.7036 81.1313 37.9626 73.4326 37.9626V37.9867H63.7793V47.1008H73.9526V47.0864C86.4466 46.8071 96.5236 36.5664 96.5236 24.0098C96.5236 11.4532 86.3551 1.11139 73.7889 0.918809Z" fill="#F1F1F2"/>
<path id="Vector_3" d="M46.0761 28.9014C46.4275 27.2933 46.6057 25.7141 46.6057 24.0001C46.6105 11.1498 36.1531 0.697266 23.3028 0.697266C10.4526 0.697266 0 11.1498 0 24.0001C0 36.8504 10.4429 47.2885 23.2788 47.303V38.0107C15.5657 37.9963 9.29225 31.718 9.29225 24.0001C9.29225 16.2822 15.5802 9.98951 23.3028 9.98951C29.4945 9.98951 34.752 14.029 36.6009 19.6092H23.2788V28.9014H37.5927" fill="#F1F1F2"/>
<path id="Vector_4" d="M57.8768 0.90918H48.7627V10.0233H57.8768V0.90918Z" fill="#203AEC"/>
<path id="Vector_5" d="M57.8768 37.9819H48.7627V47.096H57.8768V37.9819Z" fill="#203AEC"/>
</g>
<defs>
<clipPath id="clip0_913_950">
<rect width="150" height="46.6057" fill="white" transform="translate(0 0.697266)"/>
</clipPath>
</defs>
</svg>
