<svg xmlns="http://www.w3.org/2000/svg" width="150" height="48" viewBox="0 0 150 48" fill="none">
  <g clip-path="url(#clip0_1197_3374)">
    <path d="M121.208 23.9855C132.701 22.6663 141.656 12.8878 141.656 1.04861H132.523C132.523 8.7424 126.264 15.0062 118.565 15.0062C113.597 15.0062 108.965 12.3293 106.471 8.02502L98.5653 12.5989C102.229 18.935 108.71 23.1285 115.884 23.9759C104.377 25.2807 95.4069 35.0688 95.4069 46.9128H104.54C104.54 39.2191 110.799 32.9552 118.498 32.9552C123.091 32.9552 127.39 35.2181 130 39.0024L137.829 34.2985C134.03 28.7906 127.761 24.7607 121.213 23.9855H121.208Z" fill="#231F20"/>
    <path d="M73.7891 0.918611V0.908981H63.7795V10.0231H73.4328V10.0472C81.1266 10.0472 87.3905 16.3062 87.3905 24.0048C87.3905 31.7034 81.1314 37.9624 73.4328 37.9624V37.9865H63.7795V47.1006H73.9528V47.0862C86.4468 46.8069 96.5238 36.5662 96.5238 24.0096C96.5238 11.453 86.3553 1.1112 73.7891 0.918611Z" fill="#231F20"/>
    <path d="M46.0761 28.9013C46.4275 27.2932 46.6057 25.714 46.6057 24C46.6105 11.1497 36.1531 0.697144 23.3028 0.697144C10.4526 0.697144 0 11.1497 0 24C0 36.8503 10.4429 47.2884 23.2788 47.3028V38.0106C15.5657 37.9961 9.29225 31.7178 9.29225 24C9.29225 16.2821 15.5802 9.98939 23.3028 9.98939C29.4945 9.98939 34.752 14.0289 36.6009 19.609H23.2788V28.9013H37.5927" fill="#231F20"/>
    <path d="M57.8767 0.908981H48.7626V10.0231H57.8767V0.908981Z" fill="#203AEC"/>
    <path d="M57.8767 37.9817H48.7626V47.0958H57.8767V37.9817Z" fill="#203AEC"/>
  </g>
  <defs>
    <clipPath id="clip0_1197_3374">
      <rect width="150" height="46.6057" fill="white" transform="translate(0 0.697144)"/>
    </clipPath>
  </defs>
</svg>