<svg width="18" height="18" viewBox="0 0 18 18" fill="none" xmlns="http://www.w3.org/2000/svg">
<g id="Frame 803">
<g id="Vector">
<path d="M1.28571 9C1.28571 4.75714 4.75714 1.28571 9 1.28571C13.2429 1.28571 16.7143 4.75714 16.7143 9C16.7143 13.2429 13.2429 16.7143 9 16.7143C4.75714 16.7143 1.28571 13.2429 1.28571 9ZM-3.93402e-07 9C-1.77031e-07 13.95 4.05 18 9 18C13.95 18 18 13.95 18 9C18 4.05 13.95 -6.09774e-07 9 -3.93402e-07C4.05 -1.77031e-07 -6.09774e-07 4.05 -3.93402e-07 9Z" fill="#F1F1F2"/>
<path d="M8.35714 3.85714L8.35714 8.35714L3.85714 8.35714L3.85714 9.64286L8.35714 9.64286L8.35714 14.1429L9.64286 14.1429L9.64286 9.64286L14.1429 9.64286L14.1429 8.35714L9.64286 8.35714L9.64286 3.85714L8.35714 3.85714Z" fill="#F1F1F2"/>
</g>
</g>
</svg>
