<svg width="180" height="57" viewBox="0 0 180 57" fill="none" xmlns="http://www.w3.org/2000/svg">
<g id="EDS_branco horizontal 1" clip-path="url(#clip0_749_332)">
<g id="Layer 1">
<g id="Group">
<path id="Vector" d="M125.271 19.4268H130.179V20.7194H126.579V22.7075H129.94V23.9958H126.579V26.1709H130.363V27.4635H125.271V19.4268Z" fill="white"/>
<path id="Vector_2" d="M132.248 19.4268L133.648 21.7178C133.702 21.8149 133.82 22.0453 134.001 22.4148C134.182 22.0395 134.306 21.7975 134.373 21.6917L135.716 19.4268H137.32L134.888 23.2321L137.59 27.4635H135.92L134.383 24.8943C134.23 24.6407 134.08 24.3697 133.932 24.0828C133.833 24.3291 133.691 24.6102 133.504 24.9276L131.991 27.4635H130.407L133.048 23.2655L130.581 19.4268H132.247H132.248Z" fill="white"/>
<path id="Vector_3" d="M143.083 19.4268V20.7194H140.83V27.4635H139.497V20.7194H137.27V19.4268H143.083Z" fill="white"/>
<path id="Vector_4" d="M144.933 22.8351H145.78C146.297 22.8351 146.635 22.8133 146.792 22.7684C147.034 22.696 147.22 22.5684 147.352 22.3902C147.483 22.212 147.549 21.9946 147.549 21.7367C147.549 21.4787 147.486 21.2787 147.36 21.1019C147.234 20.9252 147.058 20.802 146.833 20.7324C146.67 20.6817 146.398 20.6556 146.016 20.6556H144.933V22.838V22.8351ZM144.933 24.0726V27.465H143.6V19.4282H146.01C146.528 19.4282 146.938 19.4587 147.241 19.521C147.547 19.5847 147.831 19.7108 148.094 19.9021C148.357 20.0934 148.559 20.347 148.702 20.6585C148.846 20.9715 148.917 21.3309 148.917 21.7367C148.917 22.1424 148.842 22.5163 148.694 22.838C148.546 23.1597 148.329 23.4191 148.043 23.6147C147.835 23.7582 147.563 23.864 147.226 23.9292L149.202 27.4636H147.609L145.898 24.0712H144.933V24.0726Z" fill="white"/>
<path id="Vector_5" d="M149.745 19.4268H154.653V20.7194H151.051V22.7075H154.413V23.9958H151.051V26.1709H154.836V27.4635H149.745V19.4268Z" fill="white"/>
<path id="Vector_6" d="M157.652 19.4267L159.194 23.564C159.428 24.19 159.609 24.7899 159.735 25.3652C159.806 25.045 159.873 24.787 159.935 24.5914C159.997 24.3929 160.121 24.0422 160.307 23.5364L161.835 19.4267H163.735V27.4635H162.453V22.6568C162.453 22.0873 162.478 21.428 162.529 20.6846H162.478C162.335 21.3294 162.146 21.983 161.911 22.6452L160.18 27.4621H159.241L157.463 22.5336C157.266 21.9888 157.102 21.3743 156.972 20.6889H156.927C156.975 21.2975 156.998 21.9757 156.998 22.7278V27.4621H155.737V19.4253H157.653L157.652 19.4267Z" fill="white"/>
<path id="Vector_7" d="M164.982 19.4268H169.89V20.7194H166.289V22.7075H169.651V23.9958H166.289V26.1709H170.074V27.4635H164.982V19.4268Z" fill="white"/>
<path id="Vector_8" d="M126.359 39.6707H128.432C130.532 39.6707 132.126 38.5216 132.126 35.8016C132.126 33.0816 130.533 31.9339 128.432 31.9339H126.359V39.6707ZM125.271 30.8413H128.797C130.597 30.8413 133.293 32.144 133.293 35.8016C133.293 39.4592 130.597 40.7634 128.797 40.7634H125.271V30.8398V30.8413Z" fill="white"/>
<path id="Vector_9" d="M134.518 30.8413H135.607V40.7648H134.518V30.8413Z" fill="white"/>
<path id="Vector_10" d="M145.17 40.0927C144.121 40.723 142.929 41.0172 141.736 41.0172C138.885 41.0172 136.837 38.9145 136.837 35.8033C136.837 32.692 139.028 30.5908 141.775 30.5908C142.98 30.5908 144.147 30.9415 145.015 31.8936L144.199 32.8196C143.577 32.0907 142.631 31.6835 141.697 31.6835C139.598 31.6835 138.004 33.3934 138.004 35.8033C138.004 38.2132 139.547 39.9246 141.802 39.9246C142.54 39.9246 143.41 39.7144 144.082 39.3507V36.309H141.969V35.2149H145.17V40.0927Z" fill="white"/>
<path id="Vector_11" d="M146.927 30.8413H148.016V40.7648H146.927V30.8413Z" fill="white"/>
<path id="Vector_12" d="M155.932 31.9354H152.899V40.7648H151.811V31.9354H148.779V30.8413H155.932V31.9354Z" fill="white"/>
<path id="Vector_13" d="M158.974 32.3556H158.949L157.043 37.2334H160.788L158.974 32.3556ZM158.482 30.8428H159.506L163.408 40.7663H162.138L161.205 38.3274H156.617L155.671 40.7663H154.44L158.484 30.8428H158.482Z" fill="white"/>
<path id="Vector_14" d="M164.102 30.8413H165.19V39.6708H169.389V40.7648H164.102V30.8413Z" fill="white"/>
<path id="Vector_15" d="M129.638 45.4545L128.683 46.5037C128.539 46.2906 128.357 46.1298 128.136 46.0254C127.915 45.9197 127.672 45.8675 127.411 45.8675C127.002 45.8675 126.688 45.9704 126.466 46.1761C126.245 46.3819 126.134 46.6312 126.134 46.921C126.134 47.1094 126.181 47.276 126.275 47.4224C126.369 47.5673 126.516 47.6934 126.717 47.8006C126.871 47.8774 127.193 48.002 127.682 48.173C128.172 48.3455 128.514 48.4918 128.708 48.6121C129.015 48.8034 129.256 49.0541 129.434 49.3642C129.611 49.6729 129.7 50.0482 129.7 50.4916C129.7 51.2234 129.46 51.8291 128.98 52.3059C128.5 52.7841 127.821 53.0218 126.942 53.0218C126.414 53.0218 125.948 52.9261 125.545 52.7319C125.141 52.5378 124.806 52.2798 124.541 51.9567L125.533 50.9176C125.713 51.193 125.932 51.4017 126.19 51.5422C126.449 51.6813 126.725 51.7523 127.019 51.7523C127.418 51.7523 127.733 51.6422 127.966 51.4205C128.199 51.1988 128.316 50.9423 128.316 50.6467C128.316 50.4394 128.267 50.2598 128.172 50.1076C128.077 49.9554 127.946 49.8352 127.778 49.7468C127.676 49.6946 127.386 49.5801 126.905 49.4033C126.425 49.2265 126.107 49.099 125.955 49.0222C125.679 48.8787 125.456 48.715 125.287 48.5281C125.119 48.3411 124.989 48.1223 124.893 47.8702C124.8 47.618 124.753 47.3456 124.753 47.05C124.753 46.4283 124.947 45.895 125.336 45.453C125.837 44.8777 126.55 44.5908 127.475 44.5908C127.946 44.5908 128.354 44.6647 128.704 44.814C129.053 44.9632 129.363 45.1763 129.637 45.4516L129.638 45.4545Z" fill="white"/>
<path id="Vector_16" d="M136.733 48.8683C136.733 48.3061 136.623 47.796 136.402 47.341C136.181 46.8859 135.863 46.5381 135.452 46.2961C135.041 46.0556 134.605 45.9353 134.149 45.9353C133.694 45.9353 133.275 46.057 132.873 46.299C132.471 46.5425 132.16 46.8801 131.94 47.3149C131.72 47.7496 131.61 48.2423 131.61 48.7959C131.61 49.3494 131.718 49.8668 131.932 50.3058C132.146 50.7464 132.446 51.0913 132.831 51.3391C133.216 51.5883 133.655 51.7115 134.149 51.7115C134.892 51.7115 135.508 51.4434 135.999 50.9058C136.489 50.3682 136.734 49.6885 136.734 48.8669L136.733 48.8683ZM138.112 48.8901C138.112 49.5306 137.984 50.1377 137.73 50.713C137.405 51.4535 136.947 52.0259 136.355 52.4317C135.761 52.8374 135.047 53.0403 134.21 53.0403C132.838 53.0403 131.791 52.5418 131.073 51.5477C130.51 50.771 130.23 49.8668 130.23 48.835C130.23 48.0945 130.379 47.412 130.675 46.7859C130.907 46.299 131.206 45.8904 131.571 45.5585C131.937 45.2281 132.331 44.9861 132.755 44.8354C133.177 44.6847 133.654 44.6094 134.184 44.6094C134.827 44.6094 135.382 44.7181 135.847 44.9354C136.312 45.1528 136.709 45.4499 137.04 45.8252C137.371 46.2005 137.631 46.641 137.824 47.1453C138.016 47.6496 138.112 48.2307 138.112 48.8901Z" fill="white"/>
<path id="Vector_17" d="M140.284 44.7979V51.542H143.455V52.8346H138.925V44.7979H140.284Z" fill="white"/>
<path id="Vector_18" d="M145.253 44.7979V49.3263C145.253 49.7582 145.269 50.061 145.299 50.2378C145.343 50.5001 145.438 50.745 145.582 50.974C145.726 51.2015 145.921 51.3797 146.164 51.5072C146.408 51.6348 146.662 51.6985 146.928 51.6985C147.195 51.6985 147.432 51.6406 147.661 51.5246C147.89 51.4087 148.081 51.2435 148.228 51.0276C148.375 50.8117 148.476 50.5813 148.527 50.3349C148.567 50.1436 148.588 49.8234 148.588 49.3741V44.8007H149.896V49.0814C149.896 49.635 149.881 50.032 149.851 50.2755C149.802 50.7102 149.702 51.0942 149.546 51.429C149.391 51.7637 149.186 52.0521 148.931 52.2956C148.677 52.539 148.387 52.7216 148.063 52.8462C147.74 52.9694 147.346 53.0317 146.883 53.0317C146.419 53.0317 145.973 52.9433 145.583 52.7651C145.193 52.5883 144.87 52.3303 144.613 51.9927C144.356 51.6536 144.173 51.2797 144.069 50.8711C143.963 50.4624 143.911 49.8944 143.911 49.164V44.8007H145.253V44.7979Z" fill="white"/>
<path id="Vector_19" d="M156.164 44.7979V46.0905H153.913V52.8346H152.58V46.0905H150.352V44.7979H156.164Z" fill="white"/>
<path id="Vector_20" d="M157.953 44.7979V52.8346H156.615V44.7979H157.953Z" fill="white"/>
<path id="Vector_21" d="M165.247 48.8683C165.247 48.3061 165.138 47.796 164.917 47.341C164.695 46.8859 164.378 46.5381 163.967 46.2961C163.555 46.0556 163.121 45.9353 162.664 45.9353C162.207 45.9353 161.788 46.057 161.387 46.299C160.985 46.5425 160.674 46.8801 160.455 47.3149C160.235 47.7496 160.125 48.2423 160.125 48.7959C160.125 49.3494 160.232 49.8668 160.447 50.3058C160.661 50.7464 160.961 51.0913 161.346 51.3391C161.73 51.5883 162.17 51.7115 162.664 51.7115C163.406 51.7115 164.023 51.4434 164.513 50.9058C165.004 50.3682 165.249 49.6885 165.249 48.8669L165.247 48.8683ZM166.626 48.8901C166.626 49.5306 166.499 50.1377 166.243 50.713C165.919 51.4535 165.461 52.0259 164.868 52.4317C164.275 52.8374 163.561 53.0403 162.723 53.0403C161.351 53.0403 160.305 52.5418 159.586 51.5477C159.024 50.771 158.744 49.8668 158.744 48.835C158.744 48.0945 158.891 47.412 159.188 46.7859C159.42 46.299 159.719 45.8904 160.085 45.5585C160.451 45.2281 160.845 44.9861 161.268 44.8354C161.69 44.6847 162.167 44.6094 162.698 44.6094C163.341 44.6094 163.896 44.7181 164.36 44.9354C164.825 45.1528 165.223 45.4499 165.553 45.8252C165.884 46.2005 166.145 46.641 166.337 47.1453C166.53 47.6496 166.625 48.2307 166.625 48.8901H166.626Z" fill="white"/>
<path id="Vector_22" d="M169.191 44.7979L172.164 49.7422C172.416 50.1581 172.649 50.6639 172.864 51.2609C172.823 50.6233 172.802 50.0755 172.802 49.6147V44.7993H174.104V52.8361H172.419L169.487 47.97C169.365 47.7671 169.22 47.499 169.053 47.1628C168.947 46.9425 168.832 46.66 168.706 46.318C168.734 46.6788 168.746 47.2121 168.746 47.9149V52.8361H167.444V44.7993H169.189L169.191 44.7979Z" fill="white"/>
<path id="Vector_23" d="M179.938 45.4545L178.983 46.5037C178.84 46.2906 178.657 46.1298 178.436 46.0254C178.215 45.9197 177.973 45.8675 177.711 45.8675C177.303 45.8675 176.988 45.9704 176.767 46.1761C176.544 46.3819 176.434 46.6312 176.434 46.921C176.434 47.1094 176.481 47.276 176.575 47.4224C176.669 47.5673 176.816 47.6934 177.016 47.8006C177.17 47.8774 177.492 48.002 177.982 48.173C178.472 48.3455 178.814 48.4918 179.008 48.6121C179.315 48.8034 179.556 49.0541 179.735 49.3642C179.912 49.6729 180 50.0482 180 50.4916C180 51.2234 179.76 51.8291 179.28 52.3059C178.801 52.7841 178.121 53.0218 177.242 53.0218C176.715 53.0218 176.248 52.9261 175.845 52.7319C175.442 52.5378 175.107 52.2798 174.841 51.9567L175.832 50.9176C176.012 51.193 176.231 51.4017 176.491 51.5422C176.749 51.6813 177.025 51.7523 177.319 51.7523C177.718 51.7523 178.033 51.6422 178.266 51.4205C178.499 51.1988 178.616 50.9423 178.616 50.6467C178.616 50.4394 178.568 50.2598 178.472 50.1076C178.377 49.9554 178.246 49.8352 178.079 49.7468C177.977 49.6946 177.686 49.5801 177.205 49.4033C176.725 49.2265 176.408 49.099 176.255 49.0222C175.979 48.8787 175.756 48.715 175.588 48.5281C175.419 48.3411 175.288 48.1223 175.194 47.8702C175.1 47.618 175.053 47.3456 175.053 47.05C175.053 46.4283 175.247 45.895 175.635 45.453C176.136 44.8777 176.849 44.5908 177.776 44.5908C178.246 44.5908 178.655 44.6647 179.004 44.814C179.353 44.9632 179.664 45.1763 179.937 45.4516L179.938 45.4545Z" fill="white"/>
<g id="Group_2">
<path id="Vector_24" d="M38.1661 32.9035V23.9147L30.2311 15.5156H7.93229L0 23.9726V24.2857C0 32.4224 0 40.1071 0.0522566 47.8482V48.1554L7.92961 56.6733H30.1802L38.6646 47.6207L31.559 39.939L38.1648 32.9021L38.1661 32.9035ZM10.6027 28.9895L1.42299 45.2108C1.38681 38.4044 1.38547 31.4819 1.38547 25.2942L10.3214 28.2012C10.3562 28.4837 10.4513 28.7518 10.6014 28.988L10.6027 28.9895ZM2.01121 23.9335L7.92291 17.6299L10.8345 26.6463C10.7957 26.6854 10.7595 26.726 10.7247 26.7694L2.01121 23.935V23.9335ZM14.053 28.4185L36.7793 25.087V32.2746L30.4696 38.997L14.053 28.4185ZM16.568 45.0688C16.6109 44.9601 16.6444 44.8471 16.6672 44.7312L30.3035 40.7027L36.6976 47.6164L29.6577 55.1271L16.568 45.0688ZM15.1075 46.1687C15.2442 46.1615 15.3782 46.1354 15.5095 46.0933L27.3316 55.1778H9.51607L15.1075 46.1687ZM16.3724 43.2661C16.1299 42.9154 15.7748 42.6676 15.3795 42.5749L12.9771 29.4706L28.7251 39.6173L16.3737 43.2661H16.3724ZM27.4548 17.014L12.9476 26.468C12.7091 26.2883 12.4317 26.1796 12.1423 26.1521L9.19181 17.014H27.4548ZM11.6586 29.9908L14.0222 42.885C13.5948 43.2256 13.3375 43.7661 13.3375 44.3501C13.3375 44.8123 13.5037 45.2572 13.7944 45.592L8.1105 54.7504L1.61996 47.7309L11.6586 29.9908ZM15.2228 26.7332L29.8452 17.2053L35.974 23.693L15.2228 26.7347V26.7332Z" fill="white"/>
<path id="Vector_25" d="M61.5369 9.10333V15.7982H48.1994L40.4305 24.261V48.212L40.7789 48.5931C42.1095 50.0944 43.4882 51.5754 44.8643 53.0564C45.892 54.162 46.9532 55.3025 47.9917 56.4516L48.1953 56.6777H70.4031L78.1746 48.2134V9.00189L69.8551 0L61.5355 9.10333H61.5369ZM55.8396 38.4682L63.2278 26.4869C63.4007 26.5188 63.5789 26.5202 63.7531 26.4912L76.5251 47.883L70.1632 54.8112L55.9977 40.0433C56.062 39.8477 56.0955 39.639 56.0955 39.4318C56.0955 39.0913 56.0057 38.7565 55.8396 38.4696V38.4682ZM54.6872 37.6349C54.4045 37.5842 54.1137 37.6146 53.8444 37.7175L42.7633 25.3247L61.963 25.4319C61.9951 25.5102 62.0326 25.5841 62.0742 25.6565L54.6859 37.6349H54.6872ZM49.4951 55.1764L54.501 41.2519C54.6845 41.2418 54.8654 41.1968 55.0369 41.1229L68.5165 55.1764H49.4951ZM63.2694 22.8844C62.7039 22.9713 62.2108 23.3698 61.971 23.9335L42.7808 23.8278L48.7755 17.2966H62.921V9.7192L68.4455 3.67495L63.2667 22.8858L63.2694 22.8844ZM53.0378 41.1896L48.2262 54.5707C47.3927 53.6592 46.5553 52.7579 45.7929 51.9377C44.7585 50.8262 43.4896 49.4611 42.2823 48.1149L53.0378 41.1881V41.1896ZM52.739 39.6361L41.816 46.6701V26.4202L52.8475 38.758C52.7685 38.971 52.7269 39.2 52.7269 39.4289C52.7269 39.497 52.731 39.5651 52.7377 39.6347L52.739 39.6361ZM65.0756 24.0393L76.7904 11.2509V45.5645L64.9161 25.6768C65.0917 25.3841 65.1868 25.0421 65.1868 24.69C65.1868 24.4668 65.1479 24.2466 65.0742 24.0379L65.0756 24.0393ZM76.56 9.37286L64.9322 22.0656L70.2061 2.49972L76.56 9.37286Z" fill="white"/>
<path id="Vector_26" d="M119.368 24.4495L110.832 15.3433H88.4249L80.4404 23.9177V32.7891L87.0502 39.9376L79.8923 47.6759L88.3191 56.7893H110.832L118.763 48.2686V39.3377L112.155 32.2515L119.366 24.448L119.368 24.4495ZM104.49 25.3755L110.605 17.2068L116.862 23.8829L104.49 25.3755ZM117.376 40.4752V47.6454L110.772 54.7417L105.66 42.2823C105.81 42.1011 105.926 41.8881 105.998 41.6591L117.376 40.4752ZM94.6903 31.3357C94.4237 31.156 94.1155 31.0589 93.8006 31.0589C92.8721 31.0589 92.1164 31.8747 92.1164 32.879C92.1164 33.1369 92.1673 33.3905 92.2651 33.6253L87.9988 38.8435L81.8258 32.1689V25.048L100.869 26.8796L94.6917 31.3357H94.6903ZM94.1102 34.6701C94.3004 34.6324 94.4813 34.5585 94.6475 34.4542L102.753 40.7158C102.731 40.8332 102.719 40.952 102.719 41.0708C102.719 41.2519 102.745 41.4302 102.793 41.6012L89.793 53.9172L94.1102 34.6701ZM90.9962 16.8416H109.093L103.313 24.564C102.876 24.4408 102.388 24.5205 102.001 24.7799L90.9962 16.8416ZM95.4608 32.5805L101.996 27.8665C102.112 27.9462 102.238 28.01 102.371 28.0549L103.544 39.484L95.4501 33.2311C95.4715 33.1137 95.4836 32.9949 95.4836 32.8761C95.4836 32.7761 95.4755 32.6775 95.4608 32.579V32.5805ZM103.708 42.7271C103.922 42.8329 104.155 42.8894 104.394 42.8909L109.482 55.291H90.4482L103.708 42.7271ZM105.865 40.1666C105.658 39.7753 105.32 39.4782 104.925 39.3377L103.748 27.8897C104.097 27.6636 104.362 27.3028 104.488 26.884L116.496 25.4349L110.19 32.2573L116.532 39.058L105.865 40.168V40.1666ZM100.246 25.3146L82.678 23.6235L88.7961 17.0547L100.246 25.3146ZM88.9796 39.9043L92.4674 35.6381L88.2226 54.5664L81.8513 47.6759L88.784 40.1811L88.993 39.9202L88.9796 39.9057V39.9043Z" fill="white"/>
</g>
</g>
</g>
</g>
<defs>
<clipPath id="clip0_749_332">
<rect width="180" height="56.7893" fill="white"/>
</clipPath>
</defs>
</svg>
