<svg width="180" height="57" viewBox="0 0 180 57" fill="none" xmlns="http://www.w3.org/2000/svg">
<g id="LOGO 01" clip-path="url(#clip0_749_325)">
<path id="Vector" d="M145.45 28.3773C159.241 26.7943 169.987 15.0601 169.987 0.853027H159.027C159.027 10.0856 151.517 17.6022 142.278 17.6022C136.316 17.6022 130.758 14.3899 127.765 9.22472L118.278 14.7134C122.675 22.3167 130.452 27.3489 139.06 28.3658C125.252 29.9315 114.488 41.6773 114.488 55.8901H125.448C125.448 46.6576 132.959 39.1409 142.197 39.1409C147.709 39.1409 152.869 41.8564 156 46.3976L165.394 40.7529C160.836 34.1434 153.313 29.3075 145.456 28.3773H145.45Z" fill="#F1F1F2"/>
<path id="Vector_2" d="M88.547 0.697102V0.685547H76.5354V11.6225H88.1194V11.6514C97.352 11.6514 104.869 19.1622 104.869 28.4005C104.869 37.6388 97.3577 45.1497 88.1194 45.1497V45.1786H76.5354V56.1155H88.7434V56.0982C103.736 55.7631 115.829 43.4742 115.829 28.4063C115.829 13.3384 103.626 0.928205 88.547 0.697102Z" fill="#F1F1F2"/>
<path id="Vector_3" d="M55.2913 34.2761C55.713 32.3464 55.9268 30.4514 55.9268 28.3946C55.9326 12.9742 43.3837 0.431152 27.9634 0.431152C12.5431 0.431152 0 12.9742 0 28.3946C0 43.8149 12.5315 56.3406 27.9345 56.358V45.2073C18.6789 45.1899 11.1507 37.656 11.1507 28.3946C11.1507 19.1331 18.6962 11.5819 27.9634 11.5819C35.3934 11.5819 41.7025 16.4292 43.921 23.1254H27.9345V34.2761H45.1112" fill="#F1F1F2"/>
<path id="Vector_4" d="M69.4521 0.685547H58.5151V11.6225H69.4521V0.685547Z" fill="#F1F1F2"/>
<path id="Vector_5" d="M69.4521 45.1729H58.5151V56.1098H69.4521V45.1729Z" fill="#F1F1F2"/>
</g>
<defs>
<clipPath id="clip0_749_325">
<rect width="180" height="55.9268" fill="white" transform="translate(0 0.431152)"/>
</clipPath>
</defs>
</svg>
