<svg width="240" height="27" viewBox="0 0 240 27" fill="none" xmlns="http://www.w3.org/2000/svg">
<g id="Frame 781">
<g id="Group">
<path id="Vector" d="M0 0H17.8948V5.35754H5.80318V10.2694H17.2263V15.627H5.80318V20.9845H18.5632V26.3421H0V0Z" fill="white"/>
<path id="Vector_2" d="M28.382 12.5768L19.6772 0H26.9708L32.5908 9.22467L37.983 0H45.0141L36.4925 12.463L46.0143 26.3421H38.7207L32.2838 15.7409L26.035 26.3421H19.1523L28.377 12.5768H28.382Z" fill="white"/>
<path id="Vector_3" d="M52.4168 5.13472H44.9004V0H65.7364V5.13472H58.22V26.3421H52.4168V5.13472Z" fill="white"/>
<path id="Vector_4" d="M67.296 0H77.4911C82.8833 0 87.4239 1.86177 87.4239 7.9967C87.4239 11.6806 85.4532 14.5426 81.7296 15.216L88.4241 26.3371H81.4672L75.9611 15.8102H73.0942V26.3371H67.291V0H67.296ZM73.0991 10.8983H76.5206C78.6399 10.8983 81.3929 10.824 81.3929 7.95708C81.3929 5.31793 79.0113 4.90695 76.892 4.90695H73.0991V10.8983Z" fill="white"/>
<path id="Vector_5" d="M90.2461 0H108.141V5.35754H96.0493V10.2694H107.472V15.627H96.0493V20.9845H108.809V26.3421H90.2461V0Z" fill="white"/>
<path id="Vector_6" d="M112.082 0H120.861L126.927 17.1867H127.001L133.101 0H141.846V26.3421H136.042V6.13988H135.968L129.051 26.3421H124.624L117.964 6.13988H117.89V26.3421H112.087V0H112.082Z" fill="white"/>
<path id="Vector_7" d="M146.045 0H163.94V5.35754H151.848V10.2694H163.271V15.627H151.848V20.9845H164.608V26.3421H146.045V0Z" fill="white"/>
</g>
<g id="Group_2">
<path id="Vector_8" d="M181.711 25.2379C179.789 26.2431 177.68 26.659 175.506 26.659C170.891 26.659 167.524 23.6287 167.524 18.8851C167.524 14.1416 170.887 11.1162 175.506 11.1162C177.843 11.1162 179.913 11.6361 181.399 13.0176L179.101 15.5231C178.225 14.6021 177.16 14.1218 175.506 14.1218C172.728 14.1218 170.911 16.1271 170.911 18.8851C170.911 21.6431 172.728 23.6485 175.506 23.6485C176.927 23.6485 177.972 23.2524 178.576 22.9157V20.5142H175.922V17.5037H181.711V25.233V25.2379Z" fill="white"/>
<path id="Vector_9" d="M184.053 11.4927H189.777C192.807 11.4927 195.357 12.5374 195.357 15.9837C195.357 18.0534 194.248 19.6627 192.158 20.034L195.917 26.2829H192.01L188.92 20.3707H187.311V26.2829H184.053V11.4927ZM187.311 17.6127H189.232C190.425 17.6127 191.97 17.5731 191.97 15.9639C191.97 14.4784 190.633 14.2507 189.44 14.2507H187.311V17.6127Z" fill="white"/>
<path id="Vector_10" d="M204.254 11.1162C208.869 11.1162 212.236 14.1465 212.236 18.8851C212.236 23.6237 208.874 26.659 204.254 26.659C199.635 26.659 196.272 23.6287 196.272 18.8851C196.272 14.1416 199.635 11.1162 204.254 11.1162ZM204.254 23.6485C207.032 23.6485 208.849 21.6431 208.849 18.8851C208.849 16.1271 207.032 14.1218 204.254 14.1218C201.477 14.1218 199.659 16.1271 199.659 18.8851C199.659 21.6431 201.477 23.6485 204.254 23.6485Z" fill="white"/>
<path id="Vector_11" d="M226.398 20.5787C226.398 24.0646 224.268 26.6592 220.174 26.6592C216.079 26.6592 213.93 24.0695 213.93 20.5787V11.4927H217.188V20.4549C217.188 22.2721 218.441 23.6536 220.174 23.6536C221.907 23.6536 223.14 22.2771 223.14 20.4549V11.4927H226.398V20.5787Z" fill="white"/>
<path id="Vector_12" d="M228.884 11.4927H234.38C237.45 11.4927 240 12.4731 240 15.9837C240 19.4943 237.638 20.5193 234.529 20.5193H232.147V26.2829H228.889V11.4927H228.884ZM232.142 17.7613H234.316C235.464 17.7613 236.613 17.3652 236.613 15.9837C236.613 14.4586 235.068 14.2507 233.815 14.2507H232.142V17.7613Z" fill="white"/>
</g>
</g>
</svg>
