<?xml version="1.0" encoding="UTF-8"?>
<svg id="Layer_2" data-name="Layer 2" xmlns="http://www.w3.org/2000/svg" viewBox="0 0 294.22 96.8">
  <defs>
    <style>
      .cls-1 {
        fill: #203aec;
      }

      .cls-1, .cls-2 {
        stroke-width: 0px;
      }

      .cls-2 {
        fill: #231f20;
      }
    </style>
  </defs>
  <g id="Layer_1-2" data-name="Layer 1">
    <g>
      <path class="cls-2" d="m251.75,48.37c23.87-2.74,42.47-23.05,42.47-47.64h-18.97c0,15.98-13,28.99-28.99,28.99-10.32,0-19.94-5.56-25.12-14.5l-16.42,9.5c7.61,13.16,21.07,21.87,35.97,23.63-23.9,2.71-42.53,23.04-42.53,47.64h18.97c0-15.98,13-28.99,28.99-28.99,9.54,0,18.47,4.7,23.89,12.56l16.26-9.77c-7.89-11.44-20.91-19.81-34.51-21.42Z"/>
      <path class="cls-2" d="m153.26.46v-.02h-20.79v18.93h20.05v.05c15.98,0,28.99,13,28.99,28.99s-13,28.99-28.99,28.99v.05h-20.05v18.93h21.13v-.03c25.95-.58,46.88-21.85,46.88-47.93S179.36.86,153.26.46Z"/>
      <path class="cls-2" d="m95.7,58.58c.73-3.34,1.1-6.62,1.1-10.18C96.81,21.71,75.09,0,48.4,0S0,21.71,0,48.4s21.69,48.37,48.35,48.4v-19.3c-16.02-.03-29.05-13.07-29.05-29.1s13.06-29.1,29.1-29.1c12.86,0,23.78,8.39,27.62,19.98h-27.67v19.3h29.73s17.63,0,17.63,0Z"/>
      <rect class="cls-1" x="101.28" y=".44" width="18.93" height="18.93"/>
      <rect class="cls-1" x="101.28" y="77.44" width="18.93" height="18.93"/>
    </g>
  </g>
</svg>