<svg width="60" height="60" viewBox="0 0 60 60" fill="none" xmlns="http://www.w3.org/2000/svg">
<g id="Frame 744">
<path id="Vector" d="M30 38.8235C34.8731 38.8235 38.8235 34.8731 38.8235 30C38.8235 25.1269 34.8731 21.1765 30 21.1765C25.1269 21.1765 21.1765 25.1269 21.1765 30C21.1765 34.8731 25.1269 38.8235 30 38.8235Z" fill="#032D42"/>
<path id="Vector_2" d="M30 17.6471C34.8731 17.6471 38.8235 13.6966 38.8235 8.82353C38.8235 3.95043 34.8731 0 30 0C25.1269 0 21.1765 3.95043 21.1765 8.82353C21.1765 13.6966 25.1269 17.6471 30 17.6471Z" fill="#62D84E"/>
<path id="Vector_3" d="M30 60C34.8731 60 38.8235 56.0496 38.8235 51.1765C38.8235 46.3034 34.8731 42.3529 30 42.3529C25.1269 42.3529 21.1765 46.3034 21.1765 51.1765C21.1765 56.0496 25.1269 60 30 60Z" fill="#62D84E"/>
<path id="Vector_4" d="M17.6471 30C17.6471 25.1269 13.6966 21.1765 8.82353 21.1765C3.95043 21.1765 -5.08894e-07 25.1269 -3.27835e-07 30C-1.46777e-07 34.8731 3.95043 38.8235 8.82353 38.8235C13.6966 38.8235 17.6471 34.8731 17.6471 30Z" fill="#62D84E"/>
<path id="Vector_5" d="M60 30C60 25.1269 56.0496 21.1765 51.1765 21.1765C46.3034 21.1765 42.353 25.1269 42.353 30C42.353 34.8731 46.3034 38.8235 51.1765 38.8235C56.0496 38.8235 60 34.8731 60 30Z" fill="#62D84E"/>
</g>
</svg>
