<svg width="100" height="100" viewBox="0 0 100 100" fill="none" xmlns="http://www.w3.org/2000/svg">
<g id="CUSTOMER WORKFLOW">
<path id="Vector" d="M54.958 39.4545C59.2257 39.4545 62.6853 35.9949 62.6853 31.7273C62.6853 27.4596 59.2257 24 54.958 24C50.6904 24 47.2308 27.4596 47.2308 31.7273C47.2308 35.9949 50.6904 39.4545 54.958 39.4545Z" fill="#032D42"/>
<path id="Vector_2" d="M53.5023 76.2931C47.2214 76.2931 41.3162 73.847 36.8761 69.4068C27.708 60.2387 27.708 45.3205 36.8761 36.1525L43.4839 42.7604C37.9581 48.2862 37.9581 57.2749 43.4839 62.8008C46.246 65.5628 49.8751 66.9438 53.5042 66.9438C57.1333 66.9438 60.7605 65.5628 63.5244 62.8008L70.1323 69.4087C65.6903 73.8507 59.7869 76.295 53.506 76.295L53.5023 76.2931Z" fill="#62D84E"/>
</g>
</svg>
