<svg width="100" height="100" viewBox="0 0 100 100" fill="none" xmlns="http://www.w3.org/2000/svg">
<g id="EMPLOYEE WORKFLOW">
<path id="Vector" d="M54.6101 75.6248H45.2663C45.2663 58.7463 58.9979 45.0148 75.8764 45.0148V54.3585C64.15 54.3585 54.6101 63.8985 54.6101 75.6248Z" fill="#032D42"/>
<path id="Vector_2" d="M49.714 39.7879C53.9816 39.7879 57.4412 36.3283 57.4412 32.0606C57.4412 27.793 53.9816 24.3333 49.714 24.3333C45.4463 24.3333 41.9867 27.793 41.9867 32.0606C41.9867 36.3283 45.4463 39.7879 49.714 39.7879Z" fill="#032D42"/>
<path id="Vector_3" d="M54.6101 75.6248H45.2663C45.2663 63.8985 35.7264 54.3585 24 54.3585V45.0148C40.8785 45.0148 54.6101 58.7463 54.6101 75.6248Z" fill="#62D84E"/>
</g>
</svg>
