<svg width="100" height="100" viewBox="0 0 100 100" fill="none" xmlns="http://www.w3.org/2000/svg">
<g id="TECHNOLOGY WORKFLOW">
<path id="Vector" d="M31.7273 75.6249C35.9949 75.6249 39.4545 72.1653 39.4545 67.8976C39.4545 63.63 35.9949 60.1703 31.7273 60.1703C27.4596 60.1703 24 63.63 24 67.8976C24 72.1653 27.4596 75.6249 31.7273 75.6249Z" fill="#62D84E"/>
<path id="Vector_2" d="M49.9382 75.6249C54.2059 75.6249 57.6655 72.1653 57.6655 67.8976C57.6655 63.63 54.2059 60.1703 49.9382 60.1703C45.6706 60.1703 42.2109 63.63 42.2109 67.8976C42.2109 72.1653 45.6706 75.6249 49.9382 75.6249Z" fill="#62D84E"/>
<path id="Vector_3" d="M68.1491 75.6249C72.4168 75.6249 75.8764 72.1653 75.8764 67.8976C75.8764 63.63 72.4168 60.1703 68.1491 60.1703C63.8815 60.1703 60.4219 63.63 60.4219 67.8976C60.4219 72.1653 63.8815 75.6249 68.1491 75.6249Z" fill="#032D42"/>
<path id="Vector_4" d="M75.8764 54.9434C58.9979 54.9434 45.2664 41.2119 45.2664 24.3333H54.6101C54.6101 36.0597 64.15 45.5997 75.8764 45.5997V54.9434Z" fill="#032D42"/>
<path id="Vector_5" d="M24 54.9434V45.5997C35.7264 45.5997 45.2663 36.0597 45.2663 24.3333H54.6101C54.6101 41.2119 40.8785 54.9434 24 54.9434Z" fill="#62D84E"/>
</g>
</svg>
